<svg xmlns="http://www.w3.org/2000/svg">
<defs>
<font id="GTWalsheimPro" horiz-adv-x="575" >
  <font-face 
    font-family="GT Walsheim Pro"
    font-weight="400"
    font-stretch="normal"
    units-per-em="1000"
    panose-1="2 0 5 3 3 0 0 2 0 3"
    ascent="800"
    descent="-200"
    x-height="454"
    cap-height="700"
    bbox="-145 -328 1191 976"
    underline-thickness="50"
    underline-position="-200"
    unicode-range="U+000D-FB04"
  />
<missing-glyph horiz-adv-x="800" 
d="M400 717q162 0 262 -109t100 -258t-100 -258t-262 -109t-262 109t-100 258t100 258t262 109zM400 695q-74 0 -143 -29q-60 -27 -106 -76q-44 -48 -67 -110q-24 -63 -24 -130q0 -68 24 -129q23 -63 67 -110q48 -52 106 -76q69 -29 143 -29q75 0 142 29q58 24 106 76
q44 47 67 110q24 61 24 129q0 67 -24 130q-23 62 -67 110q-46 49 -106 76q-67 29 -142 29zM168 228q82 -49 116 -60q35 -11 72 -11q148 0 220 37q1 0 3 2q-26 -57 -107 -99q-56 -31 -106 -31q-102 0 -198 162zM219 259l179 268l-110 -243h178v-25h-247zM230 169
q27 -39 67.5 -58t68.5 -19q30 0 70 15.5t59 27t32 20.5q-119 -23 -169 -23q-91 0 -128 37zM498 500q0 18 12.5 30.5t29.5 12.5q18 0 30.5 -12.5t12.5 -30.5q0 -17 -12.5 -30t-30.5 -13q-17 0 -29.5 13t-12.5 30zM201 500q0 18 12.5 30.5t29.5 12.5q18 0 30.5 -12.5
t12.5 -30.5q0 -17 -12.5 -30t-30.5 -13q-17 0 -29.5 13t-12.5 30zM600 161q2 5 2 18q0 2 -4 13l-3 5q-1 0 -3 2q-2 0 -4 2l-14 5q-22 10 -33 19q-11 8 -18 20l-4 11q0 1 -1.5 6t-1.5 8q-4 15 -4 31q3 18 3 19l15 -5q0 -1 -0.5 -4.5t-0.5 -5.5v-13q3 -23 4 -27q1 -2 2 -6
t3 -6q3 -6 19 -20q4 -2 8.5 -4.5t9.5 -5t8 -3.5l15 -6q4 -2 7 -5q5 -4 7 -9q5 -9 6 -19q0 -19 -2 -24zM213 331q0 -6 2 -20t2 -20q0 -10 -7 -20q-8 -9 -14 -13h-2l-2 -1q-14 -6 -21 -10q-6 -2 -10 -5l-6 -5q-3 -5 -5 -13q-2 -14 -2 -17h-16q0 6 2 20q8 19 9 20l9 8l11 7
q5 3 24 10l1 1q5 2 9 8q4 5 4 10q0 4 -2 18l-3 20z" />
    <glyph glyph-name="fi" unicode="fi" horiz-adv-x="623" 
d="M336 620q-26 8 -51 8q-17 0 -28.5 -2t-24.5 -10t-19.5 -26.5t-6.5 -47.5v-88h130v-73h-130v-381h-87v381h-98v73h98v79q0 58 15.5 95.5t43 53t48.5 20t48 4.5q40 0 62 -12v-74zM441 454h87v-454h-87v454zM418 625q0 29 19 48.5t47 19.5q29 0 48.5 -19.5t19.5 -48.5
q0 -28 -19.5 -47t-48.5 -19q-28 0 -47 19t-19 47z" />
    <glyph glyph-name="fl" unicode="fl" horiz-adv-x="590" 
d="M336 620q-26 8 -51 8q-17 0 -28.5 -2t-24.5 -10t-19.5 -26.5t-6.5 -47.5v-88h130v-73h-130v-381h-87v381h-98v73h98v79q0 58 15.5 95.5t43 53t48.5 20t48 4.5q40 0 62 -12v-74zM425 700h87v-700h-87v700z" />
    <glyph glyph-name=".notdef" horiz-adv-x="800" 
d="M400 717q162 0 262 -109t100 -258t-100 -258t-262 -109t-262 109t-100 258t100 258t262 109zM400 695q-74 0 -143 -29q-60 -27 -106 -76q-44 -48 -67 -110q-24 -63 -24 -130q0 -68 24 -129q23 -63 67 -110q48 -52 106 -76q69 -29 143 -29q75 0 142 29q58 24 106 76
q44 47 67 110q24 61 24 129q0 67 -24 130q-23 62 -67 110q-46 49 -106 76q-67 29 -142 29zM168 228q82 -49 116 -60q35 -11 72 -11q148 0 220 37q1 0 3 2q-26 -57 -107 -99q-56 -31 -106 -31q-102 0 -198 162zM219 259l179 268l-110 -243h178v-25h-247zM230 169
q27 -39 67.5 -58t68.5 -19q30 0 70 15.5t59 27t32 20.5q-119 -23 -169 -23q-91 0 -128 37zM498 500q0 18 12.5 30.5t29.5 12.5q18 0 30.5 -12.5t12.5 -30.5q0 -17 -12.5 -30t-30.5 -13q-17 0 -29.5 13t-12.5 30zM201 500q0 18 12.5 30.5t29.5 12.5q18 0 30.5 -12.5
t12.5 -30.5q0 -17 -12.5 -30t-30.5 -13q-17 0 -29.5 13t-12.5 30zM600 161q2 5 2 18q0 2 -4 13l-3 5q-1 0 -3 2q-2 0 -4 2l-14 5q-22 10 -33 19q-11 8 -18 20l-4 11q0 1 -1.5 6t-1.5 8q-4 15 -4 31q3 18 3 19l15 -5q0 -1 -0.5 -4.5t-0.5 -5.5v-13q3 -23 4 -27q1 -2 2 -6
t3 -6q3 -6 19 -20q4 -2 8.5 -4.5t9.5 -5t8 -3.5l15 -6q4 -2 7 -5q5 -4 7 -9q5 -9 6 -19q0 -19 -2 -24zM213 331q0 -6 2 -20t2 -20q0 -10 -7 -20q-8 -9 -14 -13h-2l-2 -1q-14 -6 -21 -10q-6 -2 -10 -5l-6 -5q-3 -5 -5 -13q-2 -14 -2 -17h-16q0 6 2 20q8 19 9 20l9 8l11 7
q5 3 24 10l1 1q5 2 9 8q4 5 4 10q0 4 -2 18l-3 20z" />
    <glyph glyph-name=".null" horiz-adv-x="0" 
 />
    <glyph glyph-name="nonmarkingreturn" horiz-adv-x="333" 
 />
    <glyph glyph-name="NULL" horiz-adv-x="0" 
 />
    <glyph glyph-name="NULL" horiz-adv-x="0" 
 />
    <glyph glyph-name="CR" unicode="&#xd;" horiz-adv-x="250" 
 />
    <glyph glyph-name="space" unicode=" " horiz-adv-x="253" 
 />
    <glyph glyph-name="exclam" unicode="!" horiz-adv-x="296" 
d="M101 704h94v-491h-94v491zM75 60q0 30 21 51t52 21q30 0 51.5 -21t21.5 -51t-21.5 -52t-51.5 -22t-51.5 22t-21.5 52z" />
    <glyph glyph-name="quotedbl" unicode="&#x22;" horiz-adv-x="354" 
d="M60 642v75h82v-75l-19 -176h-43zM212 642v75h82v-75l-19 -176h-44z" />
    <glyph glyph-name="numbersign" unicode="#" horiz-adv-x="550" 
d="M323 209h-127l-29 -209h-71l29 209h-96v68h105l20 146h-95v68h105l29 209h72l-29 -209h126l29 209h72l-29 -209h87v-68h-97l-20 -146h87v-68h-97l-29 -209h-71zM206 277h126l20 146h-126z" />
    <glyph glyph-name="dollar" unicode="$" horiz-adv-x="571" 
d="M350 713q84 -10 135.5 -67t51.5 -144h-91q-1 61 -34.5 96.5t-92.5 35.5q-58 0 -93.5 -28.5t-35.5 -76.5q0 -52 34 -77.5t96 -43.5q42 -14 67 -23t60.5 -28t55.5 -39t35 -52t15 -71q0 -90 -56 -145.5t-147 -63.5v-104h-67v104q-92 10 -150.5 73.5t-58.5 163.5h91
q0 -72 43 -114.5t115 -42.5q62 0 100.5 32.5t38.5 86.5q0 30 -11 52t-34 36.5t-40 21.5t-48 17q-34 11 -52.5 17.5t-46.5 18.5t-44 22t-35 26.5t-28.5 35t-16.5 43t-7 54.5q0 74 51 124.5t133 60.5v104h67v-105z" />
    <glyph glyph-name="percent" unicode="%" horiz-adv-x="916" 
d="M842 124q0 -55 -39.5 -93.5t-101.5 -38.5q-63 0 -102 39t-39 95v135q0 55 39.5 93.5t101.5 38.5t101.5 -39t39.5 -95v-135zM632 126q0 -31 19 -52.5t50 -21.5t50.5 21.5t19.5 52.5v133q0 31 -19.5 52t-50.5 21t-50 -21t-19 -52v-133zM73 440v136q0 55 39.5 93t101.5 38
t101.5 -39t39.5 -94v-136q0 -55 -39.5 -93t-101.5 -38q-63 0 -102 38.5t-39 94.5zM284 574q0 30 -19.5 51.5t-50.5 21.5t-50 -21.5t-19 -51.5v-134q0 -30 19 -51.5t50 -21.5t50.5 21.5t19.5 51.5v134zM639 752l69 -40l-437 -753l-69 40z" />
    <glyph glyph-name="ampersand" unicode="&#x26;" horiz-adv-x="599" 
d="M345 315h233v-81h-60q0 -110 -67 -177.5t-168 -67.5q-97 0 -166.5 58.5t-69.5 155.5q0 109 124 162q-109 43 -109 157q0 84 63 136.5t155 52.5q96 0 156.5 -58t60.5 -151h-91q0 59 -32.5 93t-97.5 34q-55 0 -88.5 -28.5t-33.5 -78.5q0 -116 133 -116h15v-81h-15
q-75 0 -112 -35.5t-37 -96.5q0 -51 39.5 -86.5t105.5 -35.5q65 0 104 44.5t40 118.5h-82v81z" />
    <glyph glyph-name="quotesingle" unicode="'" horiz-adv-x="202" 
d="M60 642v75h82v-75l-19 -176h-43z" />
    <glyph glyph-name="parenleft" unicode="(" horiz-adv-x="368" 
d="M340 712q-65 0 -106 -45.5t-41 -110.5v-560q0 -65 41 -110.5t106 -45.5v-82q-105 0 -171.5 69.5t-66.5 168.5v560q0 99 66.5 168.5t171.5 69.5v-82z" />
    <glyph glyph-name="parenright" unicode=")" horiz-adv-x="368" 
d="M28 794q105 0 171.5 -69.5t66.5 -168.5v-560q0 -99 -66.5 -168.5t-171.5 -69.5v82q65 0 106 45.5t41 110.5v560q0 65 -41 110.5t-106 45.5v82z" />
    <glyph glyph-name="asterisk" unicode="*" horiz-adv-x="458" 
d="M93 399l106 128l-148 39l18 55l141 -57l-11 153h61l-11 -153l140 57l18 -55l-148 -39l106 -128l-50 -36l-86 138l-86 -138z" />
    <glyph glyph-name="plus" unicode="+" 
d="M244 86v160h-156v77h156v162h87v-162h156v-77h-156v-160h-87z" />
    <glyph glyph-name="comma" unicode="," horiz-adv-x="270" 
d="M58 64q0 30 20.5 50.5t50.5 20.5q38 0 61 -28t23 -73q0 -150 -150 -150v43q52 0 72 31q15 22 15 44q-8 -8 -23 -8q-31 0 -50 20t-19 50z" />
    <glyph glyph-name="hyphen" unicode="-" horiz-adv-x="294" 
d="M264 246h-234v78h234v-78z" />
    <glyph glyph-name="period" unicode="." horiz-adv-x="255" 
d="M58 64q0 30 20 50.5t49 20.5t50 -20.5t21 -50.5q0 -29 -21 -49t-50 -20t-49 20t-20 49z" />
    <glyph glyph-name="slash" unicode="/" horiz-adv-x="436" 
d="M369 809l79 -34l-364 -846l-79 34z" />
    <glyph glyph-name="zero" unicode="0" horiz-adv-x="579" 
d="M50 474q0 99 66.5 168.5t171.5 69.5q107 0 174 -69t67 -169v-248q0 -99 -67 -168.5t-174 -69.5q-105 0 -171.5 69.5t-66.5 168.5v248zM438 474q0 66 -41.5 111t-108.5 45q-65 0 -106 -45.5t-41 -110.5v-248q0 -65 41 -110.5t106 -45.5q67 0 108.5 45.5t41.5 110.5v248z
" />
    <glyph glyph-name="one" unicode="1" horiz-adv-x="345" 
d="M31 584q90 0 119.5 25t29.5 91h87v-700h-94v511h-142v73z" />
    <glyph glyph-name="two" unicode="2" horiz-adv-x="527" 
d="M47 0q0 65 9 115t24 84.5t42 63t54 47t68 39.5q35 17 55 28.5t45 32t37 47t12 59.5q0 54 -33 83.5t-90 29.5q-59 0 -95.5 -36t-36.5 -101h-91q0 100 64.5 159.5t159.5 59.5q96 0 154.5 -53.5t58.5 -149.5q0 -37 -15 -71t-32.5 -55.5t-50 -45t-47.5 -32t-44 -23.5
q-88 -50 -116 -88.5t-28 -110.5h333v-82h-437z" />
    <glyph glyph-name="three" unicode="3" horiz-adv-x="559" 
d="M124 221q0 -68 42.5 -109t107.5 -41q62 0 100 36t38 89q0 59 -35 94t-107 35h-50v81h50q127 0 127 116q0 50 -33 78.5t-89 28.5q-66 0 -98 -34t-32 -93h-92q0 93 60.5 151t155.5 58q94 0 156.5 -52.5t62.5 -136.5q0 -60 -28.5 -100.5t-79.5 -56.5q57 -18 90.5 -60.5
t33.5 -108.5q0 -91 -66.5 -149t-166.5 -58q-101 0 -169.5 62.5t-68.5 169.5h91z" />
    <glyph glyph-name="four" unicode="4" horiz-adv-x="552" 
d="M328 225h-260v475h91v-393h169v216h91v-216h105v-82h-105v-225h-91v225z" />
    <glyph glyph-name="five" unicode="5" horiz-adv-x="598" 
d="M81 700h412v-82h-330v-234q20 39 65.5 59.5t91.5 20.5q106 0 166 -68t60 -169q0 -99 -67 -168.5t-174 -69.5q-105 0 -171.5 69.5t-66.5 168.5h91q0 -65 41 -110.5t106 -45.5q67 0 108 45.5t41 110.5t-41 110t-108 45q-91 0 -131 -84h-93v402z" />
    <glyph glyph-name="six" unicode="6" horiz-adv-x="556" 
d="M275 -11q-105 0 -171.5 69.5t-66.5 168.5q0 73 41 139l209 334h105l-160 -246q17 12 43 12q107 0 174 -69.5t67 -169.5q0 -99 -67 -168.5t-174 -69.5zM275 71q67 0 108.5 45.5t41.5 110.5q0 66 -41.5 111t-108.5 45q-65 0 -106 -45.5t-41 -110.5t41 -110.5t106 -45.5z
" />
    <glyph glyph-name="seven" unicode="7" horiz-adv-x="467" 
d="M472 700l-311 -700h-97l278 618h-304v82h434z" />
    <glyph glyph-name="eight" unicode="8" horiz-adv-x="580" 
d="M290 -11q-107 0 -171 59.5t-64 148.5q0 58 30 106t86 63q-50 17 -75.5 58.5t-25.5 92.5q0 83 60 138.5t160 55.5t160 -56t60 -138q0 -51 -25.5 -92.5t-75.5 -58.5q56 -15 86 -63t30 -106q0 -88 -64 -148t-171 -60zM290 397q59 0 93.5 33t34.5 83t-35 83t-93 33t-93 -33.5
t-35 -82.5q0 -50 34.5 -83t93.5 -33zM290 71q66 0 105 36t39 90q0 53 -38.5 89.5t-105.5 36.5t-105.5 -36t-38.5 -90q0 -53 39.5 -89.5t104.5 -36.5z" />
    <glyph glyph-name="nine" unicode="9" horiz-adv-x="556" 
d="M281 711q105 0 171.5 -69.5t66.5 -168.5q0 -70 -42 -139l-208 -334h-105l159 244q-9 -9 -31 -9q-113 0 -182.5 67.5t-69.5 170.5q0 100 67 169t174 69zM281 629q-67 0 -108.5 -45t-41.5 -111t41.5 -111t108.5 -45q65 0 106 45.5t41 110.5t-41 110.5t-106 45.5z" />
    <glyph glyph-name="colon" unicode=":" horiz-adv-x="255" 
d="M58 398q0 30 20 50.5t49 20.5t50 -20.5t21 -50.5q0 -29 -21 -49t-50 -20t-49 20t-20 49zM58 64q0 29 20 50t49 21t50 -21t21 -50t-21 -49.5t-50 -20.5t-49 20.5t-20 49.5z" />
    <glyph glyph-name="semicolon" unicode=";" horiz-adv-x="263" 
d="M58 64q0 30 20.5 50.5t50.5 20.5q38 0 61 -28t23 -73q0 -150 -150 -150v43q52 0 72 31q15 22 15 44q-8 -8 -23 -8q-31 0 -50 20t-19 50zM58 399q0 29 20 49.5t49 20.5t50 -20.5t21 -49.5t-21 -49.5t-50 -20.5t-49 20.5t-20 49.5z" />
    <glyph glyph-name="less" unicode="&#x3c;" 
d="M34 252v63l507 181v-83l-379 -129l379 -130v-82z" />
    <glyph glyph-name="equal" unicode="=" 
d="M86 326v77h404v-77h-404zM86 164v78h404v-78h-404z" />
    <glyph glyph-name="greater" unicode="&#x3e;" 
d="M34 72v82l379 130l-379 129v83l507 -181v-63z" />
    <glyph glyph-name="question" unicode="?" horiz-adv-x="504" 
d="M182 188q0 72 19.5 114t68.5 76q99 66 99 141q0 54 -33.5 82.5t-91.5 28.5t-94 -36t-36 -101h-91q0 100 63.5 159.5t157.5 59.5q95 0 155.5 -52.5t60.5 -140.5q0 -34 -10.5 -63.5t-30.5 -52t-33 -34t-35 -27.5q-51 -38 -66 -64.5t-15 -89.5h-88zM154 60q0 30 20.5 51
t51.5 21t52.5 -21t21.5 -51t-21.5 -52t-52.5 -22q-30 0 -51 22t-21 52z" />
    <glyph glyph-name="at" unicode="@" horiz-adv-x="854" 
d="M551 80q-19 -36 -57 -57.5t-81 -21.5q-88 0 -145 60t-57 145t57 145.5t145 60.5q43 0 81.5 -21.5t56.5 -57.5v70h73v-283q0 -93 62 -93q80 0 80 232q0 134 -86.5 211.5t-233.5 77.5q-145 0 -245.5 -94t-100.5 -248q0 -65 23 -125t66.5 -108t114 -76.5t157.5 -28.5
q110 0 202 50l27 -58q-102 -58 -229 -58q-105 0 -190 34t-137.5 91.5t-80 129t-27.5 149.5q0 183 122.5 295.5t297.5 112.5q182 0 288 -94.5t106 -260.5q0 -156 -41.5 -227.5t-125.5 -71.5q-48 0 -79 28t-43 74v18zM416 67q61 0 98 40t37 99t-37 99.5t-98 40.5
q-58 0 -94.5 -40.5t-36.5 -99.5q0 -58 36.5 -98.5t94.5 -40.5z" />
    <glyph glyph-name="A" unicode="A" horiz-adv-x="559" 
d="M458 0l-37 107h-284l-36 -107h-96l241 700h66l242 -700h-96zM280 551l-115 -361h228z" />
    <glyph glyph-name="B" unicode="B" horiz-adv-x="591" 
d="M78 700h239q60 0 104 -17.5t66.5 -46.5t32.5 -59.5t10 -63.5q0 -61 -37 -104.5t-88 -53.5q47 -4 88.5 -47.5t41.5 -113.5q0 -33 -10.5 -64.5t-34 -62t-68 -49t-104.5 -18.5h-240v700zM169 312v-230h153q63 0 92.5 34t29.5 81q0 42 -30.5 78.5t-89.5 36.5h-155zM319 395
q62 0 91 34t29 77t-29.5 77.5t-92.5 34.5h-148v-223h150z" />
    <glyph glyph-name="C" unicode="C" horiz-adv-x="775" 
d="M736 216q-27 -101 -116.5 -166.5t-211.5 -65.5q-166 0 -266.5 107t-100.5 260q0 148 98 256.5t256 108.5q145 0 232.5 -72.5t108.5 -188.5h-96q-17 80 -78 129.5t-156 49.5q-124 0 -198 -83.5t-74 -199.5q0 -120 77 -202.5t208 -82.5q73 0 134 42t83 108h100z" />
    <glyph glyph-name="D" unicode="D" horiz-adv-x="697" 
d="M294 700q84 0 154 -30t115 -79.5t69.5 -111.5t24.5 -129t-24.5 -129t-69.5 -111.5t-115 -79.5t-154 -30h-216v700h216zM169 618v-536h125q123 0 196 80t73 188t-73 188t-196 80h-125z" />
    <glyph glyph-name="E" unicode="E" horiz-adv-x="544" 
d="M169 618v-229h302v-82h-302v-225h302v-82h-393v700h393v-82h-302z" />
    <glyph glyph-name="F" unicode="F" horiz-adv-x="538" 
d="M169 618v-250h302v-82h-302v-286h-91v700h393v-82h-302z" />
    <glyph glyph-name="G" unicode="G" horiz-adv-x="836" 
d="M473 337h337v-82h-75q-21 -125 -107 -198t-228 -73q-84 0 -153 30.5t-113.5 81.5t-68.5 116.5t-24 137.5q0 96 42.5 178.5t126 135t190.5 52.5q115 0 198 -61t95 -150h-92q-15 56 -70 92.5t-131 36.5q-120 0 -193 -84t-73 -200q0 -119 73 -201.5t204 -82.5
q98 0 157.5 53.5t69.5 135.5h-165v82z" />
    <glyph glyph-name="H" unicode="H" horiz-adv-x="664" 
d="M495 307h-326v-307h-91v700h91v-311h326v311h91v-700h-91v307z" />
    <glyph glyph-name="I" unicode="I" horiz-adv-x="250" 
d="M78 700h94v-700h-94v700z" />
    <glyph glyph-name="J" unicode="J" horiz-adv-x="536" 
d="M465 222q0 -105 -60.5 -171.5t-163.5 -66.5t-165 67t-62 171h91q0 -70 37 -113t99 -43t97.5 42t35.5 114v478h91v-478z" />
    <glyph glyph-name="K" unicode="K" horiz-adv-x="590" 
d="M169 318v-318h-91v700h91v-318l294 318h115l-320 -350l320 -350h-115z" />
    <glyph glyph-name="L" unicode="L" horiz-adv-x="425" 
d="M398 82v-82h-320v700h91v-618h229z" />
    <glyph glyph-name="M" unicode="M" horiz-adv-x="812" 
d="M734 0h-92v488l-201 -488h-70l-202 488v-488h-91v700h88l240 -560l240 560h88v-700z" />
    <glyph glyph-name="N" unicode="N" horiz-adv-x="663" 
d="M494 159v541h91v-700h-101l-315 541v-541h-91v700h101z" />
    <glyph glyph-name="O" unicode="O" horiz-adv-x="803" 
d="M402 -16q-108 0 -192 52.5t-126.5 135t-42.5 178.5t42.5 178.5t126.5 135t192 52.5t192 -52.5t126.5 -135t42.5 -178.5t-42.5 -178.5t-126.5 -135t-192 -52.5zM402 66q118 0 191.5 84.5t73.5 199.5q0 116 -73 200t-192 84t-192.5 -84t-73.5 -200q0 -115 74 -199.5
t192 -84.5z" />
    <glyph glyph-name="P" unicode="P" horiz-adv-x="596" 
d="M78 700h246q107 0 173.5 -69.5t66.5 -168.5q0 -100 -66.5 -169.5t-173.5 -69.5h-155v-223h-91v700zM324 306q67 0 108 45t41 111q0 65 -41.5 110.5t-107.5 45.5h-155v-312h155z" />
    <glyph glyph-name="Q" unicode="Q" horiz-adv-x="803" 
d="M763 350q0 -126 -72 -223.5t-191 -127.5l62 -87l-81 -40l-80 112q-162 0 -261 108.5t-99 257.5q0 96 42.5 178.5t126.5 135t192 52.5t192 -52.5t126.5 -135t42.5 -178.5zM402 66q118 0 191.5 84.5t73.5 199.5q0 116 -73 200t-192 84t-192.5 -84t-73.5 -200
q0 -115 74 -199.5t192 -84.5z" />
    <glyph glyph-name="R" unicode="R" horiz-adv-x="606" 
d="M78 700h246q107 0 173.5 -69.5t66.5 -168.5q0 -77 -42 -138.5t-113 -85.5l147 -238h-104l-139 223h-144v-223h-91v700zM324 306q67 0 108 45t41 111q0 65 -41.5 110.5t-107.5 45.5h-155v-312h155z" />
    <glyph glyph-name="S" unicode="S" horiz-adv-x="571" 
d="M136 223q0 -72 43 -114.5t115 -42.5q62 0 100.5 32.5t38.5 86.5q0 30 -11 52t-34 36.5t-40 21.5t-48 17q-48 15 -73.5 24.5t-60.5 28t-52.5 38.5t-30.5 52.5t-13 73.5q0 83 61.5 135t156.5 52t157.5 -59.5t62.5 -154.5h-91q-1 61 -34.5 96.5t-92.5 35.5
q-58 0 -93.5 -28.5t-35.5 -76.5q0 -52 34 -77.5t96 -43.5q42 -14 67 -23t60.5 -28t55.5 -39t35 -52t15 -71q0 -99 -67 -155t-170 -56q-104 0 -173 65t-69 174h91z" />
    <glyph glyph-name="T" unicode="T" horiz-adv-x="478" 
d="M193 618h-181v82h454v-82h-182v-618h-91v618z" />
    <glyph glyph-name="U" unicode="U" horiz-adv-x="629" 
d="M71 700h91v-473q0 -67 42 -114t109 -47q68 0 111 47t43 114v473h91v-473q0 -102 -67.5 -172.5t-177.5 -70.5q-107 0 -174.5 70.5t-67.5 172.5v473z" />
    <glyph glyph-name="V" unicode="V" horiz-adv-x="563" 
d="M315 0h-66l-245 700h96l182 -550l181 550h96z" />
    <glyph glyph-name="W" unicode="W" horiz-adv-x="964" 
d="M482 542l-169 -542h-68l-239 700h96l176 -542l170 542h69l170 -542l176 542h96l-240 -700h-67z" />
    <glyph glyph-name="X" unicode="X" horiz-adv-x="548" 
d="M435 700h104l-213 -350l213 -350h-104l-161 271l-161 -271h-103l212 350l-212 350h103l161 -271z" />
    <glyph glyph-name="Y" unicode="Y" horiz-adv-x="591" 
d="M234 0h-100l140 278l-264 422h106l205 -327l165 327h100z" />
    <glyph glyph-name="Z" unicode="Z" horiz-adv-x="565" 
d="M35 700h521l-389 -618h392v-82h-545l389 618h-368v82z" />
    <glyph glyph-name="bracketleft" unicode="[" horiz-adv-x="335" 
d="M78 -234v1029h197v-78h-110v-874h110v-77h-197z" />
    <glyph glyph-name="backslash" unicode="\" horiz-adv-x="436" 
d="M438 -37l-79 -34l-364 846l79 34z" />
    <glyph glyph-name="bracketright" unicode="]" horiz-adv-x="335" 
d="M60 -234v77h110v873h-110v78h197v-1028h-197z" />
    <glyph glyph-name="asciicircum" unicode="^" horiz-adv-x="638" 
d="M480 323l-162 318l-163 -318h-95l226 427h62l230 -427h-98z" />
    <glyph glyph-name="underscore" unicode="_" horiz-adv-x="560" 
d="M30 -111v61h500v-61h-500z" />
    <glyph glyph-name="grave" unicode="`" horiz-adv-x="495" 
d="M89 664l42 68l249 -137l-42 -68z" />
    <glyph glyph-name="a" unicode="a" horiz-adv-x="597" 
d="M519 454v-454h-86v79q-22 -42 -65 -66t-94 -24q-102 0 -167.5 70t-65.5 168q0 99 65.5 169t167.5 70q51 0 94 -24t65 -66v78h86zM279 67q68 0 111 46.5t43 113.5t-43 114t-111 47q-67 0 -109.5 -47t-42.5 -114t42.5 -113.5t109.5 -46.5z" />
    <glyph glyph-name="b" unicode="b" horiz-adv-x="599" 
d="M165 0h-87v700h87v-324q22 42 64.5 66t93.5 24q103 0 168.5 -70t65.5 -169t-65.5 -168.5t-168.5 -69.5q-51 0 -93.5 24t-64.5 66v-79zM319 67q67 0 109 46.5t42 113.5t-42 114t-109 47q-68 0 -111 -47t-43 -114t43 -113.5t111 -46.5z" />
    <glyph glyph-name="c" unicode="c" horiz-adv-x="529" 
d="M397 289q-12 99 -126 99q-67 0 -104 -46.5t-37 -114.5q0 -69 37 -114.5t109 -45.5q54 0 82 22.5t40 66.5h87q-10 -74 -65.5 -120.5t-149.5 -46.5q-106 0 -166.5 70t-60.5 168t60 168.5t166 70.5q102 0 155 -51.5t60 -125.5h-87z" />
    <glyph glyph-name="d" unicode="d" horiz-adv-x="597" 
d="M433 79q-22 -42 -65 -66t-94 -24q-102 0 -167.5 70t-65.5 168q0 99 65.5 169t167.5 70q51 0 94 -24t65 -66v324h86v-700h-86v79zM279 67q68 0 111 46.5t43 113.5t-43 114t-111 47q-67 0 -109.5 -47t-42.5 -114t42.5 -113.5t109.5 -46.5z" />
    <glyph glyph-name="e" unicode="e" horiz-adv-x="525" 
d="M265 399q-60 0 -96.5 -34t-38.5 -95h263q0 59 -36 94t-92 35zM129 204q2 -62 36.5 -102t104.5 -40q87 0 115 72h88q-13 -61 -67 -103t-136 -42q-110 0 -168.5 67t-58.5 171q0 106 59.5 172.5t164.5 66.5q89 0 149.5 -59t60.5 -146q0 -32 -4 -57h-344z" />
    <glyph glyph-name="f" unicode="f" horiz-adv-x="347" 
d="M336 620q-26 8 -51 8q-17 0 -28.5 -2t-24.5 -10t-19.5 -26.5t-6.5 -47.5v-88h130v-73h-130v-381h-87v381h-98v73h98v79q0 58 15.5 95.5t43 53t48.5 20t48 4.5q40 0 62 -12v-74z" />
    <glyph glyph-name="g" unicode="g" horiz-adv-x="595" 
d="M279 388q-67 0 -109.5 -47t-42.5 -114t42.5 -113.5t109.5 -46.5q68 0 111 46.5t43 113.5t-43 114t-111 47zM519 -29q0 -227 -242 -227q-109 0 -167.5 57t-62.5 141h88q4 -53 39 -87t103 -34q156 0 156 150v108q-22 -42 -65 -66t-94 -24q-102 0 -167.5 70t-65.5 168
q0 99 65.5 169t167.5 70q51 0 94 -24t65 -66v78h86v-483z" />
    <glyph glyph-name="h" unicode="h" horiz-adv-x="565" 
d="M78 700h87v-326q21 43 62 67.5t98 24.5q94 0 136 -60q35 -49 35 -138v-268h-87v241q0 148 -115 148q-62 0 -95.5 -45t-33.5 -110v-234h-87v700z" />
    <glyph glyph-name="i" unicode="i" horiz-adv-x="243" 
d="M78 454h87v-454h-87v454zM52 626q0 29 20 50t49 21t50 -21t21 -50t-21 -49t-50 -20t-49 20t-20 49z" />
    <glyph glyph-name="j" unicode="j" horiz-adv-x="243" 
d="M165 -122q0 -69 -30 -101t-76 -32q-45 0 -71 12v77q25 -6 44 -6q46 0 46 63v563h87v-576zM52 626q0 29 20 50t49 21q30 0 50.5 -21t20.5 -50t-20.5 -49t-50.5 -20q-29 0 -49 20t-20 49z" />
    <glyph glyph-name="k" unicode="k" horiz-adv-x="477" 
d="M258 227l207 -227h-110l-190 206v-206h-87v700h87v-453l190 207h110z" />
    <glyph glyph-name="l" unicode="l" horiz-adv-x="243" 
d="M78 700h87v-700h-87v700z" />
    <glyph glyph-name="m" unicode="m" horiz-adv-x="824" 
d="M666 0v261q0 128 -96 128q-52 0 -81.5 -40t-29.5 -118v-231h-87v256q0 133 -95 133q-52 0 -82 -40t-30 -118v-231h-87v454h87v-81q13 40 49 66.5t85 26.5q118 0 146 -97q15 41 54.5 69t91.5 28q85 0 123.5 -49t38.5 -130v-287h-87z" />
    <glyph glyph-name="n" unicode="n" horiz-adv-x="565" 
d="M78 454h87v-80q21 43 62 67.5t98 24.5q94 0 136 -60q35 -49 35 -138v-268h-87v241q0 148 -115 148q-62 0 -95.5 -45t-33.5 -110v-234h-87v454z" />
    <glyph glyph-name="o" unicode="o" horiz-adv-x="560" 
d="M279 -11q-105 0 -171.5 69.5t-66.5 168.5q0 100 66.5 169.5t171.5 69.5q107 0 173.5 -69.5t66.5 -169.5q0 -99 -66.5 -168.5t-173.5 -69.5zM279 67q68 0 111 46.5t43 113.5t-43 114t-111 47q-67 0 -109.5 -47t-42.5 -114t42.5 -113.5t109.5 -46.5z" />
    <glyph glyph-name="p" unicode="p" horiz-adv-x="599" 
d="M165 376q22 42 64.5 66t93.5 24q103 0 168.5 -70t65.5 -169t-65.5 -168.5t-168.5 -69.5q-51 0 -93.5 24t-64.5 66v-325h-87v700h87v-78zM319 388q-68 0 -111 -47t-43 -114t43 -113.5t111 -46.5q67 0 109 46.5t42 113.5t-42 114t-109 47z" />
    <glyph glyph-name="q" unicode="q" horiz-adv-x="599" 
d="M434 454h87v-700h-87v325q-22 -42 -64.5 -66t-93.5 -24q-103 0 -168.5 69.5t-65.5 168.5t65.5 169t168.5 70q51 0 93.5 -24t64.5 -66v78zM280 388q-67 0 -109 -47t-42 -114t42 -113.5t109 -46.5q68 0 111 46.5t43 113.5t-43 114t-111 47z" />
    <glyph glyph-name="r" unicode="r" horiz-adv-x="365" 
d="M359 374q-24 5 -43 5q-74 0 -112.5 -48t-38.5 -132v-199h-87v454h87v-89q18 42 60.5 69t90.5 27q28 0 43 -7v-80z" />
    <glyph glyph-name="s" unicode="s" horiz-adv-x="452" 
d="M270 253q33 -10 51.5 -17.5t41 -22t33 -36.5t10.5 -52q0 -66 -49.5 -101t-128.5 -35q-80 0 -134 42.5t-54 121.5h85q0 -95 107 -95q91 0 91 65q0 12 -5 22t-12 16t-22 12.5t-27.5 10.5t-37 12t-41.5 14q-63 19 -93 44t-30 81q0 62 48 96.5t121 34.5q75 0 125 -43t50 -110
h-84q0 40 -23.5 61.5t-68.5 21.5q-37 0 -60.5 -16.5t-23.5 -46.5q0 -33 43 -51q13 -6 88 -29z" />
    <glyph glyph-name="t" unicode="t" horiz-adv-x="340" 
d="M325 0q-34 -6 -78 -6q-21 0 -37 2t-37 11t-35 25.5t-24 47t-10 73.5v228h-84v73h84v153h87v-153h118v-73h-118v-209q0 -61 18.5 -80t56.5 -19q42 0 59 4v-77z" />
    <glyph glyph-name="u" unicode="u" horiz-adv-x="565" 
d="M487 454v-454h-87v81q-21 -43 -62.5 -67.5t-97.5 -24.5q-94 0 -137 59q-34 48 -34 138v268h87v-240q0 -148 114 -148q63 0 96.5 44.5t33.5 110.5v233h87z" />
    <glyph glyph-name="v" unicode="v" horiz-adv-x="482" 
d="M98 454l142 -330l144 330h94l-208 -454h-60l-206 454h94z" />
    <glyph glyph-name="w" unicode="w" horiz-adv-x="734" 
d="M367 359l-127 -359h-60l-176 454h93l113 -320l114 320h86l113 -320l114 320h93l-176 -454h-60z" />
    <glyph glyph-name="x" unicode="x" horiz-adv-x="440" 
d="M424 0h-100l-104 161l-104 -161h-100l154 229l-152 225h100l102 -158l102 158h100l-152 -225z" />
    <glyph glyph-name="y" unicode="y" horiz-adv-x="573" 
d="M282 -256q-99 0 -154.5 50t-57.5 147h88q7 -123 126 -123q62 0 94.5 30.5t32.5 104.5v128q-44 -92 -159 -92q-94 0 -138 58q-34 48 -34 142v265h87v-238q0 -72 26 -111t90 -39q62 0 95 44.5t33 110.5v233h87v-501q0 -209 -216 -209z" />
    <glyph glyph-name="z" unicode="z" horiz-adv-x="434" 
d="M414 454l-243 -376h244v-78h-391l243 377h-235v77h382z" />
    <glyph glyph-name="braceleft" unicode="{" horiz-adv-x="420" 
d="M363 794v-66h-46q-36 0 -53 -24.5t-17 -61.5v-261q0 -52 -30.5 -79.5t-63.5 -32.5q94 -23 94 -121v-230q0 -37 17.5 -61.5t52.5 -24.5h46v-66h-66q-53 0 -95 36.5t-42 102.5v232q0 46 -30.5 70.5t-61.5 24.5v72q31 0 61.5 23t30.5 65v263q0 65 42 102t95 37h66z" />
    <glyph glyph-name="bar" unicode="|" horiz-adv-x="243" 
d="M85 -234v1028h75v-1028h-75z" />
    <glyph glyph-name="braceright" unicode="}" horiz-adv-x="420" 
d="M124 794q53 0 95 -37t42 -102v-263q0 -42 30.5 -65t61.5 -23v-72q-31 0 -61.5 -24.5t-30.5 -70.5v-232q0 -66 -42 -102.5t-95 -36.5h-66v66h45q35 0 52.5 25t17.5 61v230q0 98 94 121q-33 5 -63.5 32.5t-30.5 79.5v261q0 37 -17 61.5t-53 24.5h-45v66h66z" />
    <glyph glyph-name="asciitilde" unicode="~" horiz-adv-x="518" 
d="M37 291q43 54 107 54q41 0 118 -32q7 -3 23 -9.5t24.5 -10t21 -8t22 -6.5t17.5 -2q55 0 110 55v-76q-46 -57 -111 -57q-40 0 -110 35q-68 33 -119 33q-52 0 -103 -53v77z" />
    <glyph glyph-name="exclamdown" unicode="&#xa1;" horiz-adv-x="296" 
d="M102 242h95v-488h-95v488zM79 397q0 30 20.5 50.5t49.5 20.5t50 -20.5t21 -50.5q0 -29 -21 -49.5t-50 -20.5t-49.5 20.5t-20.5 49.5z" />
    <glyph glyph-name="cent" unicode="&#xa2;" horiz-adv-x="564" 
d="M410 376q-12 99 -126 99q-66 0 -103 -46.5t-37 -114.5q0 -69 37 -114.5t109 -45.5q54 0 82 22.5t40 66.5h87q-12 -69 -57 -113t-125 -53v-107h-66v108q-92 12 -143 78.5t-51 157.5q0 90 51.5 157.5t142.5 79.5v107h66v-107q86 -9 129.5 -58t50.5 -117h-87z" />
    <glyph glyph-name="sterling" unicode="&#xa3;" horiz-adv-x="588" 
d="M199 525v-121h166v-66h-166q0 -91 -6 -151q-6 -79 -28 -105h325v-82h-428v69q29 33 36 112q9 56 9 155h-68v67h68v109q0 87 63.5 143t155.5 56q96 0 158 -61.5t62 -157.5h-91q0 61 -33.5 98.5t-99.5 37.5q-51 0 -84.5 -27.5t-38.5 -75.5z" />
    <glyph glyph-name="currency" unicode="&#xa4;" horiz-adv-x="748" 
d="M501 175q-62 -43 -142 -43q-78 0 -140 43l-68 -67l-55 55l68 68q-43 59 -43 139t43 139l-68 68l55 55l67 -68q63 45 141 45t142 -44l67 67l55 -55l-67 -67q44 -63 44 -140q0 -79 -44 -140l66 -67l-54 -55zM359 210q68 0 111 46.5t43 113.5t-43 114t-111 47
q-67 0 -109 -47t-42 -114t42 -113.5t109 -46.5z" />
    <glyph glyph-name="yen" unicode="&#xa5;" horiz-adv-x="593" 
d="M84 700l214 -330l211 330h105l-259 -406h146v-66h-162v-78h162v-66h-162v-84h-83v84h-159v66h159v78h-159v66h143l-262 406h106z" />
    <glyph glyph-name="brokenbar" unicode="&#xa6;" horiz-adv-x="243" 
d="M84 328v466h76v-466h-76zM160 231v-465h-76v465h76z" />
    <glyph glyph-name="section" unicode="&#xa7;" horiz-adv-x="580" 
d="M276 80q-56 17 -89.5 30t-70.5 35.5t-54.5 53.5t-17.5 72q0 56 30.5 96t84.5 54q-76 48 -76 141q0 79 64 128t158 49q95 0 158 -57t63 -146h-92q0 55 -36 90.5t-93 35.5q-59 0 -94.5 -25.5t-35.5 -74.5q0 -47 35.5 -72t96.5 -42q56 -17 89.5 -30t70.5 -35.5t54.5 -53.5
t17.5 -72q0 -54 -34.5 -98t-78.5 -53q80 -47 80 -141q0 -81 -63 -128t-159 -47q-99 0 -164 58t-65 149h92q0 -57 38.5 -94t98.5 -37t95 24.5t35 74.5q0 45 -34 70t-104 45zM447 248q0 33 -18.5 51.5t-61.5 37.5q-10 6 -30.5 13.5t-51.5 16.5t-42 13q-48 -2 -77 -31t-29 -69
q0 -34 19.5 -54.5t64.5 -38.5q14 -8 121 -41q43 2 74 31.5t31 70.5z" />
    <glyph glyph-name="dieresis" unicode="&#xa8;" horiz-adv-x="556" 
d="M320 642q0 29 19 48.5t47 19.5q29 0 48.5 -19.5t19.5 -48.5q0 -28 -19.5 -47t-48.5 -19q-28 0 -47 19t-19 47zM90 642q0 29 19.5 48.5t47.5 19.5t47.5 -19.5t19.5 -48.5q0 -28 -19.5 -47t-47.5 -19t-47.5 19t-19.5 47z" />
    <glyph glyph-name="copyright" unicode="&#xa9;" horiz-adv-x="806" 
d="M403 -17q-108 0 -192 52.5t-126.5 135.5t-42.5 179t42.5 179t126.5 135.5t192 52.5t192 -52.5t126.5 -135.5t42.5 -179t-42.5 -179t-126.5 -135.5t-192 -52.5zM595 273q-16 -57 -66 -93.5t-119 -36.5q-95 0 -151.5 60t-56.5 148q0 84 55 145.5t146 61.5q83 0 131 -41
t61 -108h-61q-26 96 -131 96q-64 0 -103 -45.5t-39 -108.5q0 -65 41 -110t108 -45q43 0 75 21.5t47 55.5h63zM403 40q130 0 210 92t80 218t-80 218t-210 92t-210 -92t-80 -218t80 -218t210 -92z" />
    <glyph glyph-name="ordfeminine" unicode="&#xaa;" horiz-adv-x="597" 
d="M519 454v-454h-86v79q-22 -42 -65 -66t-94 -24q-102 0 -167.5 70t-65.5 168q0 99 65.5 169t167.5 70q51 0 94 -24t65 -66v78h86zM279 67q68 0 111 46.5t43 113.5t-43 114t-111 47q-67 0 -109.5 -47t-42.5 -114t42.5 -113.5t109.5 -46.5z" />
    <glyph glyph-name="guillemotleft" unicode="&#xab;" horiz-adv-x="472" 
d="M432 98l-196 167v53l196 167v-86l-126 -108l126 -108v-85zM236 98l-196 167v53l196 167v-86l-126 -108l126 -108v-85z" />
    <glyph glyph-name="logicalnot" unicode="&#xac;" 
d="M403 304h-317v78h404v-227h-87v149z" />
    <glyph glyph-name="uni00AD" unicode="&#xad;" horiz-adv-x="294" 
d="M264 275h-234v20h234v-20z" />
    <glyph glyph-name="registered" unicode="&#xae;" horiz-adv-x="808" 
d="M404 -17q-162 0 -262 109t-100 258t100 258t262 109t262 -109t100 -258t-100 -258t-262 -109zM404 40q131 0 211 92t80 218t-80 218t-211 92t-211 -92t-80 -218t80 -218t211 -92zM274 158v407h158q62 0 100.5 -40.5t38.5 -98.5q0 -45 -24.5 -80t-66.5 -49l87 -139h-71
l-81 130h-78v-130h-63zM426 343q35 0 56.5 24t21.5 59t-21.5 59.5t-56.5 24.5h-89v-167h89z" />
    <glyph glyph-name="overscore" unicode="&#xaf;" horiz-adv-x="542" 
d="M450 723h-358v78h358v-78z" />
    <glyph glyph-name="degree" unicode="&#xb0;" horiz-adv-x="329" 
d="M307 574q0 -60 -41.5 -101.5t-101.5 -41.5t-101.5 41.5t-41.5 101.5t41.5 101.5t101.5 41.5t101.5 -41.5t41.5 -101.5zM245 574q0 33 -24 57.5t-57 24.5t-56.5 -24.5t-23.5 -57.5q0 -34 23.5 -57.5t56.5 -23.5q34 0 57.5 23.5t23.5 57.5z" />
    <glyph glyph-name="plusminus" unicode="&#xb1;" 
d="M244 219v160h-156v78h156v161h87v-161h156v-78h-156v-160h-87zM88 24v78h399v-78h-399z" />
    <glyph glyph-name="twosuperior" unicode="&#xb2;" horiz-adv-x="370" 
d="M55 315q0 86 25.5 126.5t81.5 69.5q29 15 44 24.5t27.5 26t12.5 37.5q0 53 -57 53q-28 0 -45 -17t-17 -50h-71q0 54 35.5 88t97.5 34q56 0 91.5 -29t35.5 -84q0 -31 -18.5 -57.5t-36.5 -39t-46 -27.5q-46 -24 -62 -43.5t-16 -52.5h179v-59h-261z" />
    <glyph glyph-name="threesuperior" unicode="&#xb3;" horiz-adv-x="382" 
d="M119 438q0 -33 19.5 -52.5t50.5 -19.5q30 0 47 17t17 43q0 62 -68 62h-33v56h33q62 0 62 56q0 52 -57 52q-61 0 -61 -63h-71q0 52 33 85t97 33q56 0 93 -28.5t37 -77.5q0 -32 -17 -54.5t-45 -31.5q30 -9 49 -33.5t19 -59.5q0 -52 -38.5 -83t-95.5 -31q-67 0 -104.5 35.5
t-37.5 94.5h71z" />
    <glyph glyph-name="acute" unicode="&#xb4;" horiz-adv-x="495" 
d="M102 527l-42 68l249 137l42 -68z" />
    <glyph glyph-name="mu" unicode="&#xb5;" 
d="M78 454h87v-240q0 -148 115 -148q62 0 95.5 44.5t33.5 110.5v233h87v-454h-87v81q-21 -43 -62 -67.5t-98 -24.5q-53 0 -84 28v-263h-87v700z" />
    <glyph glyph-name="paragraph" unicode="&#xb6;" horiz-adv-x="653" 
d="M231 329q-97 0 -156.5 48.5t-59.5 142.5q0 50 18 87.5t44 58t62.5 32.5t65 15.5t59.5 3.5h319v-72h-53v-793h-83v792h-134v-792h-82v477z" />
    <glyph glyph-name="middot" unicode="&#xb7;" horiz-adv-x="255" 
d="M58 312q0 29 20 50t49 21t50 -21t21 -50t-21 -49t-50 -20t-49 20t-20 49z" />
    <glyph glyph-name="cedilla" unicode="&#xb8;" horiz-adv-x="478" 
d="M159 0h58v-71q14 20 43 20q33 0 58 -24t25 -63q0 -38 -26.5 -67t-73.5 -29q-28 0 -60.5 20t-37.5 67h53q7 -40 45 -40q21 0 34 13.5t13 35.5q0 20 -13 32.5t-33 12.5q-25 0 -39 -25h-46v118z" />
    <glyph glyph-name="onesuperior" unicode="&#xb9;" horiz-adv-x="268" 
d="M47 634q52 0 69.5 15t17.5 51h64v-385h-73v267h-78v52z" />
    <glyph glyph-name="ordmasculine" unicode="&#xba;" horiz-adv-x="560" 
d="M279 -11q-105 0 -171.5 69.5t-66.5 168.5q0 100 66.5 169.5t171.5 69.5q107 0 173.5 -69.5t66.5 -169.5q0 -99 -66.5 -168.5t-173.5 -69.5zM279 67q68 0 111 46.5t43 113.5t-43 114t-111 47q-67 0 -109.5 -47t-42.5 -114t42.5 -113.5t109.5 -46.5z" />
    <glyph glyph-name="guillemotright" unicode="&#xbb;" horiz-adv-x="472" 
d="M40 183l126 108l-126 108v86l196 -167v-53l-196 -167v85zM236 183l126 108l-126 108v86l196 -167v-53l-196 -167v85z" />
    <glyph glyph-name="onequarter" unicode="&#xbc;" horiz-adv-x="916" 
d="M67 634q51 0 69 14.5t18 51.5h63v-385h-72v267h-78v52zM707 116h-152v269h71v-209h81v112h71v-112h53v-60h-53v-116h-71v116zM573 758l69 -39l-418 -776l-70 39z" />
    <glyph glyph-name="onehalf" unicode="&#xbd;" horiz-adv-x="916" 
d="M67 634q51 0 69 14.5t18 51.5h63v-385h-72v267h-78v52zM553 0q0 86 25.5 126.5t81.5 69.5q22 11 33.5 18t25 18t19 23.5t5.5 28.5q0 53 -56 53q-29 0 -45.5 -17t-16.5 -50h-71q0 54 35.5 88t97.5 34q56 0 91.5 -29t35.5 -84q0 -74 -102 -124q-46 -24 -62 -43.5t-16 -52.5
h179v-59h-260zM573 758l69 -39l-418 -776l-70 39z" />
    <glyph glyph-name="threequarters" unicode="&#xbe;" horiz-adv-x="916" 
d="M118 438q0 -33 19 -52.5t50 -19.5q30 0 47 17t17 43q0 62 -67 62h-34v56h34q61 0 61 56q0 52 -57 52q-61 0 -61 -63h-71q0 52 33.5 85t96.5 33q56 0 93 -28.5t37 -77.5q0 -32 -17 -54.5t-45 -31.5q31 -8 49.5 -33t18.5 -60q0 -52 -38.5 -83t-95.5 -31q-66 0 -104 35.5
t-38 94.5h72zM707 116h-152v269h71v-209h81v112h71v-112h53v-60h-53v-116h-71v116zM581 758l70 -39l-419 -776l-70 39z" />
    <glyph glyph-name="questiondown" unicode="&#xbf;" horiz-adv-x="504" 
d="M322 266q0 -71 -19.5 -114t-68.5 -76q-2 -1 -13.5 -9.5t-15 -11.5t-14 -11.5t-15 -14t-12.5 -14.5t-12 -17t-8.5 -18t-6.5 -21.5t-2 -23.5q0 -54 33.5 -82.5t91.5 -28.5t94 36.5t36 100.5h91q0 -100 -63.5 -159.5t-157.5 -59.5q-95 0 -155.5 52.5t-60.5 140.5
q0 34 10.5 63.5t30.5 52t33 34t35 27.5q35 26 50.5 43t23 42.5t7.5 68.5h88zM350 395q0 -30 -21 -51.5t-51 -21.5q-31 0 -52.5 21.5t-21.5 51.5t21.5 51.5t52.5 21.5q30 0 51 -21.5t21 -51.5z" />
    <glyph glyph-name="Agrave" unicode="&#xc0;" horiz-adv-x="559" 
d="M554 0h-96l-37 107h-284l-36 -107h-96l241 700h66zM165 190h228l-113 361zM151 886l42 69l249 -137l-42 -69z" />
    <glyph glyph-name="Aacute" unicode="&#xc1;" horiz-adv-x="559" 
d="M554 0h-96l-37 107h-284l-36 -107h-96l241 700h66zM165 190h228l-113 361zM176 735l-41 68l249 137l41 -68z" />
    <glyph glyph-name="Acircumflex" unicode="&#xc2;" horiz-adv-x="559" 
d="M554 0h-96l-37 107h-284l-36 -107h-96l241 700h66zM165 190h228l-113 361zM279 957l178 -153l-50 -56l-127 114l-127 -114l-51 56z" />
    <glyph glyph-name="Atilde" unicode="&#xc3;" horiz-adv-x="559" 
d="M554 0h-96l-37 107h-284l-36 -107h-96l241 700h66zM165 190h228l-113 361zM348 862q38 0 62 49l64 -33q-23 -43 -56.5 -64t-68.5 -21q-38 0 -79.5 24.5t-57.5 24.5q-35 0 -61 -49l-60 40q43 78 121 78q37 0 78.5 -24.5t57.5 -24.5z" />
    <glyph glyph-name="Adieresis" unicode="&#xc4;" horiz-adv-x="559" 
d="M554 0h-96l-37 107h-284l-36 -107h-96l241 700h66zM165 190h228l-113 361zM325 843q0 29 20.5 50t49.5 21t49.5 -21t20.5 -50t-20.5 -49t-49.5 -20t-49.5 20t-20.5 49zM96 843q0 29 20 50t49 21t50 -21t21 -50t-21 -49t-50 -20t-49 20t-20 49z" />
    <glyph glyph-name="Aring" unicode="&#xc5;" horiz-adv-x="559" 
d="M554 0h-96l-37 107h-284l-36 -107h-96l241 700h66zM165 190h228l-113 361zM280 976q51 0 87 -36.5t36 -86.5t-36 -86.5t-87 -36.5t-87 36.5t-36 86.5q0 51 36 87t87 36zM280 920q-29 0 -47.5 -19.5t-18.5 -47.5q0 -27 19 -46t47 -19t47 19t19 47q0 27 -19 46.5t-47 19.5z
" />
    <glyph glyph-name="AE" unicode="&#xc6;" horiz-adv-x="865" 
d="M487 618v-229h301v-82h-301v-225h301v-82h-393v108h-241l-52 -108h-100l345 700h441v-82h-301zM395 190v418l-202 -418h202z" />
    <glyph glyph-name="Ccedilla" unicode="&#xc7;" horiz-adv-x="775" 
d="M640 455q-17 80 -78 129.5t-156 49.5q-124 0 -198 -83.5t-74 -199.5q0 -120 77 -202.5t208 -82.5q73 0 134 42t83 108h100q-26 -98 -111 -162.5t-203 -68.5h-8v-51q16 18 48 18t54.5 -22t22.5 -59t-26 -63.5t-73 -26.5q-17 0 -34.5 5t-37.5 24t-25 50h53q8 -32 44 -32
q20 0 33 12t13 31t-12 31t-31 12q-29 0 -41 -23h-45v96q-145 18 -230.5 121t-85.5 243q0 148 98 256.5t256 108.5q145 0 232.5 -72.5t108.5 -188.5h-96z" />
    <glyph glyph-name="Egrave" unicode="&#xc8;" horiz-adv-x="544" 
d="M169 618v-229h302v-82h-302v-225h302v-82h-393v700h393v-82h-302zM145 873l41 68l249 -137l-41 -68z" />
    <glyph glyph-name="Eacute" unicode="&#xc9;" horiz-adv-x="544" 
d="M169 618v-229h302v-82h-302v-225h302v-82h-393v700h393v-82h-302zM174 749l-42 69l249 137l42 -69z" />
    <glyph glyph-name="Ecircumflex" unicode="&#xca;" horiz-adv-x="544" 
d="M169 618v-229h302v-82h-302v-225h302v-82h-393v700h393v-82h-302zM279 957l178 -153l-50 -56l-127 114l-126 -114l-52 56z" />
    <glyph glyph-name="Edieresis" unicode="&#xcb;" horiz-adv-x="544" 
d="M169 618v-229h302v-82h-302v-225h302v-82h-393v700h393v-82h-302zM331 843q0 29 20 50t49 21t50 -21t21 -50t-21 -49t-50 -20t-49 20t-20 49zM101 843q0 29 20.5 50t49.5 21t49.5 -21t20.5 -50t-20.5 -49t-49.5 -20t-49.5 20t-20.5 49z" />
    <glyph glyph-name="Igrave" unicode="&#xcc;" horiz-adv-x="250" 
d="M78 700h94v-700h-94v700zM-20 872l42 68l249 -137l-42 -68z" />
    <glyph glyph-name="Iacute" unicode="&#xcd;" horiz-adv-x="250" 
d="M78 700h94v-700h-94v700zM22 735l-42 68l249 137l42 -68z" />
    <glyph glyph-name="Icircumflex" unicode="&#xce;" horiz-adv-x="250" 
d="M78 700h94v-700h-94v700zM125 957l178 -153l-50 -56l-127 114l-127 -114l-51 56z" />
    <glyph glyph-name="Idieresis" unicode="&#xcf;" horiz-adv-x="250" 
d="M78 700h94v-700h-94v700zM173 843q0 29 20.5 50t49.5 21t49.5 -21t20.5 -50t-20.5 -49t-49.5 -20t-49.5 20t-20.5 49zM-56 843q0 29 20 50t49 21q30 0 50.5 -21t20.5 -50t-20.5 -49t-50.5 -20q-29 0 -49 20t-20 49z" />
    <glyph glyph-name="Eth" unicode="&#xd0;" horiz-adv-x="697" 
d="M294 700q110 0 194.5 -51.5t126.5 -130t42 -168.5t-42 -168.5t-126.5 -130t-194.5 -51.5h-216v318h-116v66h116v316h216zM289 318h-120v-236h125q123 0 196 80t73 188t-73 188t-196 80h-125v-234h120v-66z" />
    <glyph glyph-name="Ntilde" unicode="&#xd1;" horiz-adv-x="663" 
d="M494 159v541h91v-700h-101l-315 541v-541h-91v700h101zM393 862q38 0 62 49l64 -33q-23 -43 -56.5 -64t-68.5 -21q-38 0 -79.5 24.5t-57.5 24.5q-35 0 -61 -49l-60 40q43 78 121 78q37 0 78.5 -24.5t57.5 -24.5z" />
    <glyph glyph-name="Ograve" unicode="&#xd2;" horiz-adv-x="803" 
d="M402 -16q-108 0 -192 52.5t-126.5 135t-42.5 178.5t42.5 178.5t126.5 135t192 52.5t192 -52.5t126.5 -135t42.5 -178.5t-42.5 -178.5t-126.5 -135t-192 -52.5zM402 66q118 0 191.5 84.5t73.5 199.5q0 116 -73 200t-192 84t-192.5 -84t-73.5 -200q0 -115 74 -199.5
t192 -84.5zM242 886l42 69l249 -137l-42 -69z" />
    <glyph glyph-name="Oacute" unicode="&#xd3;" horiz-adv-x="803" 
d="M402 -16q-108 0 -192 52.5t-126.5 135t-42.5 178.5t42.5 178.5t126.5 135t192 52.5t192 -52.5t126.5 -135t42.5 -178.5t-42.5 -178.5t-126.5 -135t-192 -52.5zM402 66q118 0 191.5 84.5t73.5 199.5q0 116 -73 200t-192 84t-192.5 -84t-73.5 -200q0 -115 74 -199.5
t192 -84.5zM309 749l-42 69l249 137l42 -69z" />
    <glyph glyph-name="Ocircumflex" unicode="&#xd4;" horiz-adv-x="803" 
d="M402 -16q-108 0 -192 52.5t-126.5 135t-42.5 178.5t42.5 178.5t126.5 135t192 52.5t192 -52.5t126.5 -135t42.5 -178.5t-42.5 -178.5t-126.5 -135t-192 -52.5zM402 66q118 0 191.5 84.5t73.5 199.5q0 116 -73 200t-192 84t-192.5 -84t-73.5 -200q0 -115 74 -199.5
t192 -84.5zM402 957l178 -153l-50 -56l-128 114l-126 -114l-51 56z" />
    <glyph glyph-name="Otilde" unicode="&#xd5;" horiz-adv-x="803" 
d="M402 -16q-108 0 -192 52.5t-126.5 135t-42.5 178.5t42.5 178.5t126.5 135t192 52.5t192 -52.5t126.5 -135t42.5 -178.5t-42.5 -178.5t-126.5 -135t-192 -52.5zM402 66q118 0 191.5 84.5t73.5 199.5q0 116 -73 200t-192 84t-192.5 -84t-73.5 -200q0 -115 74 -199.5
t192 -84.5zM473 862q38 0 62 49l63 -33q-44 -85 -124 -85q-38 0 -79.5 24.5t-57.5 24.5q-35 0 -61 -49l-60 40q43 78 121 78q37 0 78.5 -24.5t57.5 -24.5z" />
    <glyph glyph-name="Odieresis" unicode="&#xd6;" horiz-adv-x="803" 
d="M402 -16q-108 0 -192 52.5t-126.5 135t-42.5 178.5t42.5 178.5t126.5 135t192 52.5t192 -52.5t126.5 -135t42.5 -178.5t-42.5 -178.5t-126.5 -135t-192 -52.5zM136 350q0 -115 74 -199.5t192 -84.5t191.5 84.5t73.5 199.5q0 116 -73 200t-192 84t-192.5 -84t-73.5 -200z
M286 774q-29 0 -49 20t-20 49t20 50t49 21q30 0 50.5 -21t20.5 -50t-20.5 -49t-50.5 -20zM446 843q0 29 20.5 50t49.5 21t49.5 -21t20.5 -50t-20.5 -49t-49.5 -20t-49.5 20t-20.5 49z" />
    <glyph glyph-name="multiply" unicode="&#xd7;" 
d="M399 459l62 -61l-116 -116l113 -113l-56 -54l-112 112l-115 -115l-61 61l114 115l-111 112l55 55l112 -112z" />
    <glyph glyph-name="Oslash" unicode="&#xd8;" horiz-adv-x="803" 
d="M402 -16q-66 0 -118 18l-37 -86l-62 27l37 86q-86 47 -133.5 133.5t-47.5 187.5q0 96 42.5 178.5t126.5 135t192 52.5q60 0 107 -16l35 80l61 -27l-33 -78q89 -45 140 -134t51 -191q0 -96 -42.5 -178.5t-126.5 -135t-192 -52.5zM402 66q118 0 191.5 84.5t73.5 199.5
q0 76 -34.5 141.5t-95.5 103.5l-220 -515q40 -14 85 -14zM136 350q0 -73 32 -137t89 -103l220 513q-38 11 -75 11q-119 0 -192.5 -84t-73.5 -200z" />
    <glyph glyph-name="Ugrave" unicode="&#xd9;" horiz-adv-x="629" 
d="M71 700h91v-473q0 -67 42 -114t109 -47q68 0 111 47t43 114v473h91v-473q0 -102 -67.5 -172.5t-177.5 -70.5q-107 0 -174.5 70.5t-67.5 172.5v473zM180 886l42 69l249 -137l-42 -69z" />
    <glyph glyph-name="Uacute" unicode="&#xda;" horiz-adv-x="629" 
d="M71 700h91v-473q0 -67 42 -114t109 -47q68 0 111 47t43 114v473h91v-473q0 -102 -67.5 -172.5t-177.5 -70.5q-107 0 -174.5 70.5t-67.5 172.5v473zM192 749l-41 69l249 137l41 -69z" />
    <glyph glyph-name="Ucircumflex" unicode="&#xdb;" horiz-adv-x="629" 
d="M71 700h91v-473q0 -67 42 -114t109 -47q68 0 111 47t43 114v473h91v-473q0 -102 -67.5 -172.5t-177.5 -70.5q-107 0 -174.5 70.5t-67.5 172.5v473zM311 958l178 -154l-50 -56l-127 115l-127 -114l-51 55z" />
    <glyph glyph-name="Udieresis" unicode="&#xdc;" horiz-adv-x="629" 
d="M71 700h91v-473q0 -67 42 -114t109 -47q68 0 111 47t43 114v473h91v-473q0 -102 -67.5 -172.5t-177.5 -70.5q-107 0 -174.5 70.5t-67.5 172.5v473zM358 843q0 29 20.5 50t49.5 21t49.5 -21t20.5 -50t-20.5 -49t-49.5 -20t-49.5 20t-20.5 49zM129 843q0 29 20 50t49 21
q30 0 50.5 -21t20.5 -50t-20.5 -49t-50.5 -20q-29 0 -49 20t-20 49z" />
    <glyph glyph-name="Yacute" unicode="&#xdd;" horiz-adv-x="591" 
d="M234 0h-100l140 278l-264 422h106l205 -327l165 327h100zM226 751l-41 69l249 137l41 -69z" />
    <glyph glyph-name="Thorn" unicode="&#xde;" horiz-adv-x="500" 
d="M78 700h82v-132h78q106 0 168.5 -65.5t62.5 -157.5q0 -91 -62.5 -156.5t-168.5 -65.5h-78v-123h-82v700zM160 495v-299h78q68 0 108.5 44t40.5 105t-40.5 105.5t-108.5 44.5h-78z" />
    <glyph glyph-name="germandbls" unicode="&#xdf;" horiz-adv-x="562" 
d="M209 76q36 -10 79 -10q60 0 101.5 34t41.5 97q0 49 -38 89t-107 40h-43v78h40q65 0 98 33.5t33 85.5q0 50 -36.5 81t-93.5 31t-92 -36.5t-35 -95.5v-503h-86v503q0 93 59 151t154 58q92 0 154.5 -52.5t62.5 -136.5q0 -124 -117 -158q59 -18 96.5 -63t37.5 -105
q0 -99 -67.5 -154t-162.5 -55q-52 0 -79 12v76z" />
    <glyph glyph-name="agrave" unicode="&#xe0;" horiz-adv-x="597" 
d="M519 454v-454h-86v79q-22 -42 -65 -66t-94 -24q-102 0 -167.5 70t-65.5 168q0 99 65.5 169t167.5 70q51 0 94 -24t65 -66v78h86zM279 67q68 0 111 46.5t43 113.5t-43 114t-111 47q-67 0 -109.5 -47t-42.5 -114t42.5 -113.5t109.5 -46.5zM132 640l42 68l249 -137l-42 -68z
" />
    <glyph glyph-name="aacute" unicode="&#xe1;" horiz-adv-x="597" 
d="M519 454v-454h-86v79q-22 -42 -65 -66t-94 -24q-102 0 -167.5 70t-65.5 168q0 99 65.5 169t167.5 70q51 0 94 -24t65 -66v78h86zM279 67q68 0 111 46.5t43 113.5t-43 114t-111 47q-67 0 -109.5 -47t-42.5 -114t42.5 -113.5t109.5 -46.5zM179 503l-42 68l249 137l42 -68z
" />
    <glyph glyph-name="acircumflex" unicode="&#xe2;" horiz-adv-x="597" 
d="M519 454v-454h-86v79q-22 -42 -65 -66t-94 -24q-102 0 -167.5 70t-65.5 168q0 99 65.5 169t167.5 70q51 0 94 -24t65 -66v78h86zM279 67q68 0 111 46.5t43 113.5t-43 114t-111 47q-67 0 -109.5 -47t-42.5 -114t42.5 -113.5t109.5 -46.5zM282 739l178 -154l-50 -56
l-127 115l-127 -114l-51 55z" />
    <glyph glyph-name="atilde" unicode="&#xe3;" horiz-adv-x="597" 
d="M519 454v-454h-86v79q-22 -42 -65 -66t-94 -24q-102 0 -167.5 70t-65.5 168q0 99 65.5 169t167.5 70q51 0 94 -24t65 -66v78h86zM279 67q68 0 111 46.5t43 113.5t-43 114t-111 47q-67 0 -109.5 -47t-42.5 -114t42.5 -113.5t109.5 -46.5zM366 640q38 0 62 49l64 -33
q-45 -84 -125 -84q-38 0 -79.5 24.5t-57.5 24.5q-21 0 -34 -12.5t-27 -36.5l-60 40q43 77 121 77q37 0 78.5 -24.5t57.5 -24.5z" />
    <glyph glyph-name="adieresis" unicode="&#xe4;" horiz-adv-x="597" 
d="M433 0v79q-22 -42 -65 -66t-94 -24q-102 0 -167.5 70t-65.5 168q0 99 65.5 169t167.5 70q51 0 94 -24t65 -66v78h86v-454h-86zM279 67q68 0 111 46.5t43 113.5t-43 114t-111 47q-67 0 -109.5 -47t-42.5 -114t42.5 -113.5t109.5 -46.5zM392 540q-29 0 -49 20.5t-20 49.5
t20 49.5t49 20.5q30 0 50.5 -20.5t20.5 -49.5t-20.5 -49.5t-50.5 -20.5zM93 610q0 29 20.5 49.5t49.5 20.5t49.5 -20.5t20.5 -49.5t-20.5 -49.5t-49.5 -20.5t-49.5 20.5t-20.5 49.5z" />
    <glyph glyph-name="aring" unicode="&#xe5;" horiz-adv-x="597" 
d="M519 454v-454h-86v79q-22 -42 -65 -66t-94 -24q-102 0 -167.5 70t-65.5 168q0 99 65.5 169t167.5 70q51 0 94 -24t65 -66v78h86zM279 67q68 0 111 46.5t43 113.5t-43 114t-111 47q-67 0 -109.5 -47t-42.5 -114t42.5 -113.5t109.5 -46.5zM278 758q53 0 90.5 -37.5
t37.5 -89.5t-37.5 -89.5t-90.5 -37.5q-52 0 -89.5 37.5t-37.5 89.5q0 53 37 90t90 37zM278 705q-30 0 -50.5 -22t-20.5 -52t20.5 -51t50.5 -21t51 21.5t21 51.5t-21 51.5t-51 21.5z" />
    <glyph glyph-name="ae" unicode="&#xe6;" horiz-adv-x="914" 
d="M519 454v-40q54 52 137 52q88 0 149.5 -59t61.5 -146q0 -32 -4 -57h-342q0 -63 35 -102.5t103 -39.5q87 0 115 72h88q-13 -61 -67.5 -103t-135.5 -42q-86 0 -140 52v-41h-86v79q-22 -42 -65 -66t-94 -24q-102 0 -167.5 70t-65.5 168q0 99 65.5 169t167.5 70q51 0 94 -24
t65 -66v78h86zM654 392q-58 0 -94 -32.5t-38 -89.5h260q0 54 -36.5 88t-91.5 34zM279 67q68 0 111 46.5t43 113.5q0 68 -43 114.5t-111 46.5q-67 0 -109.5 -47t-42.5 -114t42.5 -113.5t109.5 -46.5z" />
    <glyph glyph-name="ccedilla" unicode="&#xe7;" horiz-adv-x="529" 
d="M221 -7q-84 17 -131 82.5t-47 151.5q0 98 60 168.5t166 70.5q102 0 155 -51.5t60 -125.5h-87q-12 99 -126 99q-67 0 -104 -46.5t-37 -114.5q0 -69 37 -114.5t109 -45.5q54 0 82 22.5t40 66.5h87q-12 -72 -62 -117t-138 -50q-5 0 -6 1v-56q15 18 48 18q31 0 53.5 -22
t22.5 -59t-26 -63.5t-73 -26.5q-16 0 -33.5 5t-38 24t-25.5 50h53q11 -32 44 -32q21 0 33.5 12t12.5 31t-12 31t-31 12q-28 0 -40 -23h-46v102z" />
    <glyph glyph-name="egrave" unicode="&#xe8;" horiz-adv-x="525" 
d="M129 204q2 -62 36.5 -102t104.5 -40q87 0 115 72h88q-13 -61 -67 -103t-136 -42q-110 0 -168.5 67t-58.5 171q0 106 59.5 172.5t164.5 66.5q89 0 149.5 -59t60.5 -146q0 -32 -4 -57h-344zM265 399q-60 0 -96.5 -34t-38.5 -95h263q0 59 -36 94t-92 35zM140 640l41 68
l249 -137l-41 -68z" />
    <glyph glyph-name="eacute" unicode="&#xe9;" horiz-adv-x="525" 
d="M129 204q2 -62 36.5 -102t104.5 -40q87 0 115 72h88q-13 -61 -67 -103t-136 -42q-110 0 -168.5 67t-58.5 171q0 106 59.5 172.5t164.5 66.5q89 0 149.5 -59t60.5 -146q0 -32 -4 -57h-344zM265 399q-60 0 -96.5 -34t-38.5 -95h263q0 59 -36 94t-92 35zM154 503l-41 68
l249 137l41 -68z" />
    <glyph glyph-name="ecircumflex" unicode="&#xea;" horiz-adv-x="525" 
d="M129 204q2 -62 36.5 -102t104.5 -40q87 0 115 72h88q-13 -61 -67 -103t-136 -42q-110 0 -168.5 67t-58.5 171q0 106 59.5 172.5t164.5 66.5q89 0 149.5 -59t60.5 -146q0 -32 -4 -57h-344zM265 399q-60 0 -96.5 -34t-38.5 -95h263q0 59 -36 94t-92 35zM266 739l178 -154
l-50 -56l-127 115l-127 -114l-51 55z" />
    <glyph glyph-name="edieresis" unicode="&#xeb;" horiz-adv-x="525" 
d="M129 204q2 -62 36.5 -102t104.5 -40q87 0 115 72h88q-13 -61 -67 -103t-136 -42q-110 0 -168.5 67t-58.5 171q0 106 59.5 172.5t164.5 66.5q89 0 149.5 -59t60.5 -146q0 -32 -4 -57h-344zM265 399q-60 0 -96.5 -34t-38.5 -95h263q0 59 -36 94t-92 35zM310 609
q0 30 20.5 50.5t49.5 20.5t49.5 -20.5t20.5 -50.5q0 -29 -20.5 -49t-49.5 -20t-49.5 20t-20.5 49zM81 609q0 30 20 50.5t49 20.5t50 -20.5t21 -50.5q0 -29 -21 -49t-50 -20t-49 20t-20 49z" />
    <glyph glyph-name="igrave" unicode="&#xec;" horiz-adv-x="243" 
d="M78 454h87v-454h-87v454zM-24 655l42 68l249 -137l-42 -68z" />
    <glyph glyph-name="iacute" unicode="&#xed;" horiz-adv-x="243" 
d="M78 454h87v-454h-87v454zM18 518l-42 68l250 137l41 -68z" />
    <glyph glyph-name="icircumflex" unicode="&#xee;" horiz-adv-x="243" 
d="M78 454h87v-454h-87v454zM121 739l178 -154l-50 -56l-127 115l-127 -114l-51 55z" />
    <glyph glyph-name="idieresis" unicode="&#xef;" horiz-adv-x="243" 
d="M78 454h87v-454h-87v454zM160 610q0 29 20 49.5t49 20.5q30 0 50.5 -20.5t20.5 -49.5t-20.5 -49.5t-50.5 -20.5q-29 0 -49 20.5t-20 49.5zM-40 610q0 29 20.5 49.5t49.5 20.5t49.5 -20.5t20.5 -49.5t-20.5 -49.5t-49.5 -20.5t-49.5 20.5t-20.5 49.5z" />
    <glyph glyph-name="eth" unicode="&#xf0;" horiz-adv-x="565" 
d="M283 -11q-106 0 -172.5 69.5t-66.5 168.5q0 100 66.5 169.5t172.5 69.5q27 0 38 -12l-53 87l-110 -61l-30 53l107 58l-67 109h105l39 -66l85 47l29 -52l-82 -46l130 -208q48 -78 48 -148q0 -99 -66.5 -168.5t-172.5 -69.5zM283 67q67 0 110 46.5t43 113.5t-43 114
t-110 47t-110 -47t-43 -114t43 -113.5t110 -46.5z" />
    <glyph glyph-name="ntilde" unicode="&#xf1;" horiz-adv-x="565" 
d="M78 454h87v-80q21 43 62 67.5t98 24.5q94 0 136 -60q35 -49 35 -138v-268h-87v241q0 148 -115 148q-62 0 -95.5 -45t-33.5 -110v-234h-87v454zM357 640q38 0 62 49l64 -33q-45 -84 -125 -84q-38 0 -79.5 24.5t-57.5 24.5q-21 0 -34 -12.5t-27 -36.5l-60 40q43 77 121 77
q37 0 78.5 -24.5t57.5 -24.5z" />
    <glyph glyph-name="ograve" unicode="&#xf2;" horiz-adv-x="560" 
d="M279 -11q-105 0 -171.5 69.5t-66.5 168.5q0 100 66.5 169.5t171.5 69.5q107 0 173.5 -69.5t66.5 -169.5q0 -99 -66.5 -168.5t-173.5 -69.5zM279 67q68 0 111 46.5t43 113.5t-43 114t-111 47q-67 0 -109.5 -47t-42.5 -114t42.5 -113.5t109.5 -46.5zM142 640l41 68
l249 -137l-41 -68z" />
    <glyph glyph-name="oacute" unicode="&#xf3;" horiz-adv-x="560" 
d="M279 -11q-105 0 -171.5 69.5t-66.5 168.5q0 100 66.5 169.5t171.5 69.5q107 0 173.5 -69.5t66.5 -169.5q0 -99 -66.5 -168.5t-173.5 -69.5zM279 67q68 0 111 46.5t43 113.5t-43 114t-111 47q-67 0 -109.5 -47t-42.5 -114t42.5 -113.5t109.5 -46.5zM154 503l-41 68
l249 137l41 -68z" />
    <glyph glyph-name="ocircumflex" unicode="&#xf4;" horiz-adv-x="560" 
d="M279 -11q-105 0 -171.5 69.5t-66.5 168.5q0 100 66.5 169.5t171.5 69.5q107 0 173.5 -69.5t66.5 -169.5q0 -99 -66.5 -168.5t-173.5 -69.5zM279 67q68 0 111 46.5t43 113.5t-43 114t-111 47q-67 0 -109.5 -47t-42.5 -114t42.5 -113.5t109.5 -46.5zM278 739l179 -153
l-51 -57l-127 115l-126 -114l-51 56z" />
    <glyph glyph-name="otilde" unicode="&#xf5;" horiz-adv-x="560" 
d="M279 -11q-105 0 -171.5 69.5t-66.5 168.5q0 100 66.5 169.5t171.5 69.5q107 0 173.5 -69.5t66.5 -169.5q0 -99 -66.5 -168.5t-173.5 -69.5zM279 67q68 0 111 46.5t43 113.5t-43 114t-111 47q-67 0 -109.5 -47t-42.5 -114t42.5 -113.5t109.5 -46.5zM345 640q38 0 62 49
l64 -33q-45 -84 -125 -84q-38 0 -79.5 24.5t-57.5 24.5q-21 0 -34 -12.5t-27 -36.5l-60 40q43 77 121 77q37 0 78.5 -24.5t57.5 -24.5z" />
    <glyph glyph-name="odieresis" unicode="&#xf6;" horiz-adv-x="560" 
d="M165 540q-29 0 -49.5 20.5t-20.5 49.5t20.5 49.5t49.5 20.5t49.5 -20.5t20.5 -49.5t-20.5 -49.5t-49.5 -20.5zM325 610q0 29 20 49.5t49 20.5t50 -20.5t21 -49.5t-21 -49.5t-50 -20.5t-49 20.5t-20 49.5zM279 -11q-105 0 -171.5 69.5t-66.5 168.5q0 100 66.5 169.5
t171.5 69.5q107 0 173.5 -69.5t66.5 -169.5q0 -99 -66.5 -168.5t-173.5 -69.5zM279 67q68 0 111 46.5t43 113.5t-43 114t-111 47q-67 0 -109.5 -47t-42.5 -114t42.5 -113.5t109.5 -46.5z" />
    <glyph glyph-name="divide" unicode="&#xf7;" 
d="M86 196v77h404v-77h-404zM218 393q0 29 20.5 49.5t49.5 20.5t49.5 -20.5t20.5 -49.5t-20.5 -49.5t-49.5 -20.5t-49.5 20.5t-20.5 49.5zM218 85q0 25 21 47.5t49 22.5t49 -22.5t21 -47.5q0 -29 -20.5 -49.5t-49.5 -20.5t-49.5 20.5t-20.5 49.5z" />
    <glyph glyph-name="oslash" unicode="&#xf8;" horiz-adv-x="560" 
d="M396 438q58 -31 90.5 -87t32.5 -124q0 -99 -66.5 -168.5t-173.5 -69.5q-41 0 -73 11l-32 -75l-54 22l32 76q-53 32 -82 86t-29 118q0 100 66.5 169.5t171.5 69.5q22 0 62 -8l31 71l54 -22zM279 67q68 0 111 46.5t43 113.5q0 89 -70 135l-125 -290q16 -5 41 -5zM127 227
q0 -78 58 -128l124 285q-15 4 -30 4q-67 0 -109.5 -47t-42.5 -114z" />
    <glyph glyph-name="ugrave" unicode="&#xf9;" horiz-adv-x="565" 
d="M487 0h-87v81q-21 -43 -62.5 -67.5t-97.5 -24.5q-94 0 -137 59q-34 48 -34 138v268h87v-240q0 -148 114 -148q63 0 96.5 44.5t33.5 110.5v233h87v-454zM138 640l42 68l249 -137l-42 -68z" />
    <glyph glyph-name="uacute" unicode="&#xfa;" horiz-adv-x="565" 
d="M487 0h-87v81q-21 -43 -62.5 -67.5t-97.5 -24.5q-94 0 -137 59q-34 48 -34 138v268h87v-240q0 -148 114 -148q63 0 96.5 44.5t33.5 110.5v233h87v-454zM175 503l-41 68l249 137l41 -68z" />
    <glyph glyph-name="ucircumflex" unicode="&#xfb;" horiz-adv-x="565" 
d="M487 0h-87v81q-21 -43 -62.5 -67.5t-97.5 -24.5q-94 0 -137 59q-34 48 -34 138v268h87v-240q0 -148 114 -148q63 0 96.5 44.5t33.5 110.5v233h87v-454zM284 739l178 -154l-50 -56l-127 115l-127 -114l-51 55z" />
    <glyph glyph-name="udieresis" unicode="&#xfc;" horiz-adv-x="565" 
d="M487 0h-87v81q-21 -43 -62.5 -67.5t-97.5 -24.5q-94 0 -137 59q-34 48 -34 138v268h87v-240q0 -148 114 -148q63 0 96.5 44.5t33.5 110.5v233h87v-454zM324 610q0 29 20 49.5t49 20.5t50 -20.5t21 -49.5t-21 -49.5t-50 -20.5t-49 20.5t-20 49.5zM94 610q0 29 20.5 49.5
t49.5 20.5t49.5 -20.5t20.5 -49.5t-20.5 -49.5t-49.5 -20.5t-49.5 20.5t-20.5 49.5z" />
    <glyph glyph-name="yacute" unicode="&#xfd;" horiz-adv-x="573" 
d="M282 -256q-99 0 -154.5 50t-57.5 147h88q7 -123 126 -123q62 0 94.5 30.5t32.5 104.5v128q-44 -92 -159 -92q-94 0 -138 58q-34 48 -34 142v265h87v-238q0 -72 26 -111t90 -39q62 0 95 44.5t33 110.5v233h87v-501q0 -209 -216 -209zM186 503l-42 68l249 137l42 -68z" />
    <glyph glyph-name="thorn" unicode="&#xfe;" horiz-adv-x="594" 
d="M78 -246v946h87v-324q22 42 64.5 66t93.5 24q103 0 168.5 -70t65.5 -169t-65.5 -168.5t-168.5 -69.5q-51 0 -93.5 24t-64.5 66v-325h-87zM319 67q67 0 109 46.5t42 113.5t-42 114t-109 47q-68 0 -111 -47t-43 -114t43 -113.5t111 -46.5z" />
    <glyph glyph-name="ydieresis" unicode="&#xff;" horiz-adv-x="573" 
d="M282 -256q-99 0 -154.5 50t-57.5 147h88q7 -123 126 -123q62 0 94.5 30.5t32.5 104.5v128q-44 -92 -159 -92q-94 0 -138 58q-34 48 -34 142v265h87v-238q0 -72 26 -111t90 -39q62 0 95 44.5t33 110.5v233h87v-501q0 -209 -216 -209zM344 609q0 29 19 48.5t47 19.5
q29 0 48.5 -19.5t19.5 -48.5q0 -28 -19.5 -47t-48.5 -19q-28 0 -47 19t-19 47zM114 609q0 29 19.5 48.5t47.5 19.5t47.5 -19.5t19.5 -48.5q0 -28 -19.5 -47t-47.5 -19t-47.5 19t-19.5 47z" />
    <glyph glyph-name="Amacron" unicode="&#x100;" horiz-adv-x="559" 
d="M554 0h-96l-37 107h-284l-36 -107h-96l241 700h66zM165 190h228l-113 361zM458 802h-358v77h358v-77z" />
    <glyph glyph-name="amacron" unicode="&#x101;" horiz-adv-x="597" 
d="M519 454v-454h-86v79q-22 -42 -65 -66t-94 -24q-102 0 -167.5 70t-65.5 168q0 99 65.5 169t167.5 70q51 0 94 -24t65 -66v78h86zM279 67q68 0 111 46.5t43 113.5t-43 114t-111 47q-67 0 -109.5 -47t-42.5 -114t42.5 -113.5t109.5 -46.5zM453 571h-358v78h358v-78z" />
    <glyph glyph-name="Abreve" unicode="&#x102;" horiz-adv-x="559" 
d="M554 0h-96l-37 107h-284l-36 -107h-96l241 700h66zM165 190h228l-113 361zM280 843q88 0 112 83h81q-12 -66 -65.5 -108.5t-127.5 -42.5t-128 42.5t-66 108.5h82q24 -83 112 -83z" />
    <glyph glyph-name="abreve" unicode="&#x103;" horiz-adv-x="597" 
d="M519 454v-454h-86v79q-22 -42 -65 -66t-94 -24q-102 0 -167.5 70t-65.5 168q0 99 65.5 169t167.5 70q51 0 94 -24t65 -66v78h86zM279 67q68 0 111 46.5t43 113.5t-43 114t-111 47q-67 0 -109.5 -47t-42.5 -114t42.5 -113.5t109.5 -46.5zM278 617q42 0 70.5 22t38.5 61h82
q-12 -66 -65.5 -108.5t-125.5 -42.5q-74 0 -126.5 42.5t-64.5 108.5h81q11 -39 39.5 -61t70.5 -22z" />
    <glyph glyph-name="Aogonek" unicode="&#x104;" horiz-adv-x="559" 
d="M165 190h228l-113 361zM564 -198q-40 -14 -86 -14q-54 0 -83 26.5t-29 70.5q0 61 92 115l-37 107h-284l-36 -107h-96l241 700h66l242 -700h-34q-71 -38 -71 -88q0 -25 15 -41.5t41 -16.5q30 0 60 11z" />
    <glyph glyph-name="aogonek" unicode="&#x105;" horiz-adv-x="597" 
d="M519 0h-21q-78 -42 -78 -95q0 -22 14 -36.5t38 -14.5q30 0 60 11l-1 -63q-40 -14 -85 -14q-56 0 -86.5 27t-30.5 70q0 33 25.5 60.5t78.5 58.5v75q-22 -42 -65 -66t-94 -24q-102 0 -167.5 70t-65.5 168q0 99 65.5 169t167.5 70q51 0 94 -24t65 -66v78h86v-454zM279 67
q68 0 111 46.5t43 113.5t-43 114t-111 47q-67 0 -109.5 -47t-42.5 -114t42.5 -113.5t109.5 -46.5z" />
    <glyph glyph-name="Cacute" unicode="&#x106;" horiz-adv-x="775" 
d="M736 216q-27 -101 -116.5 -166.5t-211.5 -65.5q-166 0 -266.5 107t-100.5 260q0 148 98 256.5t256 108.5q145 0 232.5 -72.5t108.5 -188.5h-96q-17 80 -78 129.5t-156 49.5q-124 0 -198 -83.5t-74 -199.5q0 -120 77 -202.5t208 -82.5q73 0 134 42t83 108h100zM289 749
l-42 69l249 137l42 -69z" />
    <glyph glyph-name="cacute" unicode="&#x107;" horiz-adv-x="529" 
d="M397 289q-12 99 -126 99q-67 0 -104 -46.5t-37 -114.5q0 -69 37 -114.5t109 -45.5q54 0 82 22.5t40 66.5h87q-10 -74 -65.5 -120.5t-149.5 -46.5q-106 0 -166.5 70t-60.5 168t60 168.5t166 70.5q102 0 155 -51.5t60 -125.5h-87zM163 503l-42 68l249 137l42 -68z" />
    <glyph glyph-name="Ccircumflex" unicode="&#x108;" horiz-adv-x="775" 
d="M736 216q-27 -101 -116.5 -166.5t-211.5 -65.5q-166 0 -266.5 107t-100.5 260q0 148 98 256.5t256 108.5q145 0 232.5 -72.5t108.5 -188.5h-96q-17 80 -78 129.5t-156 49.5q-124 0 -198 -83.5t-74 -199.5q0 -120 77 -202.5t208 -82.5q73 0 134 42t83 108h100zM397 957
l178 -153l-50 -56l-128 114l-126 -114l-51 56z" />
    <glyph glyph-name="ccircumflex" unicode="&#x109;" horiz-adv-x="529" 
d="M397 289q-12 99 -126 99q-67 0 -104 -46.5t-37 -114.5q0 -69 37 -114.5t109 -45.5q54 0 82 22.5t40 66.5h87q-10 -74 -65.5 -120.5t-149.5 -46.5q-106 0 -166.5 70t-60.5 168t60 168.5t166 70.5q102 0 155 -51.5t60 -125.5h-87zM274 739l178 -154l-50 -56l-127 115
l-126 -114l-52 55z" />
    <glyph glyph-name="Cdotaccent" unicode="&#x10a;" horiz-adv-x="775" 
d="M736 216q-27 -101 -116.5 -166.5t-211.5 -65.5q-166 0 -266.5 107t-100.5 260q0 148 98 256.5t256 108.5q145 0 232.5 -72.5t108.5 -188.5h-96q-17 80 -78 129.5t-156 49.5q-124 0 -198 -83.5t-74 -199.5q0 -120 77 -202.5t208 -82.5q73 0 134 42t83 108h100zM326 850
q0 30 20 50.5t49 20.5t50 -20.5t21 -50.5q0 -29 -21 -49t-50 -20t-49 20t-20 49z" />
    <glyph glyph-name="cdotaccent" unicode="&#x10b;" horiz-adv-x="529" 
d="M397 289q-12 99 -126 99q-67 0 -104 -46.5t-37 -114.5q0 -69 37 -114.5t109 -45.5q54 0 82 22.5t40 66.5h87q-10 -74 -65.5 -120.5t-149.5 -46.5q-106 0 -166.5 70t-60.5 168t60 168.5t166 70.5q102 0 155 -51.5t60 -125.5h-87zM201 609q0 29 20.5 49.5t49.5 20.5
t49.5 -20.5t20.5 -49.5t-20.5 -49.5t-49.5 -20.5t-49.5 20.5t-20.5 49.5z" />
    <glyph glyph-name="Ccaron" unicode="&#x10c;" horiz-adv-x="775" 
d="M736 216q-27 -101 -116.5 -166.5t-211.5 -65.5q-166 0 -266.5 107t-100.5 260q0 148 98 256.5t256 108.5q145 0 232.5 -72.5t108.5 -188.5h-96q-17 80 -78 129.5t-156 49.5q-124 0 -198 -83.5t-74 -199.5q0 -120 77 -202.5t208 -82.5q73 0 134 42t83 108h100zM214 901
l52 56l123 -114l125 114l50 -56l-176 -153z" />
    <glyph glyph-name="ccaron" unicode="&#x10d;" horiz-adv-x="529" 
d="M397 289q-12 99 -126 99q-67 0 -104 -46.5t-37 -114.5q0 -69 37 -114.5t109 -45.5q54 0 82 22.5t40 66.5h87q-10 -74 -65.5 -120.5t-149.5 -46.5q-106 0 -166.5 70t-60.5 168t60 168.5t166 70.5q102 0 155 -51.5t60 -125.5h-87zM97 679l51 55l124 -113l124 114l51 -56
l-176 -154z" />
    <glyph glyph-name="Dcaron" unicode="&#x10e;" horiz-adv-x="697" 
d="M294 700q84 0 154 -30t115 -79.5t69.5 -111.5t24.5 -129t-24.5 -129t-69.5 -111.5t-115 -79.5t-154 -30h-216v700h216zM169 618v-536h125q123 0 196 80t73 188t-73 188t-196 80h-125zM155 901l52 56l123 -114l125 114l50 -56l-176 -153z" />
    <glyph glyph-name="dcaron" unicode="&#x10f;" horiz-adv-x="722" 
d="M279 67q68 0 111 46.5t43 113.5t-43 114t-111 47q-67 0 -109.5 -47t-42.5 -114t42.5 -113.5t109.5 -46.5zM433 700h86v-700h-86v79q-22 -42 -65 -66t-94 -24q-102 0 -167.5 70t-65.5 168q0 99 65.5 169t167.5 70q51 0 94 -24t65 -66v324zM573 660q0 29 19.5 48.5
t49.5 19.5q36 0 58 -27t22 -70q0 -76 -36.5 -109.5t-107.5 -34.5v42q52 0 69 30q15 20 15 42q-5 -7 -22 -7q-30 0 -48.5 19t-18.5 47z" />
    <glyph glyph-name="Dcroat" unicode="&#x110;" horiz-adv-x="697" 
d="M294 700q84 0 154 -30t115 -79.5t69.5 -111.5t24.5 -129t-24.5 -129t-69.5 -111.5t-115 -79.5t-154 -30h-216v313h-132v78h132v309h216zM305 313h-136v-231h125q123 0 196 80t73 188t-73 188t-196 80h-125v-227h136v-78z" />
    <glyph glyph-name="dslash" unicode="&#x111;" horiz-adv-x="597" 
d="M571 536h-52v-536h-86v79q-22 -42 -65 -66t-94 -24q-102 0 -167.5 70t-65.5 168q0 99 65.5 169t167.5 70q51 0 94 -24t65 -66v160h-114v59h114v105h86v-105h52v-59zM279 67q68 0 111 46.5t43 113.5t-43 114t-111 47q-67 0 -109.5 -47t-42.5 -114t42.5 -113.5t109.5 -46.5
z" />
    <glyph glyph-name="Emacron" unicode="&#x112;" horiz-adv-x="544" 
d="M169 618v-229h302v-82h-302v-225h302v-82h-393v700h393v-82h-302zM451 802h-358v77h358v-77z" />
    <glyph glyph-name="emacron" unicode="&#x113;" horiz-adv-x="525" 
d="M129 204q2 -62 36.5 -102t104.5 -40q87 0 115 72h88q-13 -61 -67 -103t-136 -42q-110 0 -168.5 67t-58.5 171q0 106 59.5 172.5t164.5 66.5q89 0 149.5 -59t60.5 -146q0 -32 -4 -57h-344zM265 399q-60 0 -96.5 -34t-38.5 -95h263q0 59 -36 94t-92 35zM449 571h-358v78
h358v-78z" />
    <glyph glyph-name="Ebreve" unicode="&#x114;" horiz-adv-x="544" 
d="M169 618v-229h302v-82h-302v-225h302v-82h-393v700h393v-82h-302zM276 843q88 0 112 83h81q-12 -66 -65.5 -108.5t-127.5 -42.5t-128 42.5t-66 108.5h82q24 -83 112 -83z" />
    <glyph glyph-name="ebreve" unicode="&#x115;" horiz-adv-x="525" 
d="M129 204q2 -62 36.5 -102t104.5 -40q87 0 115 72h88q-13 -61 -67 -103t-136 -42q-110 0 -168.5 67t-58.5 171q0 106 59.5 172.5t164.5 66.5q89 0 149.5 -59t60.5 -146q0 -32 -4 -57h-344zM265 399q-60 0 -96.5 -34t-38.5 -95h263q0 59 -36 94t-92 35zM266 617
q42 0 70.5 22t39.5 61h81q-12 -66 -65 -108.5t-126 -42.5q-74 0 -126.5 42.5t-64.5 108.5h82q10 -39 38.5 -61t70.5 -22z" />
    <glyph glyph-name="Edotaccent" unicode="&#x116;" horiz-adv-x="544" 
d="M169 618v-229h302v-82h-302v-225h302v-82h-393v700h393v-82h-302zM202 851q0 29 20 49.5t49 20.5q30 0 50.5 -20.5t20.5 -49.5t-20.5 -49.5t-50.5 -20.5q-29 0 -49 20.5t-20 49.5z" />
    <glyph glyph-name="edotaccent" unicode="&#x117;" horiz-adv-x="525" 
d="M129 204q2 -62 36.5 -102t104.5 -40q87 0 115 72h88q-13 -61 -67 -103t-136 -42q-110 0 -168.5 67t-58.5 171q0 106 59.5 172.5t164.5 66.5q89 0 149.5 -59t60.5 -146q0 -32 -4 -57h-344zM265 399q-60 0 -96.5 -34t-38.5 -95h263q0 59 -36 94t-92 35zM194 609
q0 29 20 49.5t49 20.5q30 0 50.5 -20.5t20.5 -49.5t-20.5 -49.5t-50.5 -20.5q-29 0 -49 20.5t-20 49.5z" />
    <glyph glyph-name="Eogonek" unicode="&#x118;" horiz-adv-x="544" 
d="M78 0v700h393v-82h-302v-229h302v-82h-302v-225h302v-82h-63q-60 -43 -60 -87q0 -25 15.5 -42t42.5 -17q33 0 64 13v-64q-45 -15 -90 -15q-55 0 -85 27.5t-30 69.5q0 32 19 58.5t61 56.5h-267z" />
    <glyph glyph-name="eogonek" unicode="&#x119;" horiz-adv-x="525" 
d="M372 -197q-45 -15 -89 -15q-55 0 -85 27.5t-30 69.5q0 55 67 107q-92 12 -142 77.5t-50 157.5q0 106 59.5 172.5t164.5 66.5q89 0 149.5 -59t60.5 -146q0 -32 -4 -57h-341q0 -62 34.5 -102t103.5 -40q87 0 115 72h88q-12 -56 -58 -96t-117 -48q-47 -35 -47 -77
q0 -25 15.5 -42t42.5 -17q33 0 64 13zM265 399q-60 0 -96.5 -34t-38.5 -95h263q0 59 -36 94t-92 35z" />
    <glyph glyph-name="Ecaron" unicode="&#x11a;" horiz-adv-x="544" 
d="M169 618v-229h302v-82h-302v-225h302v-82h-393v700h393v-82h-302zM96 901l51 56l124 -114l124 114l51 -56l-176 -153z" />
    <glyph glyph-name="ecaron" unicode="&#x11b;" horiz-adv-x="525" 
d="M129 204q2 -62 36.5 -102t104.5 -40q87 0 115 72h88q-13 -61 -67 -103t-136 -42q-110 0 -168.5 67t-58.5 171q0 106 59.5 172.5t164.5 66.5q89 0 149.5 -59t60.5 -146q0 -32 -4 -57h-344zM265 399q-60 0 -96.5 -34t-38.5 -95h263q0 59 -36 94t-92 35zM89 679l51 55
l124 -113l125 114l50 -56l-176 -154z" />
    <glyph glyph-name="Gcircumflex" unicode="&#x11c;" horiz-adv-x="836" 
d="M473 337h337v-82h-75q-21 -125 -107 -198t-228 -73q-84 0 -153 30.5t-113.5 81.5t-68.5 116.5t-24 137.5q0 96 42.5 178.5t126 135t190.5 52.5q115 0 198 -61t95 -150h-92q-15 56 -70 92.5t-131 36.5q-120 0 -193 -84t-73 -200q0 -119 73 -201.5t204 -82.5
q98 0 157.5 53.5t69.5 135.5h-165v82zM400 957l179 -153l-51 -56l-127 114l-126 -114l-51 56z" />
    <glyph glyph-name="gcircumflex" unicode="&#x11d;" horiz-adv-x="595" 
d="M279 388q-67 0 -109.5 -47t-42.5 -114t42.5 -113.5t109.5 -46.5q68 0 111 46.5t43 113.5t-43 114t-111 47zM519 -29q0 -227 -242 -227q-109 0 -167.5 57t-62.5 141h88q4 -53 39 -87t103 -34q156 0 156 150v108q-22 -42 -65 -66t-94 -24q-102 0 -167.5 70t-65.5 168
q0 99 65.5 169t167.5 70q51 0 94 -24t65 -66v78h86v-483zM274 739l179 -154l-51 -56l-127 115l-126 -114l-51 55z" />
    <glyph glyph-name="Gbreve" unicode="&#x11e;" horiz-adv-x="836" 
d="M473 337h337v-82h-75q-21 -125 -107 -198t-228 -73q-84 0 -153 30.5t-113.5 81.5t-68.5 116.5t-24 137.5q0 96 42.5 178.5t126 135t190.5 52.5q115 0 198 -61t95 -150h-92q-15 56 -70 92.5t-131 36.5q-120 0 -193 -84t-73 -200q0 -119 73 -201.5t204 -82.5
q98 0 157.5 53.5t69.5 135.5h-165v82zM397 843q43 0 72 22t39 61h82q-12 -66 -65.5 -108.5t-127.5 -42.5q-75 0 -128.5 42.5t-65.5 108.5h82q21 -83 112 -83z" />
    <glyph glyph-name="gbreve" unicode="&#x11f;" horiz-adv-x="595" 
d="M279 388q-67 0 -109.5 -47t-42.5 -114t42.5 -113.5t109.5 -46.5q68 0 111 46.5t43 113.5t-43 114t-111 47zM519 -29q0 -227 -242 -227q-109 0 -167.5 57t-62.5 141h88q4 -53 39 -87t103 -34q156 0 156 150v108q-22 -42 -65 -66t-94 -24q-102 0 -167.5 70t-65.5 168
q0 99 65.5 169t167.5 70q51 0 94 -24t65 -66v78h86v-483zM279 617q42 0 70.5 22t38.5 61h82q-12 -66 -65 -108.5t-126 -42.5q-74 0 -126.5 42.5t-64.5 108.5h81q11 -39 39.5 -61t70.5 -22z" />
    <glyph glyph-name="Gdotaccent" unicode="&#x120;" horiz-adv-x="836" 
d="M473 337h337v-82h-75q-21 -125 -107 -198t-228 -73q-84 0 -153 30.5t-113.5 81.5t-68.5 116.5t-24 137.5q0 96 42.5 178.5t126 135t190.5 52.5q115 0 198 -61t95 -150h-92q-15 56 -70 92.5t-131 36.5q-120 0 -193 -84t-73 -200q0 -119 73 -201.5t204 -82.5
q98 0 157.5 53.5t69.5 135.5h-165v82zM330 851q0 29 20 49.5t49 20.5q30 0 50.5 -20.5t20.5 -49.5t-20.5 -49.5t-50.5 -20.5q-29 0 -49 20.5t-20 49.5z" />
    <glyph glyph-name="gdotaccent" unicode="&#x121;" horiz-adv-x="595" 
d="M279 388q-67 0 -109.5 -47t-42.5 -114t42.5 -113.5t109.5 -46.5q68 0 111 46.5t43 113.5t-43 114t-111 47zM519 -29q0 -227 -242 -227q-109 0 -167.5 57t-62.5 141h88q4 -53 39 -87t103 -34q156 0 156 150v108q-22 -42 -65 -66t-94 -24q-102 0 -167.5 70t-65.5 168
q0 99 65.5 169t167.5 70q51 0 94 -24t65 -66v78h86v-483zM199 609q0 29 20 49.5t49 20.5q30 0 50.5 -20.5t20.5 -49.5t-20.5 -49.5t-50.5 -20.5q-29 0 -49 20.5t-20 49.5z" />
    <glyph glyph-name="Gcommaaccent" unicode="&#x122;" horiz-adv-x="836" 
d="M473 337h337v-82h-75q-21 -125 -107 -198t-228 -73q-84 0 -153 30.5t-113.5 81.5t-68.5 116.5t-24 137.5q0 96 42.5 178.5t126 135t190.5 52.5q115 0 198 -61t95 -150h-92q-15 56 -70 92.5t-131 36.5q-120 0 -193 -84t-73 -200q0 -119 73 -201.5t204 -82.5
q98 0 157.5 53.5t69.5 135.5h-165v82zM343 -85q0 23 16.5 39.5t40.5 16.5q30 0 48.5 -23t18.5 -58q0 -119 -120 -119v36q43 0 58 23q10 15 12 35q-6 -6 -19 -6q-24 0 -39.5 16t-15.5 40z" />
    <glyph glyph-name="gcommaaccent" unicode="&#x123;" horiz-adv-x="595" 
d="M519 -29q0 -227 -242 -227q-109 0 -167.5 57t-62.5 141h88q4 -53 39 -87t103 -34q156 0 156 150v108q-22 -42 -65 -66t-94 -24q-102 0 -167.5 70t-65.5 168q0 99 65.5 169t167.5 70q51 0 94 -24t65 -66v78h86v-483zM279 67q68 0 111 46.5t43 113.5t-43 114t-111 47
q-67 0 -109.5 -47t-42.5 -114t42.5 -113.5t109.5 -46.5zM345 597q0 -28 -20 -48t-49 -20q-36 0 -58.5 27.5t-22.5 70.5q0 76 36.5 109.5t107.5 34.5v-42q-51 0 -69 -31q-13 -18 -15 -41q7 6 22 6q30 0 49 -19t19 -47z" />
    <glyph glyph-name="Hcircumflex" unicode="&#x124;" horiz-adv-x="664" 
d="M495 307h-326v-307h-91v700h91v-311h326v311h91v-700h-91v307zM332 957l178 -153l-50 -56l-128 114l-126 -114l-51 56z" />
    <glyph glyph-name="hcircumflex" unicode="&#x125;" horiz-adv-x="565" 
d="M78 700h87v-326q21 43 62 67.5t98 24.5q94 0 136 -60q35 -49 35 -138v-268h-87v241q0 148 -115 148q-62 0 -95.5 -45t-33.5 -110v-234h-87v700zM288 957l178 -153l-50 -56l-127 114l-126 -114l-52 56z" />
    <glyph glyph-name="Hbar" unicode="&#x126;" horiz-adv-x="664" 
d="M495 501h-326v-112h326v112zM169 700v-132h326v132h91v-700h-91v307h-326v-307h-91v700h91z" />
    <glyph glyph-name="hbar" unicode="&#x127;" horiz-adv-x="565" 
d="M331 536h-166v-162q21 43 62 67.5t98 24.5q94 0 136 -60q35 -49 35 -138v-268h-87v241q0 148 -115 148q-62 0 -95.5 -45t-33.5 -110v-234h-87v536h-78v59h78v105h87v-105h166v-59z" />
    <glyph glyph-name="Itilde" unicode="&#x128;" horiz-adv-x="250" 
d="M78 700h94v-700h-94v700zM190 862q38 0 62 49l64 -33q-23 -43 -56.5 -64t-68.5 -21q-38 0 -79.5 24.5t-57.5 24.5q-35 0 -61 -49l-60 40q43 78 121 78q37 0 78.5 -24.5t57.5 -24.5z" />
    <glyph glyph-name="itilde" unicode="&#x129;" horiz-adv-x="243" 
d="M78 454h87v-454h-87v454zM192 640q38 0 62 49l64 -33q-45 -84 -125 -84q-38 0 -79.5 24.5t-57.5 24.5q-21 0 -34 -12.5t-27 -36.5l-60 40q43 77 121 77q37 0 78.5 -24.5t57.5 -24.5z" />
    <glyph glyph-name="Imacron" unicode="&#x12a;" horiz-adv-x="250" 
d="M78 700h94v-700h-94v700zM305 802h-359v77h359v-77z" />
    <glyph glyph-name="imacron" unicode="&#x12b;" horiz-adv-x="243" 
d="M78 454h87v-454h-87v454zM298 570h-358v78h358v-78z" />
    <glyph glyph-name="Ibreve" unicode="&#x12c;" horiz-adv-x="250" 
d="M78 700h94v-700h-94v700zM126 843q88 0 112 83h81q-12 -66 -65.5 -108.5t-127.5 -42.5t-128 42.5t-66 108.5h82q24 -83 112 -83z" />
    <glyph glyph-name="ibreve" unicode="&#x12d;" horiz-adv-x="243" 
d="M78 454h87v-454h-87v454zM122 617q42 0 70.5 22t39.5 61h81q-12 -66 -65 -108.5t-126 -42.5t-126 42.5t-65 108.5h82q10 -39 38.5 -61t70.5 -22z" />
    <glyph glyph-name="Iogonek" unicode="&#x12e;" horiz-adv-x="250" 
d="M172 0h-14q-60 -43 -60 -87q0 -25 15.5 -42t42.5 -17q33 0 64 13v-64q-45 -15 -90 -15q-55 0 -85 27.5t-30 69.5q0 32 19 58.5t61 56.5h-17v700h94v-700z" />
    <glyph glyph-name="iogonek" unicode="&#x12f;" horiz-adv-x="243" 
d="M214 -197q-45 -15 -89 -15q-55 0 -85 27.5t-30 69.5q0 57 79 115h-11v454h87v-454h-12q-60 -43 -60 -87q0 -25 15.5 -42t42.5 -17q33 0 64 13zM52 626q0 29 20 50t49 21t50 -21t21 -50t-21 -49t-50 -20t-49 20t-20 49z" />
    <glyph glyph-name="Idot" unicode="&#x130;" horiz-adv-x="250" 
d="M78 700h94v-700h-94v700zM55 851q0 29 20.5 49.5t49.5 20.5t49.5 -20.5t20.5 -49.5t-20.5 -49.5t-49.5 -20.5t-49.5 20.5t-20.5 49.5z" />
    <glyph glyph-name="dotlessi" unicode="&#x131;" horiz-adv-x="230" 
d="M72 454h87v-454h-87v454z" />
    <glyph glyph-name="IJ" unicode="&#x132;" horiz-adv-x="786" 
d="M716 222q0 -105 -61 -171.5t-164 -66.5t-165 67t-62 171h92q0 -70 36.5 -113t98.5 -43q63 0 98 42t35 114v478h92v-478zM78 700h94v-700h-94v700z" />
    <glyph glyph-name="ij" unicode="&#x133;" horiz-adv-x="481" 
d="M78 454h87v-454h-87v454zM52 626q0 29 20 50t49 21t50 -21t21 -50t-21 -49t-50 -20t-49 20t-20 49zM403 -122q0 -69 -27.5 -101t-70.5 -32q-50 0 -79 12v73q24 -8 45 -8q45 0 45 61v571h87v-576zM290 626q0 29 20.5 50t49.5 21t49.5 -21t20.5 -50t-20.5 -49t-49.5 -20
t-49.5 20t-20.5 49z" />
    <glyph glyph-name="Jcircumflex" unicode="&#x134;" horiz-adv-x="536" 
d="M465 222q0 -105 -60.5 -171.5t-163.5 -66.5t-165 67t-62 171h91q0 -70 37 -113t99 -43t97.5 42t35.5 114v478h91v-478zM420 957l178 -153l-50 -56l-128 114l-126 -114l-51 56z" />
    <glyph glyph-name="jcircumflex" unicode="&#x135;" horiz-adv-x="243" 
d="M165 -122q0 -69 -27.5 -101t-70.5 -32q-50 0 -79 12v73q24 -8 44 -8q46 0 46 61v571h87v-576zM124 739l178 -154l-50 -56l-127 115l-127 -114l-51 55z" />
    <glyph glyph-name="Kcommaaccent" unicode="&#x136;" horiz-adv-x="590" 
d="M463 0l-294 318v-318h-91v700h91v-318l294 318h115l-320 -350l320 -350h-115zM243 -74q0 23 16.5 39.5t40.5 16.5q30 0 48.5 -23t18.5 -58q0 -63 -30.5 -90.5t-89.5 -28.5v36q44 0 58 23q12 17 12 35q-6 -6 -18 -6q-26 0 -41 16t-15 40z" />
    <glyph glyph-name="kcommaaccent" unicode="&#x137;" horiz-adv-x="477" 
d="M465 454l-207 -227l207 -227h-110l-190 206v-206h-87v700h87v-453l190 207h110zM182 -74q0 23 16.5 39.5t40.5 16.5q30 0 48.5 -23t18.5 -58q0 -63 -30.5 -90.5t-89.5 -28.5v36q44 0 58 23q12 17 12 35q-6 -6 -18 -6q-26 0 -41 16t-15 40z" />
    <glyph glyph-name="kgreenlandic" unicode="&#x138;" horiz-adv-x="477" 
d="M258 227l207 -227h-110l-190 206v-206h-87v454h87v-207l190 207h110z" />
    <glyph glyph-name="Lacute" unicode="&#x139;" horiz-adv-x="425" 
d="M398 82v-82h-320v700h91v-618h229zM48 749l-41 69l249 137l41 -69z" />
    <glyph glyph-name="lacute" unicode="&#x13a;" horiz-adv-x="243" 
d="M78 700h87v-700h-87v700zM18 751l-42 68l249 137l42 -68z" />
    <glyph glyph-name="Lcommaaccent" unicode="&#x13b;" horiz-adv-x="425" 
d="M78 700h91v-618h229v-82h-320v700zM162 -74q0 23 16.5 39.5t40.5 16.5q30 0 48.5 -23t18.5 -58q0 -119 -120 -119v35q42 0 58 24q12 17 12 35q-6 -6 -19 -6q-24 0 -39.5 16t-15.5 40z" />
    <glyph glyph-name="lcommaaccent" unicode="&#x13c;" horiz-adv-x="243" 
d="M78 700h87v-700h-87v700zM61 -74q0 23 16.5 39.5t40.5 16.5q30 0 49 -23t19 -58q0 -119 -120 -119v36q43 0 58 23q13 17 11 35q-6 -6 -18 -6q-26 0 -41 16t-15 40z" />
    <glyph glyph-name="Lcaron" unicode="&#x13d;" horiz-adv-x="425" 
d="M398 82v-82h-320v700h91v-618h229zM282 662q0 29 19.5 49t49.5 20q36 0 58 -27.5t22 -70.5q0 -76 -36.5 -109.5t-106.5 -34.5v42q51 0 69 31q14 19 14 41q-6 -6 -22 -6q-30 0 -48.5 18.5t-18.5 46.5z" />
    <glyph glyph-name="lcaron" unicode="&#x13e;" horiz-adv-x="368" 
d="M78 700h87v-700h-87v700zM218 662q0 29 20 49t49 20q36 0 58.5 -27.5t22.5 -70.5q0 -76 -36.5 -109.5t-107.5 -34.5v42q51 0 69 31q13 18 15 41q-8 -6 -22 -6q-30 0 -49 18.5t-19 46.5z" />
    <glyph glyph-name="Ldot" unicode="&#x13f;" horiz-adv-x="425" 
d="M398 82v-82h-320v700h91v-618h229zM262 391q0 29 20 50t49 21t50 -21t21 -50t-21 -49t-50 -20t-49 20t-20 49z" />
    <glyph glyph-name="ldot" unicode="&#x140;" horiz-adv-x="341" 
d="M78 700h87v-700h-87v700zM228 339q0 29 20.5 50t49.5 21t49.5 -21t20.5 -50t-20.5 -49t-49.5 -20t-49.5 20t-20.5 49z" />
    <glyph glyph-name="Lslash" unicode="&#x141;" horiz-adv-x="425" 
d="M398 82v-82h-320v269l-50 -23v74l50 23v357h91v-319l164 73v-73l-164 -74v-225h229z" />
    <glyph glyph-name="lslash" unicode="&#x142;" horiz-adv-x="243" 
d="M78 303l-76 -42v68l76 41v330h94v-280l81 43v-69l-81 -44v-350h-94v303z" />
    <glyph glyph-name="Nacute" unicode="&#x143;" horiz-adv-x="663" 
d="M494 159v541h91v-700h-101l-315 541v-541h-91v700h101zM230 749l-42 69l249 137l42 -69z" />
    <glyph glyph-name="nacute" unicode="&#x144;" horiz-adv-x="565" 
d="M78 454h87v-80q21 43 62 67.5t98 24.5q94 0 136 -60q35 -49 35 -138v-268h-87v241q0 148 -115 148q-62 0 -95.5 -45t-33.5 -110v-234h-87v454zM184 503l-41 68l249 137l41 -68z" />
    <glyph glyph-name="Ncommaaccent" unicode="&#x145;" horiz-adv-x="663" 
d="M484 0l-315 541v-541h-91v700h101l315 -541v541h91v-700h-101zM274 -74q0 23 16.5 39.5t40.5 16.5q30 0 48.5 -23t18.5 -58q0 -119 -120 -119v35q42 0 58 24q12 17 12 35q-6 -6 -19 -6q-24 0 -39.5 16t-15.5 40z" />
    <glyph glyph-name="ncommaaccent" unicode="&#x146;" horiz-adv-x="565" 
d="M78 0v454h87v-80q21 43 62 67.5t98 24.5q94 0 136 -60q35 -49 35 -138v-268h-87v241q0 148 -115 148q-62 0 -95.5 -45t-33.5 -110v-234h-87zM237 -74q0 23 16.5 39.5t40.5 16.5q30 0 48.5 -23t18.5 -58q0 -119 -120 -119v36q43 0 58 23q12 17 12 35q-6 -6 -19 -6
q-24 0 -39.5 16t-15.5 40z" />
    <glyph glyph-name="Ncaron" unicode="&#x147;" horiz-adv-x="663" 
d="M494 159v541h91v-700h-101l-315 541v-541h-91v700h101zM159 901l52 56l123 -114l125 114l50 -56l-176 -153z" />
    <glyph glyph-name="ncaron" unicode="&#x148;" horiz-adv-x="565" 
d="M78 0v454h87v-80q21 43 62 67.5t98 24.5q94 0 136 -60q35 -49 35 -138v-268h-87v241q0 148 -115 148q-62 0 -95.5 -45t-33.5 -110v-234h-87zM124 679l51 55l123 -113l125 114l51 -56l-176 -154z" />
    <glyph glyph-name="napostrophe" unicode="&#x149;" horiz-adv-x="565" 
d="M78 0v454h87v-80q21 43 62 67.5t98 24.5q94 0 136 -60q35 -49 35 -138v-268h-87v241q0 148 -115 148q-62 0 -95.5 -45t-33.5 -110v-234h-87zM-38 673q0 24 16.5 40.5t40.5 16.5q30 0 48.5 -23t18.5 -58q0 -63 -30.5 -91t-89.5 -29v36q41 0 58 23q12 17 12 35
q-5 -5 -19 -5q-24 0 -39.5 15.5t-15.5 39.5z" />
    <glyph glyph-name="Eng" unicode="&#x14a;" horiz-adv-x="663" 
d="M494 162v538h91v-718q0 -105 -61 -171.5t-164 -66.5q-106 0 -172 84l60 58q26 -30 51 -44.5t61 -14.5q63 0 98.5 41.5t35.5 113.5v17l-325 542v-541h-91v700h92z" />
    <glyph glyph-name="eng" unicode="&#x14b;" horiz-adv-x="565" 
d="M176 -126q50 -52 105 -52q60 0 94 40t34 109v270q0 148 -115 148q-62 0 -95.5 -45t-33.5 -110v-234h-87v454h87v-80q21 43 62 67.5t98 24.5q94 0 136 -60q35 -49 35 -138v-297q0 -100 -58 -163.5t-157 -63.5q-96 0 -161 75z" />
    <glyph glyph-name="Omacron" unicode="&#x14c;" horiz-adv-x="803" 
d="M402 -16q-108 0 -192 52.5t-126.5 135t-42.5 178.5t42.5 178.5t126.5 135t192 52.5t192 -52.5t126.5 -135t42.5 -178.5t-42.5 -178.5t-126.5 -135t-192 -52.5zM402 66q118 0 191.5 84.5t73.5 199.5q0 116 -73 200t-192 84t-192.5 -84t-73.5 -200q0 -115 74 -199.5
t192 -84.5zM581 802h-358v77h358v-77z" />
    <glyph glyph-name="omacron" unicode="&#x14d;" horiz-adv-x="560" 
d="M279 -11q-105 0 -171.5 69.5t-66.5 168.5q0 100 66.5 169.5t171.5 69.5q107 0 173.5 -69.5t66.5 -169.5q0 -99 -66.5 -168.5t-173.5 -69.5zM279 67q68 0 111 46.5t43 113.5t-43 114t-111 47q-67 0 -109.5 -47t-42.5 -114t42.5 -113.5t109.5 -46.5zM459 570h-358v78h358
v-78z" />
    <glyph glyph-name="Obreve" unicode="&#x14e;" horiz-adv-x="803" 
d="M402 -16q-108 0 -192 52.5t-126.5 135t-42.5 178.5t42.5 178.5t126.5 135t192 52.5t192 -52.5t126.5 -135t42.5 -178.5t-42.5 -178.5t-126.5 -135t-192 -52.5zM402 66q118 0 191.5 84.5t73.5 199.5q0 116 -73 200t-192 84t-192.5 -84t-73.5 -200q0 -115 74 -199.5
t192 -84.5zM402 843q43 0 72 22t39 61h82q-12 -66 -65.5 -108.5t-127.5 -42.5q-75 0 -128.5 42.5t-65.5 108.5h82q21 -83 112 -83z" />
    <glyph glyph-name="obreve" unicode="&#x14f;" horiz-adv-x="560" 
d="M279 -11q-105 0 -171.5 69.5t-66.5 168.5q0 100 66.5 169.5t171.5 69.5q107 0 173.5 -69.5t66.5 -169.5q0 -99 -66.5 -168.5t-173.5 -69.5zM279 67q68 0 111 46.5t43 113.5t-43 114t-111 47q-67 0 -109.5 -47t-42.5 -114t42.5 -113.5t109.5 -46.5zM279 617q42 0 70.5 22
t38.5 61h82q-12 -66 -65 -108.5t-126 -42.5q-74 0 -126.5 42.5t-64.5 108.5h81q11 -39 39.5 -61t70.5 -22z" />
    <glyph glyph-name="Ohungarumlaut" unicode="&#x150;" horiz-adv-x="803" 
d="M402 -16q-108 0 -192 52.5t-126.5 135t-42.5 178.5t42.5 178.5t126.5 135t192 52.5t192 -52.5t126.5 -135t42.5 -178.5t-42.5 -178.5t-126.5 -135t-192 -52.5zM402 66q118 0 191.5 84.5t73.5 199.5q0 116 -73 200t-192 84t-192.5 -84t-73.5 -200q0 -115 74 -199.5
t192 -84.5zM554 958l76 -38l-158 -151l-43 23zM359 958l76 -38l-158 -151l-43 23z" />
    <glyph glyph-name="ohungarumlaut" unicode="&#x151;" horiz-adv-x="560" 
d="M279 -11q-105 0 -171.5 69.5t-66.5 168.5q0 100 66.5 169.5t171.5 69.5q107 0 173.5 -69.5t66.5 -169.5q0 -99 -66.5 -168.5t-173.5 -69.5zM279 67q68 0 111 46.5t43 113.5t-43 114t-111 47q-67 0 -109.5 -47t-42.5 -114t42.5 -113.5t109.5 -46.5zM245 721l77 -39
l-158 -151l-44 24zM359 531l-44 24l125 166l77 -39z" />
    <glyph glyph-name="OE" unicode="&#x152;" horiz-adv-x="1133" 
d="M759 618v-229h301v-82h-301v-225h301v-82h-392v110q-96 -128 -266 -128q-108 0 -192 52.5t-126.5 135.5t-42.5 179t42.5 178.5t126.5 135t192 52.5q170 0 266 -128v113h392v-82h-301zM402 65q119 0 192 84t73 200q0 115 -73 199t-192 84t-192.5 -84t-73.5 -199
q0 -116 73.5 -200t192.5 -84z" />
    <glyph glyph-name="oe" unicode="&#x153;" horiz-adv-x="914" 
d="M521 204q0 -63 35 -102.5t103 -39.5q87 0 115 72h88q-13 -61 -67.5 -103t-135.5 -42q-127 0 -186 99q-64 -99 -194 -99q-105 0 -171.5 69.5t-66.5 168.5q0 100 66.5 169.5t171.5 69.5q127 0 193 -99q58 99 184 99q88 0 149.5 -59t61.5 -146q0 -32 -4 -57h-342zM654 392
q-58 0 -94 -32.5t-38 -89.5h260q0 55 -36 88.5t-92 33.5zM279 67q68 0 111 46t43 114t-43 114.5t-111 46.5q-67 0 -109.5 -47t-42.5 -114t42.5 -113.5t109.5 -46.5z" />
    <glyph glyph-name="Racute" unicode="&#x154;" horiz-adv-x="606" 
d="M78 700h246q107 0 173.5 -69.5t66.5 -168.5q0 -77 -42 -138.5t-113 -85.5l147 -238h-104l-139 223h-144v-223h-91v700zM324 306q67 0 108 45t41 111q0 65 -41.5 110.5t-107.5 45.5h-155v-312h155zM199 749l-41 69l249 137l41 -69z" />
    <glyph glyph-name="racute" unicode="&#x155;" horiz-adv-x="365" 
d="M359 374q-24 5 -43 5q-74 0 -112.5 -48t-38.5 -132v-199h-87v454h87v-89q18 42 60.5 69t90.5 27q28 0 43 -7v-80zM88 518l-42 68l249 137l42 -68z" />
    <glyph glyph-name="Rcommaaccent" unicode="&#x156;" horiz-adv-x="606" 
d="M78 700h246q107 0 173.5 -69.5t66.5 -168.5q0 -77 -42 -138.5t-113 -85.5l147 -238h-104l-139 223h-144v-223h-91v700zM169 618v-312h155q67 0 108 45t41 111q0 65 -41.5 110.5t-107.5 45.5h-155zM243 -74q0 23 16.5 39.5t40.5 16.5q30 0 48.5 -23t18.5 -58
q0 -119 -120 -119v35q66 0 72 51q0 6 -2 8q-6 -6 -19 -6q-24 0 -39.5 16t-15.5 40z" />
    <glyph glyph-name="rcommaaccent" unicode="&#x157;" horiz-adv-x="365" 
d="M359 374q-24 5 -43 5q-74 0 -112.5 -48t-38.5 -132v-199h-87v454h87v-89q18 42 60.5 69t90.5 27q28 0 43 -7v-80zM61 -74q0 23 16.5 39.5t40.5 16.5q30 0 49 -23t19 -58q0 -119 -120 -119v36q43 0 58 23q13 17 11 35q-6 -6 -18 -6q-26 0 -41 16t-15 40z" />
    <glyph glyph-name="Rcaron" unicode="&#x158;" horiz-adv-x="606" 
d="M78 700h246q107 0 173.5 -69.5t66.5 -168.5q0 -77 -42 -138.5t-113 -85.5l147 -238h-104l-139 223h-144v-223h-91v700zM324 306q67 0 108 45t41 111q0 65 -41.5 110.5t-107.5 45.5h-155v-312h155zM112 901l51 56l123 -114l125 114l51 -56l-176 -153z" />
    <glyph glyph-name="rcaron" unicode="&#x159;" horiz-adv-x="365" 
d="M359 374q-24 5 -43 5q-74 0 -112.5 -48t-38.5 -132v-199h-87v454h87v-89q18 42 60.5 69t90.5 27q28 0 43 -7v-80zM33 679l51 55l124 -113l124 114l51 -56l-176 -154z" />
    <glyph glyph-name="Sacute" unicode="&#x15a;" horiz-adv-x="571" 
d="M136 223q0 -72 43 -114.5t115 -42.5q62 0 100.5 32.5t38.5 86.5q0 30 -11 52t-34 36.5t-40 21.5t-48 17q-48 15 -73.5 24.5t-60.5 28t-52.5 38.5t-30.5 52.5t-13 73.5q0 83 61.5 135t156.5 52t157.5 -59.5t62.5 -154.5h-91q-1 61 -34.5 96.5t-92.5 35.5
q-58 0 -93.5 -28.5t-35.5 -76.5q0 -52 34 -77.5t96 -43.5q42 -14 67 -23t60.5 -28t55.5 -39t35 -52t15 -71q0 -99 -67 -155t-170 -56q-104 0 -173 65t-69 174h91zM184 749l-41 69l249 137l41 -69z" />
    <glyph glyph-name="sacute" unicode="&#x15b;" horiz-adv-x="452" 
d="M270 253q33 -10 51.5 -17.5t41 -22t33 -36.5t10.5 -52q0 -66 -49.5 -101t-128.5 -35q-80 0 -134 42.5t-54 121.5h85q0 -95 107 -95q91 0 91 65q0 12 -5 22t-12 16t-22 12.5t-27.5 10.5t-37 12t-41.5 14q-63 19 -93 44t-30 81q0 62 48 96.5t121 34.5q75 0 125 -43t50 -110
h-84q0 40 -23.5 61.5t-68.5 21.5q-37 0 -60.5 -16.5t-23.5 -46.5q0 -33 43 -51q13 -6 88 -29zM122 503l-41 68l249 137l41 -68z" />
    <glyph glyph-name="Scircumflex" unicode="&#x15c;" horiz-adv-x="571" 
d="M136 223q0 -72 43 -114.5t115 -42.5q62 0 100.5 32.5t38.5 86.5q0 30 -11 52t-34 36.5t-40 21.5t-48 17q-48 15 -73.5 24.5t-60.5 28t-52.5 38.5t-30.5 52.5t-13 73.5q0 83 61.5 135t156.5 52t157.5 -59.5t62.5 -154.5h-91q-1 61 -34.5 96.5t-92.5 35.5
q-58 0 -93.5 -28.5t-35.5 -76.5q0 -52 34 -77.5t96 -43.5q42 -14 67 -23t60.5 -28t55.5 -39t35 -52t15 -71q0 -99 -67 -155t-170 -56q-104 0 -173 65t-69 174h91zM288 957l178 -153l-50 -56l-127 114l-127 -114l-51 56z" />
    <glyph glyph-name="scircumflex" unicode="&#x15d;" horiz-adv-x="452" 
d="M270 253q33 -10 51.5 -17.5t41 -22t33 -36.5t10.5 -52q0 -66 -49.5 -101t-128.5 -35q-80 0 -134 42.5t-54 121.5h85q0 -95 107 -95q91 0 91 65q0 12 -5 22t-12 16t-22 12.5t-27.5 10.5t-37 12t-41.5 14q-63 19 -93 44t-30 81q0 62 48 96.5t121 34.5q75 0 125 -43t50 -110
h-84q0 40 -23.5 61.5t-68.5 21.5q-37 0 -60.5 -16.5t-23.5 -46.5q0 -33 43 -51q13 -6 88 -29zM225 739l179 -154l-51 -56l-127 115l-126 -114l-51 55z" />
    <glyph glyph-name="Scedilla" unicode="&#x15e;" horiz-adv-x="571" 
d="M253 -14q-92 10 -150 73.5t-58 163.5h91q0 -72 43 -114.5t115 -42.5q62 0 100.5 32.5t38.5 86.5q0 31 -11.5 53.5t-35 37t-41.5 21.5t-49 16q-40 13 -60.5 20.5t-52 21.5t-47.5 28t-33.5 35t-25 48.5t-7.5 62.5q0 83 61.5 135t156.5 52t157.5 -59.5t62.5 -154.5h-91
q-1 61 -34.5 96.5t-92.5 35.5q-58 0 -93.5 -28.5t-35.5 -76.5q0 -52 34 -77.5t96 -43.5q109 -39 148 -63q85 -55 85 -150q0 -93 -58.5 -147t-154.5 -63v-56q14 20 43 20q33 0 58 -24t25 -63q0 -38 -26.5 -67t-73.5 -29q-28 0 -60.5 20t-37.5 67h53q7 -40 45 -40
q21 0 34 13.5t13 35.5q0 20 -13 32.5t-33 12.5q-25 0 -39 -25h-46v104z" />
    <glyph glyph-name="scedilla" unicode="&#x15f;" horiz-adv-x="452" 
d="M190 -8q-66 9 -108 50.5t-42 110.5h85q0 -95 107 -95q91 0 91 65q0 15 -5.5 25.5t-20.5 19t-28 13t-42.5 13.5t-49.5 16q-62 19 -92 44.5t-30 80.5q0 62 48 96.5t121 34.5q75 0 125 -43t50 -110h-84q0 40 -23.5 61.5t-68.5 21.5q-37 0 -60.5 -16.5t-23.5 -46.5
q0 -10 2.5 -17.5t9.5 -14t14 -11t21 -9.5t24 -8.5t30 -9.5t33 -10q33 -11 51 -18.5t40 -22t32 -36t10 -51.5q0 -62 -43 -96.5t-116 -38.5v-61q14 20 44 20q32 0 57 -24.5t25 -62.5q0 -39 -26 -67.5t-74 -28.5q-28 0 -60.5 20t-37.5 67h53q8 -40 45 -40q21 0 34 13.5t13 35.5
q0 20 -13 32.5t-33 12.5q-25 0 -39 -25h-45v110z" />
    <glyph glyph-name="Scaron" unicode="&#x160;" horiz-adv-x="571" 
d="M136 223q0 -72 43 -114.5t115 -42.5q62 0 100.5 32.5t38.5 86.5q0 30 -11 52t-34 36.5t-40 21.5t-48 17q-48 15 -73.5 24.5t-60.5 28t-52.5 38.5t-30.5 52.5t-13 73.5q0 82 63 134.5t157 52.5q95 0 156.5 -59.5t61.5 -154.5h-91q-1 61 -34.5 96.5t-92.5 35.5
q-58 0 -93.5 -28.5t-35.5 -76.5q0 -52 34 -77.5t96 -43.5q42 -14 67 -23t60.5 -28t55.5 -39t35 -52t15 -71q0 -99 -67 -155t-170 -56q-104 0 -173 65t-69 174h91zM117 904l51 55l124 -113l124 114l51 -56l-176 -153z" />
    <glyph glyph-name="scaron" unicode="&#x161;" horiz-adv-x="452" 
d="M270 253q33 -10 51.5 -17.5t41 -22t33 -36.5t10.5 -52q0 -66 -49.5 -101t-128.5 -35q-80 0 -134 42.5t-54 121.5h85q0 -95 107 -95q91 0 91 65q0 12 -5 22t-12 16t-22 12.5t-27.5 10.5t-37 12t-41.5 14q-63 19 -93 44t-30 81q0 62 48 96.5t121 34.5q75 0 125 -43t50 -110
h-84q0 40 -23.5 61.5t-68.5 21.5q-37 0 -60.5 -16.5t-23.5 -46.5q0 -33 43 -51q13 -6 88 -29zM51 677l51 55l124 -113l125 114l50 -56l-176 -153z" />
    <glyph glyph-name="Tcommaaccent" unicode="&#x162;" horiz-adv-x="478" 
d="M193 618h-181v82h454v-82h-182v-618h-91v618zM182 -74q0 23 16 39.5t40 16.5q30 0 49 -22.5t19 -58.5q0 -119 -120 -119v35q66 0 72 51q0 6 -2 8q-8 -6 -19 -6q-24 0 -39.5 16t-15.5 40z" />
    <glyph glyph-name="tcommaaccent" unicode="&#x163;" horiz-adv-x="340" 
d="M20 454h84v153h87v-153h118v-73h-118v-209q0 -61 18.5 -80t56.5 -19q42 0 59 4v-77q-34 -6 -78 -6q-21 0 -37 2t-37 11t-35 25.5t-24 47t-10 73.5v228h-84v73zM144 -74q0 23 16.5 39.5t40.5 16.5q30 0 48.5 -23t18.5 -58q0 -119 -120 -119v36q43 0 58 23q12 17 12 35
q-6 -6 -19 -6q-24 0 -39.5 16t-15.5 40z" />
    <glyph glyph-name="Tcaron" unicode="&#x164;" horiz-adv-x="478" 
d="M193 618h-181v82h454v-82h-182v-618h-91v618zM65 901l51 56l123 -114l125 114l51 -56l-176 -153z" />
    <glyph glyph-name="tcaron" unicode="&#x165;" horiz-adv-x="500" 
d="M20 454h84v153h87v-153h118v-73h-118v-209q0 -61 18.5 -80t56.5 -19q42 0 59 4v-77q-34 -6 -78 -6q-21 0 -37 2t-37 11t-35 25.5t-24 47t-10 73.5v228h-84v73zM297 645q0 29 19.5 48.5t49.5 19.5q36 0 58 -27t22 -70q0 -76 -36.5 -109.5t-106.5 -34.5v42q53 0 69 30
q14 20 14 42q-5 -7 -22 -7q-30 0 -48.5 19t-18.5 47z" />
    <glyph glyph-name="Tbar" unicode="&#x166;" horiz-adv-x="478" 
d="M419 423h-135v-423h-91v423h-132v66h132v129h-181v82h454v-82h-182v-129h135v-66z" />
    <glyph glyph-name="tbar" unicode="&#x167;" horiz-adv-x="340" 
d="M325 0q-34 -6 -78 -6q-21 0 -37 2t-37 11t-35 25.5t-24 47t-10 73.5v64h-84v59h84v105h-84v73h84v153h87v-153h118v-73h-118v-105h97v-59h-97v-45q0 -61 18.5 -80t56.5 -19q42 0 59 4v-77z" />
    <glyph glyph-name="Utilde" unicode="&#x168;" horiz-adv-x="629" 
d="M71 700h91v-473q0 -67 42 -114t109 -47q68 0 111 47t43 114v473h91v-473q0 -102 -67.5 -172.5t-177.5 -70.5q-107 0 -174.5 70.5t-67.5 172.5v473zM383 862q38 0 62 49l63 -33q-44 -85 -124 -85q-38 0 -79.5 24.5t-57.5 24.5q-35 0 -61 -49l-60 40q43 78 121 78
q37 0 78.5 -24.5t57.5 -24.5z" />
    <glyph glyph-name="utilde" unicode="&#x169;" horiz-adv-x="565" 
d="M487 0h-87v81q-21 -43 -62.5 -67.5t-97.5 -24.5q-94 0 -137 59q-34 48 -34 138v268h87v-240q0 -148 114 -148q63 0 96.5 44.5t33.5 110.5v233h87v-454zM346 640q38 0 62 49l64 -33q-45 -84 -125 -84q-38 0 -79.5 24.5t-57.5 24.5q-21 0 -34 -12.5t-27 -36.5l-60 40
q43 77 121 77q37 0 78.5 -24.5t57.5 -24.5z" />
    <glyph glyph-name="Umacron" unicode="&#x16a;" horiz-adv-x="629" 
d="M71 700h91v-473q0 -67 42 -114t109 -47q68 0 111 47t43 114v473h91v-473q0 -102 -67.5 -172.5t-177.5 -70.5q-107 0 -174.5 70.5t-67.5 172.5v473zM493 802h-358v77h358v-77z" />
    <glyph glyph-name="umacron" unicode="&#x16b;" horiz-adv-x="565" 
d="M487 0h-87v81q-21 -43 -62.5 -67.5t-97.5 -24.5q-94 0 -137 59q-34 48 -34 138v268h87v-240q0 -148 114 -148q63 0 96.5 44.5t33.5 110.5v233h87v-454zM461 570h-358v78h358v-78z" />
    <glyph glyph-name="Ubreve" unicode="&#x16c;" horiz-adv-x="629" 
d="M71 700h91v-473q0 -67 42 -114t109 -47q68 0 111 47t43 114v473h91v-473q0 -102 -67.5 -172.5t-177.5 -70.5q-107 0 -174.5 70.5t-67.5 172.5v473zM311 843q88 0 112 83h81q-12 -66 -65.5 -108.5t-127.5 -42.5t-128 42.5t-66 108.5h82q24 -83 112 -83z" />
    <glyph glyph-name="ubreve" unicode="&#x16d;" horiz-adv-x="565" 
d="M487 0h-87v81q-21 -43 -62.5 -67.5t-97.5 -24.5q-94 0 -137 59q-34 48 -34 138v268h87v-240q0 -148 114 -148q63 0 96.5 44.5t33.5 110.5v233h87v-454zM279 617q42 0 70.5 22t38.5 61h82q-12 -66 -65.5 -108.5t-125.5 -42.5q-74 0 -126.5 42.5t-64.5 108.5h81
q11 -39 39.5 -61t70.5 -22z" />
    <glyph glyph-name="Uring" unicode="&#x16e;" horiz-adv-x="629" 
d="M71 700h91v-473q0 -67 42 -114t109 -47q68 0 111 47t43 114v473h91v-473q0 -102 -67.5 -172.5t-177.5 -70.5q-107 0 -174.5 70.5t-67.5 172.5v473zM314 976q51 0 87 -36.5t36 -86.5t-36 -86.5t-87 -36.5t-87 36.5t-36 86.5q0 51 36 87t87 36zM314 920q-28 0 -47 -19.5
t-19 -47.5q0 -27 19.5 -46t46.5 -19q28 0 47.5 19t19.5 47q0 27 -19 46.5t-48 19.5z" />
    <glyph glyph-name="uring" unicode="&#x16f;" horiz-adv-x="565" 
d="M487 0h-87v81q-21 -43 -62.5 -67.5t-97.5 -24.5q-94 0 -137 59q-34 48 -34 138v268h87v-240q0 -148 114 -148q63 0 96.5 44.5t33.5 110.5v233h87v-454zM278 758q53 0 90.5 -37.5t37.5 -89.5t-37.5 -89.5t-90.5 -37.5q-52 0 -89.5 37.5t-37.5 89.5q0 53 37 90t90 37z
M278 705q-30 0 -50.5 -22t-20.5 -52t20.5 -51t50.5 -21t51 21.5t21 51.5t-21 51.5t-51 21.5z" />
    <glyph glyph-name="Uhungarumlaut" unicode="&#x170;" horiz-adv-x="629" 
d="M71 700h91v-473q0 -67 42 -114t109 -47q68 0 111 47t43 114v473h91v-473q0 -102 -67.5 -172.5t-177.5 -70.5q-107 0 -174.5 70.5t-67.5 172.5v473zM475 958l77 -38l-158 -151l-44 23zM280 958l77 -38l-158 -151l-44 23z" />
    <glyph glyph-name="uhungarumlaut" unicode="&#x171;" horiz-adv-x="565" 
d="M487 454v-454h-87v81q-21 -43 -62.5 -67.5t-97.5 -24.5q-94 0 -137 59q-34 48 -34 138v268h87v-240q0 -148 114 -148q63 0 96.5 44.5t33.5 110.5v233h87zM158 514l-44 23l125 166l77 -38zM353 514l-44 23l125 166l77 -38z" />
    <glyph glyph-name="Uogonek" unicode="&#x172;" horiz-adv-x="629" 
d="M418 -197q-45 -15 -89 -15q-55 0 -85 27.5t-30 69.5q0 54 62 102q-92 12 -148.5 80.5t-56.5 159.5v473h91v-473q0 -67 42 -114t109 -47q68 0 111 47t43 114v473h91v-473q0 -95 -61 -164.5t-160 -77.5q-40 -32 -40 -72q0 -25 15 -42t43 -17q32 0 64 13z" />
    <glyph glyph-name="uogonek" unicode="&#x173;" horiz-adv-x="565" 
d="M240 -11q-94 0 -137 59q-34 48 -34 138v268h87v-240q0 -148 114 -148q63 0 96.5 44.5t33.5 110.5v233h87v-454h-21q-79 -42 -79 -95q0 -22 14 -36.5t38 -14.5q30 0 60 11v-63q-42 -14 -86 -14q-56 0 -86 26.5t-30 70.5q0 33 25 61t78 58v77q-21 -43 -62.5 -67.5
t-97.5 -24.5z" />
    <glyph glyph-name="Wcircumflex" unicode="&#x174;" horiz-adv-x="964" 
d="M482 542l-169 -542h-68l-239 700h96l176 -542l170 542h69l170 -542l176 542h96l-240 -700h-67zM483 957l178 -153l-50 -56l-127 114l-127 -114l-51 56z" />
    <glyph glyph-name="wcircumflex" unicode="&#x175;" horiz-adv-x="734" 
d="M367 359l-127 -359h-60l-176 454h93l113 -320l114 320h86l113 -320l114 320h93l-176 -454h-60zM369 739l178 -154l-50 -56l-128 115l-126 -114l-51 55z" />
    <glyph glyph-name="Ycircumflex" unicode="&#x176;" horiz-adv-x="591" 
d="M234 0h-100l140 278l-264 422h106l205 -327l165 327h100zM310 957l179 -153l-51 -56l-127 114l-126 -114l-51 56z" />
    <glyph glyph-name="ycircumflex" unicode="&#x177;" horiz-adv-x="573" 
d="M282 -256q-99 0 -154.5 50t-57.5 147h88q7 -123 126 -123q62 0 94.5 30.5t32.5 104.5v128q-44 -92 -159 -92q-94 0 -138 58q-34 48 -34 142v265h87v-238q0 -72 26 -111t90 -39q62 0 95 44.5t33 110.5v233h87v-501q0 -209 -216 -209zM288 739l178 -154l-50 -56l-127 115
l-127 -114l-51 55z" />
    <glyph glyph-name="Ydieresis" unicode="&#x178;" horiz-adv-x="591" 
d="M234 0h-100l140 278l-264 422h106l205 -327l165 327h100zM364 843q0 29 19.5 48.5t47.5 19.5q29 0 48 -19.5t19 -48.5q0 -28 -19 -47t-48 -19q-28 0 -47.5 19t-19.5 47zM135 843q0 29 19 48.5t47 19.5q29 0 48.5 -19.5t19.5 -48.5q0 -28 -19.5 -47t-48.5 -19
q-28 0 -47 19t-19 47z" />
    <glyph glyph-name="Zacute" unicode="&#x179;" horiz-adv-x="565" 
d="M35 700h521l-389 -618h392v-82h-545l389 618h-368v82zM185 751l-42 69l249 137l42 -69z" />
    <glyph glyph-name="zacute" unicode="&#x17a;" horiz-adv-x="434" 
d="M414 454l-243 -376h244v-78h-391l243 377h-235v77h382zM114 502l-42 68l249 137l42 -68z" />
    <glyph glyph-name="Zdotaccent" unicode="&#x17b;" horiz-adv-x="565" 
d="M35 700h521l-389 -618h392v-82h-545l389 618h-368v82zM214 851q0 29 20 49.5t49 20.5t50 -20.5t21 -49.5t-21 -49.5t-50 -20.5t-49 20.5t-20 49.5z" />
    <glyph glyph-name="zdotaccent" unicode="&#x17c;" horiz-adv-x="434" 
d="M414 454l-243 -376h244v-78h-391l243 377h-235v77h382zM148 609q0 29 20 49.5t49 20.5t50 -20.5t21 -49.5t-21 -49.5t-50 -20.5t-49 20.5t-20 49.5z" />
    <glyph glyph-name="Zcaron" unicode="&#x17d;" horiz-adv-x="565" 
d="M119 901l51 56l123 -114l125 114l51 -56l-176 -153zM35 700h521l-389 -618h392v-82h-545l389 618h-368v82z" />
    <glyph glyph-name="zcaron" unicode="&#x17e;" horiz-adv-x="434" 
d="M50 673l51 56l124 -114l125 115l50 -57l-176 -153zM414 454l-243 -376h244v-78h-391l243 377h-235v77h382z" />
    <glyph glyph-name="longs" unicode="&#x17f;" horiz-adv-x="347" 
d="M336 620q-26 8 -51 8q-17 0 -28.5 -2t-24.5 -10t-19.5 -26.5t-6.5 -47.5v-542h-87v381h-98v73h98v79q0 58 15.5 95.5t43 53t48.5 20t48 4.5q40 0 62 -12v-74z" />
    <glyph glyph-name="florin" unicode="&#x192;" horiz-adv-x="426" 
d="M-50 -123q24 -8 50 -8q23 0 37 4t31 24t27 58l75 426h-98l13 73h97l14 79q8 47 25.5 81t36 51t44 27t42 12t37.5 2q39 0 61 -12l-13 -74q-24 8 -50 8q-24 0 -39 -3.5t-32 -24t-24 -58.5l-15 -88h131l-13 -73h-131l-73 -417q-8 -47 -25.5 -81t-36 -51t-44 -27t-42 -12
t-37.5 -2q-39 0 -61 12z" />
    <glyph glyph-name="Aringacute" unicode="&#x1fa;" horiz-adv-x="559" 
d="M346 753q0 -38 -32 -57l240 -696h-96l-37 107h-284l-36 -107h-96l239 694q-35 18 -35 59q0 28 20 48t49 20q28 0 48 -20t20 -48zM165 190h228l-113 361zM278 784q-13 0 -22 -9.5t-9 -21.5t8.5 -21t22.5 -9q13 0 21.5 9t8.5 21t-9 21.5t-21 9.5zM157 785l-27 44l249 137
l27 -44z" />
    <glyph glyph-name="aringacute" unicode="&#x1fb;" horiz-adv-x="597" 
d="M433 454h86v-454h-86v79q-22 -42 -65 -66t-94 -24q-102 0 -167.5 70t-65.5 168q0 99 65.5 169t167.5 70q51 0 94 -24t65 -66v78zM279 388q-67 0 -109.5 -47t-42.5 -114t42.5 -113.5t109.5 -46.5q68 0 111 46.5t43 113.5q-2 69 -45 115t-109 46zM329 609q0 24 -16 40.5
t-40 16.5t-40.5 -17t-16.5 -41q0 -23 16.5 -39.5t40.5 -16.5q23 0 39.5 17t16.5 40zM170 608q0 43 30 73t73 30t73 -30.5t30 -72.5t-30 -72t-73 -30t-73 30t-30 72zM120 780l249 137l41 -69l-249 -137z" />
    <glyph glyph-name="AEacute" unicode="&#x1fc;" horiz-adv-x="865" 
d="M487 618v-229h301v-82h-301v-225h301v-82h-393v108h-241l-52 -108h-100l345 700h441v-82h-301zM395 190v418l-202 -418h202zM402 749l-42 69l249 137l42 -69z" />
    <glyph glyph-name="aeacute" unicode="&#x1fd;" horiz-adv-x="914" 
d="M519 454v-40q54 52 137 52q88 0 149.5 -59t61.5 -146q0 -32 -4 -57h-342q0 -63 35 -102.5t103 -39.5q87 0 115 72h88q-13 -61 -67.5 -103t-135.5 -42q-86 0 -140 52v-41h-86v79q-22 -42 -65 -66t-94 -24q-102 0 -167.5 70t-65.5 168q0 99 65.5 169t167.5 70q51 0 94 -24
t65 -66v78h86zM654 392q-58 0 -94 -32.5t-38 -89.5h260q0 54 -36.5 88t-91.5 34zM279 67q68 0 111 46.5t43 113.5q0 68 -43 114.5t-111 46.5q-67 0 -109.5 -47t-42.5 -114t42.5 -113.5t109.5 -46.5zM353 490l-41 68l249 137l41 -68z" />
    <glyph glyph-name="Oslashacute" unicode="&#x1fe;" horiz-adv-x="803" 
d="M402 -16q-66 0 -118 18l-37 -86l-62 27l37 86q-86 47 -133.5 133.5t-47.5 187.5q0 96 42.5 178.5t126.5 135t192 52.5q60 0 107 -16l35 80l61 -27l-33 -78q89 -45 140 -134t51 -191q0 -96 -42.5 -178.5t-126.5 -135t-192 -52.5zM136 350q0 -73 32 -137t89 -103l220 513
q-38 11 -75 11q-119 0 -192.5 -84t-73.5 -200zM667 350q0 76 -34.5 141.5t-95.5 103.5l-220 -515q40 -14 85 -14q118 0 191.5 84.5t73.5 199.5zM297 749l-41 68l249 137l41 -68z" />
    <glyph glyph-name="oslashacute" unicode="&#x1ff;" horiz-adv-x="560" 
d="M396 438q58 -31 90.5 -87t32.5 -124q0 -99 -66.5 -168.5t-173.5 -69.5q-41 0 -73 11l-32 -75l-54 22l32 76q-53 32 -82 86t-29 118q0 100 66.5 169.5t171.5 69.5q22 0 62 -8l31 71l54 -22zM279 67q68 0 111 46.5t43 113.5q0 89 -70 135l-125 -290q16 -5 41 -5zM127 227
q0 -78 58 -128l124 285q-15 4 -30 4q-67 0 -109.5 -47t-42.5 -114zM176 503l-42 68l249 137l42 -68z" />
    <glyph glyph-name="Scommaaccent" unicode="&#x218;" horiz-adv-x="571" 
d="M136 223q0 -72 43 -114.5t115 -42.5q62 0 100.5 32.5t38.5 86.5q0 30 -11 52t-34 36.5t-40 21.5t-48 17q-48 15 -73.5 24.5t-60.5 28t-52.5 38.5t-30.5 52.5t-13 73.5q0 83 61.5 135t156.5 52t157.5 -59.5t62.5 -154.5h-91q-1 61 -34.5 96.5t-92.5 35.5
q-58 0 -93.5 -28.5t-35.5 -76.5q0 -52 34 -77.5t96 -43.5q42 -14 67 -23t60.5 -28t55.5 -39t35 -52t15 -71q0 -99 -67 -155t-170 -56q-104 0 -173 65t-69 174h91zM231 -85q0 23 16.5 39.5t40.5 16.5q30 0 48.5 -23t18.5 -58q0 -119 -120 -119v36q66 0 72 50q0 6 -2 8
q-6 -6 -19 -6q-24 0 -39.5 16t-15.5 40z" />
    <glyph glyph-name="scommaaccent" unicode="&#x219;" horiz-adv-x="452" 
d="M172 -73q0 24 16 40.5t40 16.5q30 0 49 -22.5t19 -58.5q0 -118 -120 -120v36q43 0 58 24q12 17 12 35q-8 -6 -19 -6q-24 0 -39.5 15.5t-15.5 39.5zM125 153q0 -95 107 -95q91 0 91 65q0 12 -5 22t-12 16t-22 12.5t-27.5 10.5t-37 12t-41.5 14q-63 19 -93 44t-30 81
q0 62 48 96.5t121 34.5q75 0 125 -43t50 -110h-84q0 40 -23.5 61.5t-68.5 21.5q-37 0 -60.5 -16.5t-23.5 -46.5q0 -33 43 -51q13 -6 88 -29q33 -10 51.5 -17.5t41 -22t33 -36.5t10.5 -52q0 -66 -49.5 -101t-128.5 -35q-80 0 -134 42.5t-54 121.5h85z" />
    <glyph glyph-name="uni021A" unicode="&#x21a;" horiz-adv-x="478" 
d="M193 618h-181v82h454v-82h-182v-618h-91v618zM182 -74q0 23 16 39.5t40 16.5q30 0 49 -22.5t19 -58.5q0 -119 -120 -119v35q66 0 72 51q0 6 -2 8q-8 -6 -19 -6q-24 0 -39.5 16t-15.5 40z" />
    <glyph glyph-name="uni021B" unicode="&#x21b;" horiz-adv-x="340" 
d="M20 454h84v153h87v-153h118v-73h-118v-209q0 -61 18.5 -80t56.5 -19q42 0 59 4v-77q-34 -6 -78 -6q-21 0 -37 2t-37 11t-35 25.5t-24 47t-10 73.5v228h-84v73zM144 -74q0 23 16.5 39.5t40.5 16.5q30 0 48.5 -23t18.5 -58q0 -119 -120 -119v36q43 0 58 23q12 17 12 35
q-6 -6 -19 -6q-24 0 -39.5 16t-15.5 40z" />
    <glyph glyph-name="hsuperior" unicode="&#x2b0;" horiz-adv-x="383" 
d="M69 700h66v-172q24 50 88 50q49 0 73 -29q22 -28 22 -83v-151h-66v135q0 71 -55 71q-30 0 -46 -21t-16 -55v-130h-66v385z" />
    <glyph glyph-name="jsuperior" unicode="&#x2b2;" horiz-adv-x="223" 
d="M147 263q0 -81 -67 -81q-36 0 -51 7v51q12 -4 24 -4q27 0 27 32v305h67v-310zM67 663q0 19 13 32.5t33 13.5t33.5 -13.5t13.5 -32.5t-13.5 -32.5t-33.5 -13.5t-33 13.5t-13 32.5z" />
    <glyph glyph-name="wsuperior" unicode="&#x2b7;" horiz-adv-x="485" 
d="M242 496l-60 -181h-54l-97 258h70l57 -171l53 171h63l53 -171l57 171h70l-97 -258h-54z" />
    <glyph glyph-name="ysuperior" unicode="&#x2b8;" horiz-adv-x="391" 
d="M188 181q-60 0 -91 29t-32 79h67q2 -57 60 -57q33 0 48 17t15 56v58q-25 -51 -90 -51q-50 0 -74 29q-20 25 -20 84v148h67v-134q0 -73 56 -73q30 0 45.5 21.5t15.5 55.5v130h68v-265q0 -68 -31.5 -97.5t-103.5 -29.5z" />
    <glyph glyph-name="circumflex" unicode="&#x2c6;" horiz-adv-x="469" 
d="M232 842l180 -145l-54 -61l-126 101l-125 -100l-55 60z" />
    <glyph glyph-name="caron" unicode="&#x2c7;" horiz-adv-x="427" 
d="M53 749l47 61l112 -105l114 105l47 -61l-161 -145z" />
    <glyph glyph-name="breve" unicode="&#x2d8;" horiz-adv-x="537" 
d="M148 851q12 -42 43 -65t77 -23t78 23t43 65h74q-10 -65 -65.5 -108t-129.5 -43q-73 0 -127.5 42.5t-66.5 108.5h74z" />
    <glyph glyph-name="dotaccent" unicode="&#x2d9;" horiz-adv-x="484" 
d="M172 639q0 29 20.5 50t49.5 21t49.5 -21t20.5 -50t-20.5 -49t-49.5 -20t-49.5 20t-20.5 49z" />
    <glyph glyph-name="ring" unicode="&#x2da;" horiz-adv-x="509" 
d="M254 835q51 0 87 -36.5t36 -86.5t-36 -86.5t-87 -36.5t-87 36.5t-36 86.5q0 51 36 87t87 36zM254 772q-24 0 -41.5 -18t-17.5 -42q0 -23 17.5 -40.5t41.5 -17.5t41.5 17.5t17.5 41.5t-17 41.5t-42 17.5z" />
    <glyph glyph-name="ogonek" unicode="&#x2db;" horiz-adv-x="488" 
d="M351 -197q-45 -15 -90 -15q-55 0 -85 27.5t-30 69.5q0 32 19 58.5t61 56.5h63q-60 -43 -60 -87q0 -25 15.5 -42t42.5 -17q33 0 64 13v-64z" />
    <glyph glyph-name="tilde" unicode="&#x2dc;" horiz-adv-x="498" 
d="M74 662q60 38 103 38q14 0 71.5 -13.5t69.5 -13.5q25 0 80 27l34 -56q-54 -41 -104 -41q-17 0 -71.5 13t-69.5 13q-28 0 -75 -24z" />
    <glyph glyph-name="hungarumlaut" unicode="&#x2dd;" horiz-adv-x="492" 
d="M393 734l76 -38l-158 -151l-43 23zM198 734l76 -38l-158 -151l-43 23z" />
    <glyph glyph-name="xsuperior" unicode="&#x2e3;" horiz-adv-x="330" 
d="M295 315h-78l-52 83l-52 -83h-78l90 130l-88 128h78l50 -82l51 82h78l-89 -128z" />
    <glyph glyph-name="pi" unicode="&#x3c0;" 
d="M527 377h-63v-377h-86v377h-181v-377h-86v377h-63v77h479v-77z" />
    <glyph glyph-name="uni0401" unicode="&#x401;" horiz-adv-x="544" 
d="M169 618v-229h302v-82h-302v-225h302v-82h-393v700h393v-82h-302zM319 843q0 29 20.5 50t49.5 21t49.5 -21t20.5 -50t-20.5 -49t-49.5 -20t-49.5 20t-20.5 49zM90 843q0 29 20 50t49 21q30 0 50.5 -21t20.5 -50t-20.5 -49t-50.5 -20q-29 0 -49 20t-20 49z" />
    <glyph glyph-name="uni0402" unicode="&#x402;" horiz-adv-x="686" 
d="M620 -122q0 -60 -34 -96t-91 -36q-67 0 -72 3v83q10 -4 52 -4q25 0 39 16t14 44v353q0 148 -114 148q-62 0 -96 -45t-34 -110v-234h-91v618h-181v82h454v-82h-182v-244q21 43 63 67.5t99 24.5q95 0 138 -60q36 -53 36 -138v-390z" />
    <glyph glyph-name="uni0403" unicode="&#x403;" horiz-adv-x="475" 
d="M183 735l-42 68l249 137l42 -68zM78 700h393v-82h-302v-618h-91v700z" />
    <glyph glyph-name="uni0404" unicode="&#x404;" horiz-adv-x="746" 
d="M706 216q-21 -101 -104 -166.5t-206 -65.5q-115 0 -197 52.5t-120 133.5t-38 180q0 72 22 137t64 116.5t110.5 82t154.5 30.5q128 0 211.5 -66.5t102.5 -170.5h-99q-15 69 -72.5 112t-142.5 43q-114 0 -179 -69t-74 -174h345v-83h-345q9 -104 76 -173t181 -69
q80 0 137.5 41.5t73.5 108.5h99z" />
    <glyph glyph-name="uni0405" unicode="&#x405;" horiz-adv-x="571" 
d="M136 223q0 -72 43 -114.5t115 -42.5q62 0 100.5 32.5t38.5 86.5q0 30 -11 52t-34 36.5t-40 21.5t-48 17q-48 15 -73.5 24.5t-60.5 28t-52.5 38.5t-30.5 52.5t-13 73.5q0 83 61.5 135t156.5 52t157.5 -59.5t62.5 -154.5h-91q-1 61 -34.5 96.5t-92.5 35.5
q-58 0 -93.5 -28.5t-35.5 -76.5q0 -52 34 -77.5t96 -43.5q42 -14 67 -23t60.5 -28t55.5 -39t35 -52t15 -71q0 -99 -67 -155t-170 -56q-104 0 -173 65t-69 174h91z" />
    <glyph glyph-name="uni0406" unicode="&#x406;" horiz-adv-x="250" 
d="M78 700h94v-700h-94v700z" />
    <glyph glyph-name="uni0407" unicode="&#x407;" horiz-adv-x="250" 
d="M156 843q0 29 20 50t49 21t50 -21t21 -50t-21 -49t-50 -20t-49 20t-20 49zM-44 843q0 29 20.5 50t49.5 21t49.5 -21t20.5 -50t-20.5 -49t-49.5 -20t-49.5 20t-20.5 49zM78 700h94v-700h-94v700z" />
    <glyph glyph-name="uni0408" unicode="&#x408;" horiz-adv-x="536" 
d="M465 222q0 -105 -60.5 -171.5t-163.5 -66.5t-165 67t-62 171h91q0 -70 37 -113t99 -43t97.5 42t35.5 114v478h91v-478z" />
    <glyph glyph-name="uni0409" unicode="&#x409;" horiz-adv-x="944" 
d="M713 82q45 0 76 34.5t31 83.5t-30.5 83.5t-75.5 34.5h-133v-236h132zM490 618h-284v-501q0 -62 -34.5 -95.5t-92.5 -33.5h-69v82h46q58 0 58 58v572h467v-300h133q86 0 141.5 -58.5t55.5 -141.5t-56 -141.5t-142 -58.5h-223v618z" />
    <glyph glyph-name="uni040A" unicode="&#x40a;" horiz-adv-x="948" 
d="M586 400h133q86 0 141.5 -58.5t55.5 -141.5t-56.5 -141.5t-142.5 -58.5h-222v317h-326v-317h-91v700h91v-300h326v300h91v-300zM586 318v-236h131q46 0 77 34.5t31 83.5t-30.5 83.5t-75.5 34.5h-133z" />
    <glyph glyph-name="uni040B" unicode="&#x40b;" horiz-adv-x="689" 
d="M284 618v-244q21 43 63 67.5t99 24.5q96 0 138 -60q36 -50 36 -138v-268h-92v241q0 148 -114 148q-62 0 -96 -45t-34 -110v-234h-91v618h-181v82h454v-82h-182z" />
    <glyph glyph-name="uni040C" unicode="&#x40c;" horiz-adv-x="594" 
d="M169 412h17q74 0 121 80l62 105q32 52 68 79.5t86 27.5h42v-82h-26q-59 0 -95 -64l-54 -94q-47 -82 -138 -99l325 -365h-118l-290 336v-336h-91v700h91v-288zM204 735l-42 68l249 137l42 -68z" />
    <glyph glyph-name="uni040E" unicode="&#x40e;" horiz-adv-x="591" 
d="M297 843q88 0 112 83h82q-12 -66 -66.5 -108.5t-127.5 -42.5q-75 0 -128 42.5t-65 108.5h81q24 -83 112 -83zM234 0h-100l140 278l-264 422h106l205 -327l165 327h100z" />
    <glyph glyph-name="uni040F" unicode="&#x40f;" horiz-adv-x="642" 
d="M280 -97v97h-202v700h91v-618h304v618h91v-700h-201v-97h-83z" />
    <glyph glyph-name="uni0410" unicode="&#x410;" horiz-adv-x="559" 
d="M458 0l-37 107h-284l-36 -107h-96l241 700h66l242 -700h-96zM280 551l-115 -361h228z" />
    <glyph glyph-name="uni0411" unicode="&#x411;" horiz-adv-x="579" 
d="M484 618h-315v-218h169q86 0 141.5 -58.5t55.5 -141.5t-56 -141.5t-142 -58.5h-259v700h406v-82zM169 318v-236h168q45 0 76 34.5t31 83.5t-30.5 83.5t-75.5 34.5h-169z" />
    <glyph glyph-name="uni0412" unicode="&#x412;" horiz-adv-x="591" 
d="M78 700h239q60 0 104 -17.5t66.5 -46.5t32.5 -59.5t10 -63.5q0 -61 -37 -104.5t-88 -53.5q47 -4 88.5 -47.5t41.5 -113.5q0 -33 -10.5 -64.5t-34 -62t-68 -49t-104.5 -18.5h-240v700zM169 312v-230h153q63 0 92.5 34t29.5 81q0 42 -30.5 78.5t-89.5 36.5h-155zM319 395
q62 0 91 34t29 77t-29.5 77.5t-92.5 34.5h-148v-223h150z" />
    <glyph glyph-name="uni0413" unicode="&#x413;" horiz-adv-x="475" 
d="M78 700h393v-82h-302v-618h-91v700z" />
    <glyph glyph-name="uni0414" unicode="&#x414;" horiz-adv-x="697" 
d="M13 -97v179h11q89 0 137 64q45 63 45 172v382h397v-618h57v-179h-82v97h-482v-97h-83zM511 82v536h-215v-223q0 -131 -24.5 -211t-87.5 -102h327z" />
    <glyph glyph-name="uni0415" unicode="&#x415;" horiz-adv-x="544" 
d="M169 618v-229h302v-82h-302v-225h302v-82h-393v700h393v-82h-302z" />
    <glyph glyph-name="uni0416" unicode="&#x416;" horiz-adv-x="870" 
d="M124 0h-117l299 362q-81 16 -127 104l-47 89q-38 67 -91 67h-25v82h37q91 0 152 -111l58 -107q47 -88 111 -88h17v302h88v-302h17q63 0 111 88l58 107q60 111 152 111h37v-82h-25q-53 0 -91 -67l-47 -89q-46 -88 -127 -104l299 -362h-118l-266 337v-337h-88v337z" />
    <glyph glyph-name="uni0417" unicode="&#x417;" horiz-adv-x="573" 
d="M134 221q0 -68 44 -109.5t110 -41.5q64 0 101 36t37 90q0 123 -150 123h-46v81h47q70 0 104 33t34 83q0 49 -36 81.5t-96 32.5q-64 0 -104.5 -34.5t-40.5 -93.5h-91q0 94 67 152t174 58q95 0 156.5 -49.5t61.5 -139.5q0 -60 -33 -102.5t-88 -54.5q58 -10 95 -56t37 -114
q0 -92 -65 -150t-165 -58q-109 0 -176.5 62t-67.5 171h91z" />
    <glyph glyph-name="uni0418" unicode="&#x418;" horiz-adv-x="663" 
d="M494 519l-325 -472v-47h-91v700h91v-519l325 472v47h91v-700h-91v519z" />
    <glyph glyph-name="uni0419" unicode="&#x419;" horiz-adv-x="663" 
d="M494 519l-325 -472v-47h-91v700h91v-519l325 472v47h91v-700h-91v519zM338 843q43 0 72 22t39 61h82q-12 -66 -65.5 -108.5t-127.5 -42.5q-75 0 -128.5 42.5t-65.5 108.5h82q21 -83 112 -83z" />
    <glyph glyph-name="uni041A" unicode="&#x41a;" horiz-adv-x="594" 
d="M169 412h17q74 0 121 80l62 105q32 52 68 79.5t86 27.5h42v-82h-26q-59 0 -95 -64l-54 -94q-47 -82 -138 -99l325 -365h-118l-290 336v-336h-91v700h91v-288z" />
    <glyph glyph-name="uni041B" unicode="&#x41b;" horiz-adv-x="673" 
d="M10 70h42q62 0 62 63v567h481v-700h-92v618h-297v-496q0 -64 -36 -99t-95 -35h-65v82z" />
    <glyph glyph-name="uni041C" unicode="&#x41c;" horiz-adv-x="812" 
d="M734 0h-92v488l-201 -488h-70l-202 488v-488h-91v700h88l240 -560l240 560h88v-700z" />
    <glyph glyph-name="uni041D" unicode="&#x41d;" horiz-adv-x="664" 
d="M495 307h-326v-307h-91v700h91v-311h326v311h91v-700h-91v307z" />
    <glyph glyph-name="uni041E" unicode="&#x41e;" horiz-adv-x="803" 
d="M402 -16q-108 0 -192 52.5t-126.5 135t-42.5 178.5t42.5 178.5t126.5 135t192 52.5t192 -52.5t126.5 -135t42.5 -178.5t-42.5 -178.5t-126.5 -135t-192 -52.5zM402 66q118 0 191.5 84.5t73.5 199.5q0 116 -73 200t-192 84t-192.5 -84t-73.5 -200q0 -115 74 -199.5
t192 -84.5z" />
    <glyph glyph-name="uni041F" unicode="&#x41f;" horiz-adv-x="666" 
d="M169 618v-618h-91v700h510v-700h-91v618h-328z" />
    <glyph glyph-name="uni0420" unicode="&#x420;" horiz-adv-x="596" 
d="M78 700h246q107 0 173.5 -69.5t66.5 -168.5q0 -100 -66.5 -169.5t-173.5 -69.5h-155v-223h-91v700zM324 306q67 0 108 45t41 111q0 65 -41.5 110.5t-107.5 45.5h-155v-312h155z" />
    <glyph glyph-name="uni0421" unicode="&#x421;" horiz-adv-x="775" 
d="M736 216q-27 -101 -116.5 -166.5t-211.5 -65.5q-166 0 -266.5 107t-100.5 260q0 148 98 256.5t256 108.5q145 0 232.5 -72.5t108.5 -188.5h-96q-17 80 -78 129.5t-156 49.5q-124 0 -198 -83.5t-74 -199.5q0 -120 77 -202.5t208 -82.5q73 0 134 42t83 108h100z" />
    <glyph glyph-name="uni0422" unicode="&#x422;" horiz-adv-x="478" 
d="M193 618h-181v82h454v-82h-182v-618h-91v618z" />
    <glyph glyph-name="uni0423" unicode="&#x423;" horiz-adv-x="591" 
d="M234 0h-100l140 278l-264 422h106l205 -327l165 327h100z" />
    <glyph glyph-name="uni0424" unicode="&#x424;" horiz-adv-x="769" 
d="M430 95v-95h-91v95h-64q-108 0 -176 74t-68 181t68 181t176 74h64v95h91v-95h64q109 0 177 -74t68 -181t-68 -181t-177 -74h-64zM339 177v346h-64q-68 0 -110.5 -50t-42.5 -123t42.5 -123t110.5 -50h64zM430 523v-346h64q68 0 110.5 50t42.5 123t-42.5 123t-110.5 50h-64
z" />
    <glyph glyph-name="uni0425" unicode="&#x425;" horiz-adv-x="548" 
d="M435 700h104l-213 -350l213 -350h-104l-161 271l-161 -271h-103l212 350l-212 350h103l161 -271z" />
    <glyph glyph-name="uni0426" unicode="&#x426;" horiz-adv-x="669" 
d="M572 -97v97h-494v700h91v-618h304v618h91v-618h90v-179h-82z" />
    <glyph glyph-name="uni0427" unicode="&#x427;" horiz-adv-x="579" 
d="M410 0v222h-140q-110 0 -170.5 63t-60.5 162v253h91v-230q0 -79 40 -122.5t117 -43.5h123v396h91v-700h-91z" />
    <glyph glyph-name="uni0428" unicode="&#x428;" horiz-adv-x="909" 
d="M78 0v700h91v-618h240v618h91v-618h240v618h91v-700h-753z" />
    <glyph glyph-name="uni0429" unicode="&#x429;" horiz-adv-x="937" 
d="M830 -97v97h-752v700h91v-618h240v618h91v-618h240v618h91v-618h91v-179h-92z" />
    <glyph glyph-name="uni042A" unicode="&#x42a;" horiz-adv-x="643" 
d="M244 318v-236h168q45 0 76 34.5t31 83.5t-30.5 83.5t-75.5 34.5h-169zM12 700h232v-300h169q86 0 141.5 -58.5t55.5 -141.5t-56 -141.5t-142 -58.5h-259v618h-141v82z" />
    <glyph glyph-name="uni042B" unicode="&#x42b;" horiz-adv-x="745" 
d="M169 700v-300h151q86 0 141.5 -58.5t55.5 -141.5t-56 -141.5t-142 -58.5h-241v700h91zM169 318v-236h150q45 0 76 34.5t31 83.5t-30.5 83.5t-75.5 34.5h-151zM576 700h91v-700h-91v700z" />
    <glyph glyph-name="uni042C" unicode="&#x42c;" horiz-adv-x="568" 
d="M169 700v-300h169q86 0 141.5 -58.5t55.5 -141.5t-56 -141.5t-142 -58.5h-259v700h91zM169 318v-236h168q45 0 76 34.5t31 83.5t-30.5 83.5t-75.5 34.5h-169z" />
    <glyph glyph-name="uni042D" unicode="&#x42d;" horiz-adv-x="753" 
d="M270 390h347q-10 108 -74.5 176t-169.5 68q-96 0 -157.5 -49.5t-78.5 -129.5h-96q21 117 105.5 189t230.5 72q154 0 245 -104.5t91 -260.5q0 -160 -93.5 -263.5t-255.5 -103.5q-121 0 -209 65.5t-115 166.5h100q20 -65 84.5 -107.5t139.5 -42.5q109 0 175 66t78 175h-347
v83z" />
    <glyph glyph-name="uni042E" unicode="&#x42e;" horiz-adv-x="1074" 
d="M673 -16q-149 0 -246.5 93.5t-112.5 229.5h-145v-307h-91v700h91v-311h145q13 137 110 232t249 95q108 0 192 -52.5t126.5 -135t42.5 -178.5t-42.5 -178.5t-126.5 -135t-192 -52.5zM673 66q118 0 191.5 84.5t73.5 199.5q0 116 -73 200t-192 84t-192.5 -84t-73.5 -200
q0 -115 74 -199.5t192 -84.5z" />
    <glyph glyph-name="uni042F" unicode="&#x42f;" horiz-adv-x="606" 
d="M528 0h-92v223h-143l-139 -223h-105l148 238q-71 24 -113.5 85.5t-42.5 138.5q0 99 67 168.5t174 69.5h246v-700zM282 306h154v312h-154q-66 0 -107.5 -45.5t-41.5 -110.5q0 -66 41 -111t108 -45z" />
    <glyph glyph-name="uni0430" unicode="&#x430;" horiz-adv-x="597" 
d="M519 454v-454h-86v79q-22 -42 -65 -66t-94 -24q-102 0 -167.5 70t-65.5 168q0 99 65.5 169t167.5 70q51 0 94 -24t65 -66v78h86zM279 67q68 0 111 46.5t43 113.5t-43 114t-111 47q-67 0 -109.5 -47t-42.5 -114t42.5 -113.5t109.5 -46.5z" />
    <glyph glyph-name="uni0431" unicode="&#x431;" horiz-adv-x="577" 
d="M130 337q17 60 69 94.5t113 34.5q102 0 162.5 -69t60.5 -170q0 -98 -66 -168t-169 -70q-124 0 -186.5 87.5t-62.5 242.5q0 200 98 298q87 83 245 83h91v-84h-115q-113 0 -168 -59q-67 -73 -72 -220zM295 67q67 0 110 46.5t43 113.5t-43 114t-110 47q-69 0 -111 -45.5
t-42 -115.5q0 -68 42 -114t111 -46z" />
    <glyph glyph-name="uni0432" unicode="&#x432;" horiz-adv-x="486" 
d="M78 454h210q78 0 111 -35.5t33 -82.5q0 -39 -29.5 -68t-72.5 -34q46 -2 78 -32t32 -78q0 -47 -37.5 -85.5t-119.5 -38.5h-205v454zM163 201v-139h122q29 0 48.5 20t19.5 48t-19.5 49.5t-48.5 21.5h-122zM282 263q28 0 45.5 18.5t17.5 45.5q0 28 -17.5 46.5t-46.5 18.5
h-118v-129h119z" />
    <glyph glyph-name="uni0433" unicode="&#x433;" horiz-adv-x="356" 
d="M351 454v-73h-186v-381h-87v454h273z" />
    <glyph glyph-name="uni0434" unicode="&#x434;" horiz-adv-x="552" 
d="M11 -104v173h16q55 0 84 41t29 112v232h335v-385h46v-173h-78v104h-354v-104h-78zM394 69v317h-173v-148q0 -137 -72 -169h245z" />
    <glyph glyph-name="uni0435" unicode="&#x435;" horiz-adv-x="524" 
d="M129 204q2 -63 36 -102.5t104 -39.5q87 0 115 72h88q-10 -60 -65.5 -102.5t-137.5 -42.5q-109 0 -167.5 67t-58.5 171q0 106 59 172.5t164 66.5q88 0 149.5 -59t61.5 -146q0 -32 -4 -57h-344zM264 399q-60 0 -96.5 -34t-38.5 -95h263q0 59 -36 94t-92 35z" />
    <glyph glyph-name="uni0436" unicode="&#x436;" horiz-adv-x="668" 
d="M114 0h-100l211 235q-70 5 -98 60l-26 48q-25 45 -59 45h-25v71h37q68 0 108 -69l43 -76q17 -28 32.5 -40t40.5 -12h15v192h82v-192h15q25 0 40.5 12t32.5 40l42 76q40 69 108 69h38v-71h-25q-34 0 -59 -45l-26 -48q-30 -55 -98 -60l211 -235h-100l-179 214v-214h-82v214
z" />
    <glyph glyph-name="uni0437" unicode="&#x437;" horiz-adv-x="429" 
d="M117 135q0 -34 25.5 -54.5t72.5 -20.5q39 0 62.5 17t23.5 48q0 33 -23 52.5t-68 19.5h-49v62h44q87 0 87 71q0 30 -22 48t-60 18q-86 0 -86 -73h-84q0 64 46.5 103.5t124.5 39.5q74 0 119 -35t45 -90q0 -46 -25.5 -73.5t-69.5 -34.5q47 -5 75.5 -34.5t28.5 -76.5
q0 -60 -50.5 -96.5t-124.5 -36.5q-83 0 -129.5 39.5t-46.5 106.5h84z" />
    <glyph glyph-name="uni0438" unicode="&#x438;" horiz-adv-x="564" 
d="M400 316l-235 -279v-37h-87v454h87v-319l235 281v38h86v-454h-86v316z" />
    <glyph glyph-name="uni0439" unicode="&#x439;" horiz-adv-x="564" 
d="M400 316l-235 -279v-37h-87v454h87v-319l235 281v38h86v-454h-86v316zM288 617q42 0 70.5 22t39.5 61h81q-12 -66 -65 -108.5t-126 -42.5t-126 42.5t-65 108.5h82q10 -39 38.5 -61t70.5 -22z" />
    <glyph glyph-name="uni043A" unicode="&#x43a;" horiz-adv-x="494" 
d="M165 259h14q38 0 72 52l59 86q22 33 45.5 47.5t57.5 14.5h46v-71h-27q-37 0 -62 -36l-37 -56q-34 -52 -93 -59l230 -237h-105l-200 211v-211h-87v454h87v-195z" />
    <glyph glyph-name="uni043B" unicode="&#x43b;" horiz-adv-x="561" 
d="M18 69h24q26 0 39 11t13 41v333h389v-454h-87v381h-215v-269q0 -60 -32.5 -90.5t-88.5 -30.5h-42v78z" />
    <glyph glyph-name="uni043C" unicode="&#x43c;" horiz-adv-x="701" 
d="M623 0h-79v380l-164 -380h-59l-164 380v-380h-79v454h127l146 -337l146 337h126v-454z" />
    <glyph glyph-name="uni043D" unicode="&#x43d;" horiz-adv-x="570" 
d="M406 193h-241v-193h-87v454h87v-188h241v188h86v-454h-86v193z" />
    <glyph glyph-name="uni043E" unicode="&#x43e;" horiz-adv-x="560" 
d="M279 -11q-105 0 -171.5 69.5t-66.5 168.5q0 100 66.5 169.5t171.5 69.5q107 0 173.5 -69.5t66.5 -169.5q0 -99 -66.5 -168.5t-173.5 -69.5zM279 67q68 0 111 46.5t43 113.5t-43 114t-111 47q-67 0 -109.5 -47t-42.5 -114t42.5 -113.5t109.5 -46.5z" />
    <glyph glyph-name="uni043F" unicode="&#x43f;" horiz-adv-x="567" 
d="M489 0h-87v381h-237v-381h-87v454h411v-454z" />
    <glyph glyph-name="uni0440" unicode="&#x440;" horiz-adv-x="599" 
d="M165 376q22 42 64.5 66t93.5 24q103 0 168.5 -70t65.5 -169t-65.5 -168.5t-168.5 -69.5q-51 0 -93.5 24t-64.5 66v-325h-87v700h87v-78zM319 388q-68 0 -111 -47t-43 -114t43 -113.5t111 -46.5q67 0 109 46.5t42 113.5t-42 114t-109 47z" />
    <glyph glyph-name="uni0441" unicode="&#x441;" horiz-adv-x="529" 
d="M397 289q-12 99 -126 99q-67 0 -104 -46.5t-37 -114.5q0 -69 37 -114.5t109 -45.5q54 0 82 22.5t40 66.5h87q-10 -74 -65.5 -120.5t-149.5 -46.5q-106 0 -166.5 70t-60.5 168t60 168.5t166 70.5q102 0 155 -51.5t60 -125.5h-87z" />
    <glyph glyph-name="uni0442" unicode="&#x442;" horiz-adv-x="384" 
d="M372 454v-73h-137v-381h-87v381h-135v73h359z" />
    <glyph glyph-name="uni0443" unicode="&#x443;" horiz-adv-x="573" 
d="M282 -256q-99 0 -154.5 50t-57.5 147h88q7 -123 126 -123q62 0 94.5 30.5t32.5 104.5v128q-44 -92 -159 -92q-94 0 -138 58q-34 48 -34 142v265h87v-238q0 -72 26 -111t90 -39q62 0 95 44.5t33 110.5v233h87v-501q0 -209 -216 -209z" />
    <glyph glyph-name="uni0444" unicode="&#x444;" horiz-adv-x="620" 
d="M273 -11q-101 6 -166.5 74.5t-65.5 163.5t65 163.5t166 74.5v235h76v-235q101 -6 166.5 -74.5t65.5 -163.5t-65.5 -163.5t-166.5 -74.5v-234h-75v234zM495 227q0 69 -39.5 115t-107.5 50v-330q67 0 107 48.5t40 116.5zM125 227q0 -68 40 -116.5t108 -48.5l-1 330
q-68 -4 -107.5 -50.5t-39.5 -114.5z" />
    <glyph glyph-name="uni0445" unicode="&#x445;" horiz-adv-x="440" 
d="M424 0h-100l-104 161l-104 -161h-100l154 229l-152 225h100l102 -158l102 158h100l-152 -225z" />
    <glyph glyph-name="uni0446" unicode="&#x446;" horiz-adv-x="586" 
d="M470 -82v82h-392v454h87v-381h230v381h87v-381h74v-155h-86z" />
    <glyph glyph-name="uni0447" unicode="&#x447;" horiz-adv-x="478" 
d="M313 0v139h-111q-77 0 -118 39t-41 116v160h87v-158q0 -84 85 -84h98v242h87v-454h-87z" />
    <glyph glyph-name="uni0448" unicode="&#x448;" horiz-adv-x="786" 
d="M437 73h184v381h87v-454h-630v454h87v-381h185v381h87v-381z" />
    <glyph glyph-name="uni0449" unicode="&#x449;" horiz-adv-x="813" 
d="M697 -82v82h-619v454h87v-381h185v381h87v-381h184v381h87v-381h75v-155h-86z" />
    <glyph glyph-name="uni044A" unicode="&#x44a;" horiz-adv-x="494" 
d="M104 381h-88v73h170v-157h122q68 0 106 -42t38 -107q0 -63 -39 -105.5t-106 -42.5h-203v381zM186 227v-157h106q37 0 58.5 22t21.5 56q0 36 -20.5 57.5t-58.5 21.5h-107z" />
    <glyph glyph-name="uni044B" unicode="&#x44b;" horiz-adv-x="643" 
d="M479 454h86v-454h-86v454zM78 454h82v-157h122q67 0 105 -42t38 -107q0 -63 -38.5 -105.5t-105.5 -42.5h-203v454zM160 227v-157h106q37 0 58 22t21 56q0 36 -20.5 57.5t-57.5 21.5h-107z" />
    <glyph glyph-name="uni044C" unicode="&#x44c;" horiz-adv-x="468" 
d="M78 454h82v-157h122q67 0 105 -42t38 -107q0 -63 -38.5 -105.5t-105.5 -42.5h-203v454zM160 227v-157h106q37 0 58 22t21 56q0 36 -20.5 57.5t-57.5 21.5h-107z" />
    <glyph glyph-name="uni044D" unicode="&#x44d;" horiz-adv-x="535" 
d="M46 289q2 75 60.5 126t154.5 51q112 0 172 -69.5t60 -169.5t-60 -169t-172 -69q-96 0 -154.5 47.5t-62.5 119.5h87q16 -89 134 -89q128 0 140 127h-191v66h191q-4 57 -39.5 92.5t-100.5 35.5q-61 0 -93.5 -27.5t-39.5 -71.5h-86z" />
    <glyph glyph-name="uni044E" unicode="&#x44e;" horiz-adv-x="754" 
d="M473 67q68 0 111 46.5t43 113.5t-43 114t-111 47q-67 0 -109 -47t-42 -114t42 -113.5t109 -46.5zM165 191v-191h-87v454h87v-190h73q12 86 76 144t159 58q107 0 174 -69.5t67 -169.5q0 -99 -67 -168.5t-174 -69.5q-96 0 -159.5 57t-75.5 145h-73z" />
    <glyph glyph-name="uni044F" unicode="&#x44f;" horiz-adv-x="504" 
d="M138 0h-101l105 156q-48 12 -78.5 54t-30.5 91q0 65 44 109t114 44h235v-454h-85v147h-110zM341 219v164h-132q-40 0 -64 -24t-24 -58t24 -58t64 -24h132z" />
    <glyph glyph-name="uni0451" unicode="&#x451;" horiz-adv-x="524" 
d="M129 204q2 -63 36 -102.5t104 -39.5q87 0 115 72h88q-10 -60 -65.5 -102.5t-137.5 -42.5q-109 0 -167.5 67t-58.5 171q0 106 59 172.5t164 66.5q88 0 149.5 -59t61.5 -146q0 -32 -4 -57h-344zM264 399q-59 0 -96 -34t-39 -95h263q0 59 -36 94t-92 35zM314 609
q0 30 20 50.5t49 20.5q30 0 50.5 -20.5t20.5 -50.5q0 -29 -20.5 -49t-50.5 -20q-29 0 -49 20t-20 49zM84 609q0 30 20.5 50.5t49.5 20.5t49.5 -20.5t20.5 -50.5q0 -29 -20.5 -49t-49.5 -20t-49.5 20t-20.5 49z" />
    <glyph glyph-name="uni0452" unicode="&#x452;" horiz-adv-x="592" 
d="M191 532v-158q21 43 62.5 67.5t97.5 24.5q94 0 137 -60q34 -50 34 -138v-390q0 -60 -34 -96t-91 -36q-61 0 -67 3v74q8 -4 52 -4q25 0 39 15.5t14 43.5v363q0 148 -114 148q-62 0 -96 -45t-34 -110v-234h-87v532h-84v59h84v109h87v-109h118v-59h-118z" />
    <glyph glyph-name="uni0453" unicode="&#x453;" horiz-adv-x="356" 
d="M109 503l-41 68l249 137l41 -68zM351 454v-73h-186v-381h-87v454h273z" />
    <glyph glyph-name="uni0454" unicode="&#x454;" horiz-adv-x="539" 
d="M403 289q-7 44 -39.5 71.5t-93.5 27.5q-65 0 -100.5 -35.5t-39.5 -92.5h191v-66h-191q4 -59 39 -93t101 -34q118 0 134 89h87q-4 -72 -62.5 -119.5t-154.5 -47.5q-112 0 -172 69t-60 169t60 169.5t172 69.5q97 0 154.5 -51t61.5 -126h-87z" />
    <glyph glyph-name="uni0455" unicode="&#x455;" horiz-adv-x="452" 
d="M270 253q33 -10 51.5 -17.5t41 -22t33 -36.5t10.5 -52q0 -66 -49.5 -101t-128.5 -35q-80 0 -134 42.5t-54 121.5h85q0 -95 107 -95q91 0 91 65q0 12 -5 22t-12 16t-22 12.5t-27.5 10.5t-37 12t-41.5 14q-63 19 -93 44t-30 81q0 62 48 96.5t121 34.5q75 0 125 -43t50 -110
h-84q0 40 -23.5 61.5t-68.5 21.5q-37 0 -60.5 -16.5t-23.5 -46.5q0 -33 43 -51q13 -6 88 -29z" />
    <glyph glyph-name="uni0456" unicode="&#x456;" horiz-adv-x="243" 
d="M78 454h87v-454h-87v454zM52 626q0 29 20 50t49 21t50 -21t21 -50t-21 -49t-50 -20t-49 20t-20 49z" />
    <glyph glyph-name="uni0457" unicode="&#x457;" horiz-adv-x="243" 
d="M78 454h87v-454h-87v454zM138 626q0 29 20 50t49 21q30 0 50.5 -21t20.5 -50t-20.5 -49t-50.5 -20q-29 0 -49 20t-20 49zM-34 626q0 29 20 50t49 21q30 0 50.5 -21t20.5 -50t-20.5 -49t-50.5 -20q-29 0 -49 20t-20 49z" />
    <glyph glyph-name="uni0458" unicode="&#x458;" horiz-adv-x="243" 
d="M165 -122q0 -69 -30 -101t-76 -32q-45 0 -71 12v77q25 -6 44 -6q46 0 46 63v563h87v-576zM52 626q0 29 20 50t49 21q30 0 50.5 -21t20.5 -50t-20.5 -49t-50.5 -20q-29 0 -49 20t-20 49z" />
    <glyph glyph-name="uni0459" unicode="&#x459;" horiz-adv-x="800" 
d="M26 69h26q50 0 50 46v339h390v-157h122q62 0 103 -43t41 -106q0 -61 -41 -104.5t-104 -43.5h-208v381h-216v-276q0 -56 -31.5 -85t-86.5 -29h-45v78zM598 70q35 0 57.5 22.5t22.5 55.5t-22 56t-57 23h-107v-157h106z" />
    <glyph glyph-name="uni045A" unicode="&#x45a;" horiz-adv-x="788" 
d="M602 297q62 0 103 -43t41 -106q0 -61 -41 -104.5t-104 -43.5h-208v227h-228v-227h-87v454h87v-157h228v157h87v-157h122zM480 227v-157h106q35 0 57.5 22.5t22.5 55.5t-22 56t-57 23h-107z" />
    <glyph glyph-name="uni045B" unicode="&#x45b;" horiz-adv-x="592" 
d="M104 532h-84v59h84v109h87v-109h118v-59h-118v-158q21 43 62.5 67.5t97.5 24.5q94 0 137 -60q34 -50 34 -138v-268h-87v241q0 148 -114 148q-62 0 -96 -45t-34 -110v-234h-87v532z" />
    <glyph glyph-name="uni045C" unicode="&#x45c;" horiz-adv-x="494" 
d="M165 259h14q38 0 72 52l59 86q22 33 45.5 47.5t57.5 14.5h46v-71h-27q-37 0 -62 -36l-37 -56q-34 -52 -93 -59l230 -237h-105l-200 211v-211h-87v454h87v-195zM170 503l-42 68l249 137l42 -68z" />
    <glyph glyph-name="uni045E" unicode="&#x45e;" horiz-adv-x="573" 
d="M289 617q42 0 70.5 22t39.5 61h81q-12 -66 -65 -108.5t-126 -42.5t-126 42.5t-65 108.5h82q10 -39 38.5 -61t70.5 -22zM282 -256q-99 0 -154.5 50t-57.5 147h88q7 -123 126 -123q62 0 94.5 30.5t32.5 104.5v128q-44 -92 -159 -92q-94 0 -138 58q-34 48 -34 142v265h87
v-238q0 -72 26 -111t90 -39q62 0 95 44.5t33 110.5v233h87v-501q0 -209 -216 -209z" />
    <glyph glyph-name="uni045F" unicode="&#x45f;" horiz-adv-x="574" 
d="M248 -82v82h-170v454h87v-381h244v381h87v-454h-170v-82h-78z" />
    <glyph glyph-name="uni0462" unicode="&#x462;" horiz-adv-x="587" 
d="M189 318v-236h167q46 0 77 34.5t31 83.5t-30.5 83.5t-75.5 34.5h-169zM362 700v-78h-173v-222h169q86 0 141.5 -58.5t55.5 -141.5t-56.5 -141.5t-142.5 -58.5h-258v622h-86v78h350z" />
    <glyph glyph-name="uni0463" unicode="&#x463;" horiz-adv-x="477" 
d="M87 485h-67v59h67v157h82v-157h112v-59h-112v-188h122q67 0 105 -42t38 -107q0 -63 -38.5 -105.5t-105.5 -42.5h-203v485zM169 227v-157h106q37 0 58 22t21 56q0 36 -20.5 57.5t-57.5 21.5h-107z" />
    <glyph glyph-name="uni0472" unicode="&#x472;" horiz-adv-x="803" 
d="M402 -16q-108 0 -192 52.5t-126.5 135t-42.5 178.5t42.5 178.5t126.5 135t192 52.5t192 -52.5t126.5 -135t42.5 -178.5t-42.5 -178.5t-126.5 -135t-192 -52.5zM402 634q-111 0 -183 -74t-81 -180h527q-10 107 -81 180.5t-182 73.5zM402 66q111 0 182 74t81 181h-527
q9 -106 80.5 -180.5t183.5 -74.5z" />
    <glyph glyph-name="uni0473" unicode="&#x473;" horiz-adv-x="560" 
d="M279 -11q-105 0 -171.5 69.5t-66.5 168.5q0 100 66.5 169.5t171.5 69.5q107 0 173.5 -69.5t66.5 -169.5q0 -99 -66.5 -168.5t-173.5 -69.5zM279 388q-60 0 -100.5 -37t-48.5 -95h300q-10 58 -50 95t-101 37zM279 67q61 0 101.5 36.5t49.5 94.5h-300q8 -58 48 -94.5
t101 -36.5z" />
    <glyph glyph-name="uni0474" unicode="&#x474;" horiz-adv-x="610" 
d="M315 0h-66l-245 700h96l182 -550l148 443q20 62 51 87t85 25h38v-82h-23q-28 0 -45.5 -12.5t-30.5 -49.5z" />
    <glyph glyph-name="uni0475" unicode="&#x475;" horiz-adv-x="514" 
d="M270 0h-60l-206 454h94l142 -330l100 226q25 60 53 84.5t78 24.5h38v-82h-21q-27 0 -42 -12.5t-32 -48.5z" />
    <glyph glyph-name="uni048A" unicode="&#x48a;" horiz-adv-x="676" 
d="M338 843q43 0 72 22t39 61h82q-12 -66 -65.5 -108.5t-127.5 -42.5q-75 0 -128.5 42.5t-65.5 108.5h82q21 -83 112 -83zM494 0v519l-325 -472v-47h-91v700h91v-519l325 472v47h91v-618h68v-179h-91v97h-68z" />
    <glyph glyph-name="uni048B" unicode="&#x48b;" horiz-adv-x="576" 
d="M288 617q42 0 70.5 22t39.5 61h81q-12 -66 -65 -108.5t-126 -42.5t-126 42.5t-65 108.5h82q10 -39 38.5 -61t70.5 -22zM400 0v316l-235 -279v-37h-87v454h87v-319l235 281v38h86v-381h75v-155h-86v82h-75z" />
    <glyph glyph-name="uni048C" unicode="&#x48c;" horiz-adv-x="577" 
d="M178 700v-98h163v-70h-163v-132h169q86 0 141.5 -58.5t55.5 -141.5t-56 -141.5t-142 -58.5h-259v532h-67v70h67v98h91zM178 318v-236h168q45 0 76 34.5t31 83.5t-30.5 83.5t-75.5 34.5h-169z" />
    <glyph glyph-name="uni048D" unicode="&#x48d;" horiz-adv-x="475" 
d="M85 347h-63v59h63v48h81v-48h117v-59h-117v-50h123q67 0 105 -42t38 -107q0 -63 -38.5 -105.5t-105.5 -42.5h-203v347zM166 227v-157h107q37 0 58 22t21 56q0 36 -20.5 57.5t-57.5 21.5h-108z" />
    <glyph glyph-name="uni048E" unicode="&#x48e;" horiz-adv-x="596" 
d="M78 700h246q107 0 173.5 -69.5t66.5 -168.5q0 -63 -27.5 -115.5t-78.5 -84.5l66 -64l-42 -42l-80 79q-41 -12 -78 -12h-155v-223h-91v700zM308 413l87 -89q37 20 57.5 56.5t20.5 81.5q0 65 -41.5 110.5t-107.5 45.5h-155v-312h149q9 0 12 1l-64 64z" />
    <glyph glyph-name="uni048F" unicode="&#x48f;" horiz-adv-x="601" 
d="M165 376q22 42 64.5 66t93.5 24q103 0 168.5 -70t65.5 -169q0 -103 -69 -172l65 -64l-42 -42l-71 71q-50 -31 -117 -31q-51 0 -93.5 24t-64.5 66v-325h-87v700h87v-78zM350 193l79 -79q41 47 41 113q0 67 -42 114t-109 47q-68 0 -111 -47t-43 -114t43 -113.5t111 -46.5
q30 0 60 14l-71 70z" />
    <glyph glyph-name="uni0490" unicode="&#x490;" horiz-adv-x="475" 
d="M78 700h311v91h82v-173h-302v-618h-91v700z" />
    <glyph glyph-name="uni0491" unicode="&#x491;" horiz-adv-x="375" 
d="M293 454v80h77v-153h-205v-381h-87v454h215z" />
    <glyph glyph-name="uni0492" unicode="&#x492;" horiz-adv-x="524" 
d="M218 436h103v-71h-103v-365h-91v365h-67v71h67v264h393v-82h-302v-182z" />
    <glyph glyph-name="uni0493" unicode="&#x493;" horiz-adv-x="356" 
d="M164 272h100v-59h-100v-213h-87v213h-61v59h61v182h274v-73h-187v-109z" />
    <glyph glyph-name="uni0494" unicode="&#x494;" horiz-adv-x="576" 
d="M169 618v-244q21 43 63 67.5t99 24.5q96 0 138 -60q36 -50 36 -138v-390q0 -60 -34 -96t-91 -36q-65 0 -71 3v83q4 -4 51 -4q25 0 39.5 16t14.5 43v354q0 148 -115 148q-62 0 -96 -45.5t-34 -109.5v-234h-91v700h277v-82h-186z" />
    <glyph glyph-name="uni0495" unicode="&#x495;" horiz-adv-x="506" 
d="M165 454v-229q15 40 47.5 63.5t76.5 23.5q81 0 119 -58q33 -48 33 -139v-237q0 -60 -34 -96t-91 -36q-62 0 -67 3v74q8 -4 52 -4q25 0 39 15.5t14 43.5v232q0 125 -88 125q-49 0 -75 -36.5t-26 -89.5v-109h-87v454h87z" />
    <glyph glyph-name="uni0496" unicode="&#x496;" horiz-adv-x="872" 
d="M780 -97v97h-35l-266 337v-337h-88v337l-267 -337h-117l299 362q-81 16 -127 104l-47 89q-38 67 -91 67h-25v82h37q91 0 152 -111l58 -107q47 -88 111 -88h17v302h88v-302h17q63 0 111 88l58 107q60 111 152 111h37v-82h-25q-53 0 -91 -67l-47 -89q-46 -88 -127 -104
l299 -362v-97h-83z" />
    <glyph glyph-name="uni0497" unicode="&#x497;" horiz-adv-x="668" 
d="M114 0h-100l211 235q-70 5 -98 60l-26 48q-25 45 -59 45h-25v71h37q68 0 108 -69l43 -76q17 -28 32.5 -40t40.5 -12h15v192h82v-192h15q25 0 40.5 12t32.5 40l42 76q40 69 108 69h38v-71h-25q-34 0 -59 -45l-26 -48q-30 -55 -98 -60l211 -235v-82h-63v82h-37l-179 214
v-214h-82v214z" />
    <glyph glyph-name="uni0498" unicode="&#x498;" horiz-adv-x="573" 
d="M134 221q0 -68 44 -109.5t110 -41.5q64 0 101 36t37 90q0 123 -150 123h-46v81h47q70 0 104 33t34 83q0 49 -36 81.5t-96 32.5q-64 0 -104.5 -34.5t-40.5 -93.5h-91q0 94 67 152t174 58q95 0 156.5 -49.5t61.5 -139.5q0 -60 -33 -102.5t-88 -54.5q58 -10 95 -56t37 -114
q0 -85 -56 -141.5t-145 -64.5h-8v-56q16 18 48 18t54.5 -22t22.5 -59t-26 -63.5t-73 -26.5q-17 0 -34.5 5t-37.5 24t-25 50h53q8 -32 44 -32q20 0 33 12t13 31t-12 31t-31 12q-29 0 -41 -23h-45v99q-95 10 -151.5 70.5t-56.5 160.5h91z" />
    <glyph glyph-name="uni0499" unicode="&#x499;" horiz-adv-x="429" 
d="M117 135q0 -34 25.5 -54.5t72.5 -20.5q39 0 62.5 17t23.5 48q0 33 -23 52.5t-68 19.5h-49v62h44q87 0 87 71q0 30 -22 48t-60 18q-86 0 -86 -73h-84q0 64 46.5 103.5t124.5 39.5q74 0 119 -35t45 -90q0 -46 -25.5 -73.5t-69.5 -34.5q47 -5 75.5 -34.5t28.5 -76.5
q0 -55 -41.5 -90t-106.5 -41q-9 0 -12 1v-58q15 18 48 18q31 0 53.5 -22t22.5 -59t-26 -63.5t-73 -26.5q-16 0 -33.5 5t-38 24t-25.5 50h53q11 -32 44 -32q21 0 33.5 12t12.5 31t-12 31t-31 12q-28 0 -40 -23h-46v102q-63 10 -98 47.5t-35 94.5h84z" />
    <glyph glyph-name="uni049A" unicode="&#x49a;" horiz-adv-x="596" 
d="M495 -97v97h-36l-290 336v-336h-91v700h91v-288h17q74 0 121 80l62 105q32 52 68 79.5t86 27.5h42v-82h-26q-59 0 -95 -64l-54 -94q-47 -82 -138 -99l325 -365v-97h-82z" />
    <glyph glyph-name="uni049B" unicode="&#x49b;" horiz-adv-x="494" 
d="M406 -82v82h-41l-200 211v-211h-87v454h87v-195h14q38 0 72 52l59 86q22 33 45.5 47.5t57.5 14.5h46v-71h-27q-37 0 -62 -36l-37 -56q-34 -52 -93 -59l230 -237v-82h-64z" />
    <glyph glyph-name="uni049C" unicode="&#x49c;" horiz-adv-x="594" 
d="M216 404h2q34 0 56 21t49 76l45 96q50 107 154 107h43v-82h-26q-66 0 -95 -64l-40 -86q-21 -47 -48 -73t-67 -34l288 -365h-118l-243 322v-128h-20v128h-27v-322h-91v700h91v-296h27v149h20v-149z" />
    <glyph glyph-name="uni049D" unicode="&#x49d;" horiz-adv-x="494" 
d="M201 259h6q16 0 26.5 10.5t28.5 41.5l54 86q21 33 43 47.5t56 14.5h44v-71h-24q-38 0 -63 -36l-34 -56q-21 -32 -34.5 -44t-33.5 -15l200 -237h-105l-164 211v-102h-18v102h-18v-211h-87v454h87v-195h18v95h18v-95z" />
    <glyph glyph-name="uni049E" unicode="&#x49e;" horiz-adv-x="603" 
d="M87 700h91v-95h79v-63h-79v-130h17q74 0 121 80l62 105q32 52 68 79.5t86 27.5h42v-82h-26q-59 0 -95 -64l-54 -94q-47 -82 -138 -99l325 -365h-118l-290 336v-336h-91v542h-67v63h67v95z" />
    <glyph glyph-name="uni049F" unicode="&#x49f;" horiz-adv-x="491" 
d="M75 454h87v-55h65v-52h-65v-88h13q39 0 73 52l59 86q40 62 103 62h46v-71h-27q-37 0 -62 -36l-37 -56q-34 -52 -93 -59l229 -237h-105l-199 211v-211h-87v347h-59v52h59v55z" />
    <glyph glyph-name="uni04A0" unicode="&#x4a0;" horiz-adv-x="669" 
d="M13 618v82h232v-288h16q74 0 121 80l63 105q62 107 154 107h42v-82h-27q-59 0 -95 -64l-54 -94q-45 -82 -138 -99l325 -365h-117l-290 336v-336h-91v618h-141z" />
    <glyph glyph-name="uni04A1" unicode="&#x4a1;" horiz-adv-x="520" 
d="M16 381v73h175v-195h14q38 0 73 52l58 86q22 33 45.5 47.5t58.5 14.5h46v-71h-27q-38 0 -63 -36l-37 -56q-34 -52 -93 -59l230 -237h-105l-200 211v-211h-87v381h-88z" />
    <glyph glyph-name="uni04A2" unicode="&#x4a2;" horiz-adv-x="667" 
d="M495 0v307h-326v-307h-91v700h91v-311h326v311h91v-618h51v-179h-91v97h-51z" />
    <glyph glyph-name="uni04A3" unicode="&#x4a3;" horiz-adv-x="587" 
d="M406 193h-241v-193h-87v454h87v-188h241v188h86v-381h62v-155h-86v82h-62v193z" />
    <glyph glyph-name="uni04A4" unicode="&#x4a4;" horiz-adv-x="769" 
d="M586 0h-91v307h-326v-307h-91v700h91v-311h326v311h261v-82h-170v-618z" />
    <glyph glyph-name="uni04A5" unicode="&#x4a5;" horiz-adv-x="634" 
d="M618 454v-73h-126v-381h-86v193h-241v-193h-87v454h87v-188h241v188h212z" />
    <glyph glyph-name="uni04A6" unicode="&#x4a6;" horiz-adv-x="691" 
d="M169 618v-618h-91v700h510v-618h73v-179h-91v97h-73v618h-328z" />
    <glyph glyph-name="uni04A7" unicode="&#x4a7;" horiz-adv-x="584" 
d="M489 73h61v-155h-86v82h-62v381h-237v-381h-87v454h411v-381z" />
    <glyph glyph-name="uni04A8" unicode="&#x4a8;" horiz-adv-x="818" 
d="M373 634q-108 0 -172.5 -77.5t-64.5 -191.5q0 -123 71 -210t187 -89q9 0 12 1v438q0 212 179 212q178 0 178 -208v-139q0 -133 -74.5 -238.5t-199.5 -137.5v-106q0 -27 19.5 -43t49.5 -16q51 0 59 4v-83q-6 -3 -71 -3q-63 0 -101.5 36t-38.5 96v106h-12
q-161 2 -257 107.5t-96 261.5q0 148 92 255t240 107v-82zM671 370v151q0 54 -22.5 88.5t-65.5 34.5q-44 0 -69 -32.5t-25 -88.5v-439q83 29 132.5 109.5t49.5 176.5z" />
    <glyph glyph-name="uni04A9" unicode="&#x4a9;" horiz-adv-x="562" 
d="M253 385q-60 0 -93 -42.5t-33 -106.5q0 -71 38.5 -119t102.5 -50h7v259q0 139 122 139q124 0 124 -136v-93q0 -84 -47.5 -150.5t-127.5 -87.5v-125q0 -26 12 -40t33 -14q36 0 44 4v-74q-5 -3 -56 -3q-50 0 -77 34.5t-27 92.5v115h-7q-103 2 -165 73.5t-62 174.5
q0 94 57 161t155 67v-79zM443 240v77q0 75 -49 75q-48 0 -48 -76v-232q45 21 71 63t26 93z" />
    <glyph glyph-name="uni04AA" unicode="&#x4aa;" horiz-adv-x="775" 
d="M640 455q-17 80 -78 129.5t-156 49.5q-124 0 -198 -83.5t-74 -199.5q0 -120 77 -202.5t208 -82.5q73 0 134 42t83 108h100q-26 -98 -111 -162.5t-203 -68.5h-8v-51q16 18 48 18t54.5 -22t22.5 -59t-26 -63.5t-73 -26.5q-17 0 -34.5 5t-37.5 24t-25 50h53q8 -32 44 -32
q20 0 33 12t13 31t-12 31t-31 12q-29 0 -41 -23h-45v96q-145 18 -230.5 121t-85.5 243q0 148 98 256.5t256 108.5q145 0 232.5 -72.5t108.5 -188.5h-96z" />
    <glyph glyph-name="uni04AB" unicode="&#x4ab;" horiz-adv-x="529" 
d="M221 -7q-84 17 -131 82.5t-47 151.5q0 98 60 168.5t166 70.5q102 0 155 -51.5t60 -125.5h-87q-12 99 -126 99q-67 0 -104 -46.5t-37 -114.5q0 -69 37 -114.5t109 -45.5q54 0 82 22.5t40 66.5h87q-12 -72 -62 -117t-138 -50q-5 0 -6 1v-56q15 18 48 18q31 0 53.5 -22
t22.5 -59t-26 -63.5t-73 -26.5q-16 0 -33.5 5t-38 24t-25.5 50h53q11 -32 44 -32q21 0 33.5 12t12.5 31t-12 31t-31 12q-28 0 -40 -23h-46v102z" />
    <glyph glyph-name="uni04AC" unicode="&#x4ac;" horiz-adv-x="478" 
d="M193 618h-181v82h454v-82h-182v-536h52v-179h-92v97h-51v618z" />
    <glyph glyph-name="uni04AD" unicode="&#x4ad;" horiz-adv-x="384" 
d="M372 454v-73h-137v-308h61v-155h-86v82h-62v381h-135v73h359z" />
    <glyph glyph-name="uni04AE" unicode="&#x4ae;" horiz-adv-x="617" 
d="M308 372l194 328h106l-253 -415v-285h-92v284l-253 416h105z" />
    <glyph glyph-name="uni04AF" unicode="&#x4af;" horiz-adv-x="500" 
d="M249 121l146 333h94l-197 -426v-275h-87v275l-194 426h94z" />
    <glyph glyph-name="uni04B0" unicode="&#x4b0;" horiz-adv-x="617" 
d="M355 162v-162h-92v162h-117v70h117v52l-253 416h105l193 -328l194 328h106l-253 -415v-53h116v-70h-116z" />
    <glyph glyph-name="uni04B1" unicode="&#x4b1;" horiz-adv-x="500" 
d="M249 121l146 333h94l-197 -426v-47h90v-59h-90v-169h-87v169h-89v59h89v47l-194 426h94z" />
    <glyph glyph-name="uni04B2" unicode="&#x4b2;" horiz-adv-x="548" 
d="M476 -85v85h-41l-161 271l-161 -271h-103l212 350l-212 350h103l161 -271l161 271h104l-213 -350l213 -350v-85h-63z" />
    <glyph glyph-name="uni04B3" unicode="&#x4b3;" horiz-adv-x="440" 
d="M361 -82v82h-37l-104 161l-104 -161h-100l154 229l-152 225h100l102 -158l102 158h100l-152 -225l154 -229v-82h-63z" />
    <glyph glyph-name="uni04B4" unicode="&#x4b4;" horiz-adv-x="784" 
d="M285 82h303v618h91v-618h90v-179h-82v97h-494v618h-180v82h453v-82h-181v-536z" />
    <glyph glyph-name="uni04B5" unicode="&#x4b5;" horiz-adv-x="641" 
d="M220 73h230v381h87v-381h74v-155h-86v82h-392v381h-117v73h322v-73h-118v-308z" />
    <glyph glyph-name="uni04B6" unicode="&#x4b6;" horiz-adv-x="599" 
d="M405 0v222h-140q-110 0 -170.5 63t-60.5 162v253h91v-230q0 -79 40 -122.5t117 -43.5h123v396h91v-618h73v-179h-91v97h-73z" />
    <glyph glyph-name="uni04B7" unicode="&#x4b7;" horiz-adv-x="487" 
d="M306 0v139h-111q-160 0 -160 155v160h87v-158q0 -84 86 -84h98v242h87v-381h61v-155h-86v82h-62z" />
    <glyph glyph-name="uni04B8" unicode="&#x4b8;" horiz-adv-x="579" 
d="M315 304h95v396h91v-700h-91v222h-95v-92h-59v92q-102 4 -159.5 67t-57.5 158v253h91v-230q0 -145 126 -163v113h59v-116z" />
    <glyph glyph-name="uni04B9" unicode="&#x4b9;" horiz-adv-x="485" 
d="M243 212h63v242h87v-454h-87v139h-63v-84h-46v84h-3q-77 0 -118 39t-41 116v160h87v-158q0 -80 75 -84v103h46v-103z" />
    <glyph glyph-name="uni04BA" unicode="&#x4ba;" horiz-adv-x="601" 
d="M78 700h91v-220h140q104 0 163 -62t59 -160v-258h-91v235q0 78 -38 120.5t-110 42.5h-123v-398h-91v700z" />
    <glyph glyph-name="uni04BB" unicode="&#x4bb;" horiz-adv-x="565" 
d="M78 700h87v-326q21 43 62 67.5t98 24.5q94 0 136 -60q35 -49 35 -138v-268h-87v241q0 148 -115 148q-62 0 -95.5 -45t-33.5 -110v-234h-87v700z" />
    <glyph glyph-name="uni04BC" unicode="&#x4bc;" horiz-adv-x="927" 
d="M548 -12q-86 0 -154 27t-110.5 73.5t-66.5 104.5t-28 124h-47q-62 0 -97.5 37t-35.5 97v51h81v-49q0 -63 62 -63h37q12 144 106.5 235.5t251.5 91.5q146 0 243 -98.5t97 -240.5v-61h-590q7 -109 68.5 -177t182.5 -68q165 0 220 142h110q-23 -93 -112 -159.5t-218 -66.5z
M543 635q-109 0 -177.5 -66.5t-68.5 -178.5h494q0 108 -69.5 176.5t-178.5 68.5z" />
    <glyph glyph-name="uni04BD" unicode="&#x4bd;" horiz-adv-x="632" 
d="M242 204q2 -63 36 -102.5t104 -39.5q87 0 115 72h88q-10 -60 -65.5 -102.5t-137.5 -42.5q-103 0 -161 59.5t-64 154.5l-18 1q-60 0 -95 33.5t-35 89.5v45h75v-44q0 -58 58 -58h16q12 89 69.5 142.5t151.5 53.5q88 0 149.5 -59t61.5 -146q0 -32 -4 -57h-344zM377 399
q-60 0 -96.5 -34t-38.5 -95h263q0 59 -36 94t-92 35z" />
    <glyph glyph-name="uni04BE" unicode="&#x4be;" horiz-adv-x="927" 
d="M508 -10q-144 12 -227 102t-92 225h-47q-62 0 -97.5 37t-35.5 97v51h81v-49q0 -63 62 -63h37q12 144 106.5 235.5t251.5 91.5q146 0 243 -98.5t97 -240.5v-61h-590q7 -109 68.5 -177t182.5 -68q165 0 220 142h110q-21 -91 -103 -155.5t-202 -70.5q-32 -30 -32 -75
q0 -25 15 -42t43 -17q31 0 64 13l-1 -64q-45 -15 -89 -15q-55 0 -85 27.5t-30 69.5q0 61 50 105zM543 635q-109 0 -177.5 -66.5t-68.5 -178.5h494q0 108 -69.5 176.5t-178.5 68.5z" />
    <glyph glyph-name="uni04BF" unicode="&#x4bf;" horiz-adv-x="632" 
d="M342 -8q-85 12 -132 69t-53 142l-18 1q-60 0 -95 33.5t-35 89.5v45h75v-44q0 -58 58 -58h16q12 89 69.5 142.5t151.5 53.5q88 0 149.5 -59t61.5 -146q0 -32 -4 -57h-344q2 -63 36 -102.5t104 -39.5q87 0 115 72h88q-10 -56 -59.5 -97.5t-121.5 -47.5q-40 -37 -40 -76
q0 -25 15.5 -42t42.5 -17q33 0 64 13l-1 -64q-45 -15 -89 -15q-55 0 -85 27.5t-30 69.5q0 56 61 107zM377 399q-60 0 -96.5 -34t-38.5 -95h263q0 59 -36 94t-92 35z" />
    <glyph glyph-name="uni04C0" unicode="&#x4c0;" horiz-adv-x="250" 
d="M78 700h94v-700h-94v700z" />
    <glyph glyph-name="uni04C3" unicode="&#x4c3;" horiz-adv-x="615" 
d="M169 398h23q35 0 57 17.5t50 67.5l66 115q62 107 155 107h43v-83h-26q-62 0 -97 -63l-58 -103q-11 -21 -29.5 -38t-33.5 -20h15q92 -8 136 -52q46 -45 46 -136v-332q0 -60 -38.5 -96t-101.5 -36q-65 0 -71 3v83q8 -4 52 -4q30 0 49 16t19 43v293q0 75 -35.5 120.5
t-102.5 45.5h-118v-346h-91v700h91v-302z" />
    <glyph glyph-name="uni04C4" unicode="&#x4c4;" horiz-adv-x="522" 
d="M165 255h16q30 0 71 56l58 86q22 33 45.5 47.5t58.5 14.5h49v-71h-30q-38 0 -63 -36l-34 -52q-21 -32 -55 -45h10q75 -7 116 -60q31 -40 31 -131v-186q0 -60 -37 -96t-99 -36q-61 0 -67 3v74q8 -4 52 -4q30 0 47.5 15.5t17.5 43.5v207q0 116 -103 116h-84v-201h-87v454
h87v-199z" />
    <glyph glyph-name="uni04C5" unicode="&#x4c5;" horiz-adv-x="687" 
d="M10 70h42q62 0 62 63v567h481v-618h61l-68 -179h-91l37 97h-31v618h-297v-496q0 -64 -36 -99t-95 -35h-65v82z" />
    <glyph glyph-name="uni04C6" unicode="&#x4c6;" horiz-adv-x="566" 
d="M18 69h24q26 0 39 11t13 41v333h389v-372h45l-67 -176h-84l36 94h-17v381h-215v-269q0 -60 -32.5 -90.5t-88.5 -30.5h-42v78z" />
    <glyph glyph-name="uni04C7" unicode="&#x4c7;" horiz-adv-x="659" 
d="M586 -122q0 -60 -34 -96t-91 -36q-65 0 -71 3v83q4 -4 51 -4q25 0 39.5 16t14.5 44v419h-326v-307h-91v700h91v-311h326v311h91v-822z" />
    <glyph glyph-name="uni04C8" unicode="&#x4c8;" horiz-adv-x="566" 
d="M492 -122q0 -69 -27.5 -101t-70.5 -32q-51 0 -78 12v73q23 -8 44 -8q46 0 46 61v310h-241v-193h-87v454h87v-188h241v188h86v-576z" />
    <glyph glyph-name="uni04C9" unicode="&#x4c9;" horiz-adv-x="673" 
d="M495 307h-326v-307h-91v700h91v-311h326v311h91v-618h62l-68 -179h-92l37 97h-30v307z" />
    <glyph glyph-name="uni04CA" unicode="&#x4ca;" horiz-adv-x="579" 
d="M409 193h-240v-193h-87v454h87v-188h240v188h87v-372h45l-66 -176h-84l35 94h-17v193z" />
    <glyph glyph-name="uni04CB" unicode="&#x4cb;" horiz-adv-x="579" 
d="M449 0v-97h-91v179h52v140h-140q-110 0 -170.5 63t-60.5 162v253h91v-230q0 -79 40 -122.5t117 -43.5h123v396h91v-700h-52z" />
    <glyph glyph-name="uni04CC" unicode="&#x4cc;" horiz-adv-x="484" 
d="M303 0v139h-111q-159 0 -159 155v160h86v-158q0 -84 86 -84h98v242h87v-381h61v-155h-86v82h-62z" />
    <glyph glyph-name="uni04CD" unicode="&#x4cd;" horiz-adv-x="826" 
d="M734 82h61l-68 -179h-91l37 97h-31v488l-201 -488h-70l-202 488v-488h-91v700h88l240 -560l240 560h88v-618z" />
    <glyph glyph-name="uni04CE" unicode="&#x4ce;" horiz-adv-x="716" 
d="M632 82h46l-67 -176h-76l35 94h-17v378l-168 -378h-59l-169 378v-378h-79v454h126l151 -338l151 338h126v-372z" />
    <glyph glyph-name="uni04D0" unicode="&#x4d0;" horiz-adv-x="559" 
d="M554 0h-96l-37 107h-284l-36 -107h-96l241 700h66zM165 190h228l-113 361zM280 843q88 0 112 83h81q-12 -66 -65.5 -108.5t-127.5 -42.5t-128 42.5t-66 108.5h82q24 -83 112 -83z" />
    <glyph glyph-name="uni04D1" unicode="&#x4d1;" horiz-adv-x="597" 
d="M519 454v-454h-86v79q-22 -42 -65 -66t-94 -24q-102 0 -167.5 70t-65.5 168q0 99 65.5 169t167.5 70q51 0 94 -24t65 -66v78h86zM279 67q68 0 111 46.5t43 113.5t-43 114t-111 47q-67 0 -109.5 -47t-42.5 -114t42.5 -113.5t109.5 -46.5zM278 617q42 0 70.5 22t38.5 61h82
q-12 -66 -65.5 -108.5t-125.5 -42.5q-74 0 -126.5 42.5t-64.5 108.5h81q11 -39 39.5 -61t70.5 -22z" />
    <glyph glyph-name="uni04D2" unicode="&#x4d2;" horiz-adv-x="559" 
d="M554 0h-96l-37 107h-284l-36 -107h-96l241 700h66zM165 190h228l-113 361zM325 843q0 29 20.5 50t49.5 21t49.5 -21t20.5 -50t-20.5 -49t-49.5 -20t-49.5 20t-20.5 49zM96 843q0 29 20 50t49 21t50 -21t21 -50t-21 -49t-50 -20t-49 20t-20 49z" />
    <glyph glyph-name="uni04D3" unicode="&#x4d3;" horiz-adv-x="597" 
d="M433 0v79q-22 -42 -65 -66t-94 -24q-102 0 -167.5 70t-65.5 168q0 99 65.5 169t167.5 70q51 0 94 -24t65 -66v78h86v-454h-86zM279 67q68 0 111 46.5t43 113.5t-43 114t-111 47q-67 0 -109.5 -47t-42.5 -114t42.5 -113.5t109.5 -46.5zM392 540q-29 0 -49 20.5t-20 49.5
t20 49.5t49 20.5q30 0 50.5 -20.5t20.5 -49.5t-20.5 -49.5t-50.5 -20.5zM163 540q-29 0 -49.5 20.5t-20.5 49.5t20.5 49.5t49.5 20.5t49.5 -20.5t20.5 -49.5t-20.5 -49.5t-49.5 -20.5z" />
    <glyph glyph-name="uni04D4" unicode="&#x4d4;" horiz-adv-x="864" 
d="M489 618v-229h302v-82h-302v-225h302v-82h-393v108h-242l-52 -108h-99l345 700h441v-82h-302zM398 190v418l-202 -418h202z" />
    <glyph glyph-name="uni04D5" unicode="&#x4d5;" horiz-adv-x="914" 
d="M519 454v-40q54 52 137 52q88 0 149.5 -59t61.5 -146q0 -32 -4 -57h-342q0 -63 35 -102.5t103 -39.5q87 0 115 72h88q-13 -61 -67.5 -103t-135.5 -42q-86 0 -140 52v-41h-86v79q-22 -42 -65 -66t-94 -24q-102 0 -167.5 70t-65.5 168q0 99 65.5 169t167.5 70q51 0 94 -24
t65 -66v78h86zM654 392q-58 0 -94 -32.5t-38 -89.5h260q0 54 -36.5 88t-91.5 34zM279 67q68 0 111 46.5t43 113.5q0 68 -43 114.5t-111 46.5q-67 0 -109.5 -47t-42.5 -114t42.5 -113.5t109.5 -46.5z" />
    <glyph glyph-name="uni04D6" unicode="&#x4d6;" horiz-adv-x="544" 
d="M169 618v-229h302v-82h-302v-225h302v-82h-393v700h393v-82h-302zM276 843q88 0 112 83h81q-12 -66 -65.5 -108.5t-127.5 -42.5t-128 42.5t-66 108.5h82q24 -83 112 -83z" />
    <glyph glyph-name="uni04D7" unicode="&#x4d7;" horiz-adv-x="525" 
d="M129 204q2 -62 36.5 -102t104.5 -40q87 0 115 72h88q-13 -61 -67 -103t-136 -42q-110 0 -168.5 67t-58.5 171q0 106 59.5 172.5t164.5 66.5q89 0 149.5 -59t60.5 -146q0 -32 -4 -57h-344zM265 399q-60 0 -96.5 -34t-38.5 -95h263q0 59 -36 94t-92 35zM266 617
q42 0 70.5 22t39.5 61h81q-12 -66 -65 -108.5t-126 -42.5q-74 0 -126.5 42.5t-64.5 108.5h82q10 -39 38.5 -61t70.5 -22z" />
    <glyph glyph-name="uni04D8" unicode="&#x4d8;" horiz-adv-x="780" 
d="M49 491q21 95 110 160.5t220 65.5q173 0 266.5 -103.5t93.5 -261.5t-96 -261t-263 -103q-146 0 -243 99t-97 244v60h601q-7 108 -71 174.5t-191 66.5q-166 0 -220 -141h-110zM384 69q113 0 185 68t72 182h-505q0 -110 69.5 -180t178.5 -70z" />
    <glyph glyph-name="uni04D9" unicode="&#x4d9;" horiz-adv-x="525" 
d="M261 55q59 0 96 34.5t39 95.5h-264q0 -59 36 -94.5t93 -35.5zM396 251q-9 141 -141 141q-88 0 -115 -71h-87q11 60 65.5 102.5t136.5 42.5q110 0 168.5 -67.5t58.5 -171.5q0 -105 -59.5 -171.5t-164.5 -66.5q-89 0 -149.5 58.5t-60.5 145.5q0 31 4 58h344z" />
    <glyph glyph-name="uni04DA" unicode="&#x4da;" horiz-adv-x="780" 
d="M49 491q21 95 110 160.5t220 65.5q173 0 266.5 -103.5t93.5 -261.5t-96 -261t-263 -103q-146 0 -243 99t-97 244v60h601q-7 108 -71 174.5t-191 66.5q-166 0 -220 -141h-110zM384 69q113 0 185 68t72 182h-505q0 -110 69.5 -180t178.5 -70zM272 774q-29 0 -49 20t-20 49
t20 50t49 21t50 -21t21 -50t-21 -49t-50 -20zM432 843q0 29 20.5 50t49.5 21t49.5 -21t20.5 -50t-20.5 -49t-49.5 -20t-49.5 20t-20.5 49z" />
    <glyph glyph-name="uni04DB" unicode="&#x4db;" horiz-adv-x="525" 
d="M396 251q-9 141 -141 141q-88 0 -115 -71h-87q11 60 65.5 102.5t136.5 42.5q110 0 168.5 -67.5t58.5 -171.5q0 -105 -59.5 -171.5t-164.5 -66.5q-89 0 -149.5 58.5t-60.5 145.5q0 31 4 58h344zM260 55q60 0 97 34.5t39 95.5h-264q0 -59 36 -94.5t92 -35.5zM309 609
q0 30 20.5 50.5t49.5 20.5t49.5 -20.5t20.5 -50.5q0 -29 -20.5 -49t-49.5 -20t-49.5 20t-20.5 49zM79 609q0 30 20.5 50.5t49.5 20.5t49.5 -20.5t20.5 -50.5q0 -29 -20.5 -49t-49.5 -20t-49.5 20t-20.5 49z" />
    <glyph glyph-name="uni04DC" unicode="&#x4dc;" horiz-adv-x="870" 
d="M124 0h-117l299 362q-81 16 -127 104l-47 89q-38 67 -91 67h-25v82h37q91 0 152 -111l58 -107q47 -88 111 -88h17v302h88v-302h17q63 0 111 88l58 107q60 111 152 111h37v-82h-25q-53 0 -91 -67l-47 -89q-46 -88 -127 -104l299 -362h-118l-266 337v-337h-88v337zM479 843
q0 29 20.5 50t49.5 21t49.5 -21t20.5 -50t-20.5 -49t-49.5 -20t-49.5 20t-20.5 49zM250 843q0 29 20 50t49 21q30 0 50.5 -21t20.5 -50t-20.5 -49t-50.5 -20q-29 0 -49 20t-20 49z" />
    <glyph glyph-name="uni04DD" unicode="&#x4dd;" horiz-adv-x="668" 
d="M114 0h-100l211 235q-70 5 -98 60l-26 48q-25 45 -59 45h-25v71h37q68 0 108 -69l43 -76q17 -28 32.5 -40t40.5 -12h15v192h82v-192h15q25 0 40.5 12t32.5 40l42 76q40 69 108 69h38v-71h-25q-34 0 -59 -45l-26 -48q-30 -55 -98 -60l211 -235h-100l-179 214v-214h-82v214
zM219 540q-29 0 -49.5 20.5t-20.5 49.5t20.5 49.5t49.5 20.5t49.5 -20.5t20.5 -49.5t-20.5 -49.5t-49.5 -20.5zM448 540q-29 0 -49 20.5t-20 49.5t20 49.5t49 20.5t50 -20.5t21 -49.5t-21 -49.5t-50 -20.5z" />
    <glyph glyph-name="uni04DE" unicode="&#x4de;" horiz-adv-x="573" 
d="M134 221q0 -68 44 -109.5t110 -41.5q64 0 101 36t37 90q0 123 -150 123h-46v81h47q70 0 104 33t34 83q0 49 -36 81.5t-96 32.5q-64 0 -104.5 -34.5t-40.5 -93.5h-91q0 94 67 152t174 58q95 0 156.5 -49.5t61.5 -139.5q0 -60 -33 -102.5t-88 -54.5q58 -10 95 -56t37 -114
q0 -92 -65 -150t-165 -58q-109 0 -176.5 62t-67.5 171h91zM168 774q-29 0 -49.5 20t-20.5 49t20.5 50t49.5 21t49.5 -21t20.5 -50t-20.5 -49t-49.5 -20zM328 843q0 29 20 50t49 21t50 -21t21 -50t-21 -49t-50 -20t-49 20t-20 49z" />
    <glyph glyph-name="uni04DF" unicode="&#x4df;" horiz-adv-x="429" 
d="M117 135q0 -34 25.5 -54.5t72.5 -20.5q39 0 62.5 17t23.5 48q0 33 -23 52.5t-68 19.5h-49v62h44q87 0 87 71q0 30 -22 48t-60 18q-86 0 -86 -73h-84q0 64 46.5 103.5t124.5 39.5q74 0 119 -35t45 -90q0 -46 -25.5 -73.5t-69.5 -34.5q47 -5 75.5 -34.5t28.5 -76.5
q0 -60 -50.5 -96.5t-124.5 -36.5q-83 0 -129.5 39.5t-46.5 106.5h84zM114 540q-29 0 -49.5 20.5t-20.5 49.5t20.5 49.5t49.5 20.5t49.5 -20.5t20.5 -49.5t-20.5 -49.5t-49.5 -20.5zM228 610q0 29 20.5 49.5t50.5 20.5q29 0 49 -20.5t20 -49.5t-20 -49.5t-49 -20.5
q-30 0 -50.5 20.5t-20.5 49.5z" />
    <glyph glyph-name="uni04E0" unicode="&#x4e0;" horiz-adv-x="580" 
d="M131 217q0 -67 44 -107t110 -40q64 0 101 39t37 97q0 140 -146 140h-85l186 272h-288v82h438l-205 -289q84 -4 137.5 -59.5t53.5 -141.5q0 -97 -65.5 -159.5t-164.5 -62.5q-109 0 -176.5 61.5t-67.5 167.5h91z" />
    <glyph glyph-name="uni04E1" unicode="&#x4e1;" horiz-adv-x="495" 
d="M107 -63q2 -56 36 -87.5t83 -31.5q58 0 93 41.5t35 115.5q0 77 -48 118.5t-134 41.5h-48l192 242h-250v77h399l-214 -268q83 -8 136 -66t53 -139q0 -110 -59 -173.5t-156 -63.5q-92 0 -146.5 50.5t-55.5 142.5h84z" />
    <glyph glyph-name="uni04E2" unicode="&#x4e2;" horiz-adv-x="663" 
d="M494 519l-325 -472v-47h-91v700h91v-519l325 472v47h91v-700h-91v519zM521 802h-358v77h358v-77z" />
    <glyph glyph-name="uni04E3" unicode="&#x4e3;" horiz-adv-x="564" 
d="M400 316l-235 -279v-37h-87v454h87v-319l235 281v38h86v-454h-86v316zM464 570h-358v78h358v-78z" />
    <glyph glyph-name="uni04E4" unicode="&#x4e4;" horiz-adv-x="663" 
d="M494 519l-325 -472v-47h-91v700h91v-519l325 472v47h91v-700h-91v519zM384 843q0 29 20.5 50t49.5 21t49.5 -21t20.5 -50t-20.5 -49t-49.5 -20t-49.5 20t-20.5 49zM155 843q0 29 20 50t49 21q30 0 50.5 -21t20.5 -50t-20.5 -49t-50.5 -20q-29 0 -49 20t-20 49z" />
    <glyph glyph-name="uni04E5" unicode="&#x4e5;" horiz-adv-x="564" 
d="M400 316l-235 -279v-37h-87v454h87v-319l235 281v38h86v-454h-86v316zM173 540q-29 0 -49.5 20.5t-20.5 49.5t20.5 49.5t49.5 20.5t49.5 -20.5t20.5 -49.5t-20.5 -49.5t-49.5 -20.5zM402 540q-29 0 -49 20.5t-20 49.5t20 49.5t49 20.5q30 0 50.5 -20.5t20.5 -49.5
t-20.5 -49.5t-50.5 -20.5z" />
    <glyph glyph-name="uni04E6" unicode="&#x4e6;" horiz-adv-x="803" 
d="M402 -16q-108 0 -192 52.5t-126.5 135t-42.5 178.5t42.5 178.5t126.5 135t192 52.5t192 -52.5t126.5 -135t42.5 -178.5t-42.5 -178.5t-126.5 -135t-192 -52.5zM136 350q0 -115 74 -199.5t192 -84.5t191.5 84.5t73.5 199.5q0 116 -73 200t-192 84t-192.5 -84t-73.5 -200z
M286 774q-29 0 -49 20t-20 49t20 50t49 21q30 0 50.5 -21t20.5 -50t-20.5 -49t-50.5 -20zM446 843q0 29 20.5 50t49.5 21t49.5 -21t20.5 -50t-20.5 -49t-49.5 -20t-49.5 20t-20.5 49z" />
    <glyph glyph-name="uni04E7" unicode="&#x4e7;" horiz-adv-x="560" 
d="M165 540q-29 0 -49.5 20.5t-20.5 49.5t20.5 49.5t49.5 20.5t49.5 -20.5t20.5 -49.5t-20.5 -49.5t-49.5 -20.5zM325 610q0 29 20 49.5t49 20.5t50 -20.5t21 -49.5t-21 -49.5t-50 -20.5t-49 20.5t-20 49.5zM279 67q68 0 111 46.5t43 113.5t-43 114t-111 47
q-67 0 -109.5 -47t-42.5 -114t42.5 -113.5t109.5 -46.5zM279 -11q-105 0 -171.5 69.5t-66.5 168.5q0 100 66.5 169.5t171.5 69.5q107 0 173.5 -69.5t66.5 -169.5q0 -99 -66.5 -168.5t-173.5 -69.5z" />
    <glyph glyph-name="uni04E8" unicode="&#x4e8;" horiz-adv-x="803" 
d="M402 -16q-108 0 -192 52.5t-126.5 135t-42.5 178.5t42.5 178.5t126.5 135t192 52.5t192 -52.5t126.5 -135t42.5 -178.5t-42.5 -178.5t-126.5 -135t-192 -52.5zM402 634q-110 0 -182.5 -74.5t-81.5 -179.5h527q-10 106 -81 180t-182 74zM402 66q111 0 182 74t81 181h-527
q9 -106 81 -180.5t183 -74.5z" />
    <glyph glyph-name="uni04E9" unicode="&#x4e9;" horiz-adv-x="560" 
d="M279 -11q-105 0 -171.5 69.5t-66.5 168.5q0 100 66.5 169.5t171.5 69.5q107 0 173.5 -69.5t66.5 -169.5q0 -99 -66.5 -168.5t-173.5 -69.5zM279 388q-60 0 -100.5 -37t-48.5 -95h300q-10 58 -50 95t-101 37zM279 67q61 0 101.5 36.5t49.5 93.5h-300q9 -56 49 -93t100 -37
z" />
    <glyph glyph-name="uni04EA" unicode="&#x4ea;" horiz-adv-x="803" 
d="M402 -16q-108 0 -192 52.5t-126.5 135t-42.5 178.5t42.5 178.5t126.5 135t192 52.5t192 -52.5t126.5 -135t42.5 -178.5t-42.5 -178.5t-126.5 -135t-192 -52.5zM402 634q-110 0 -182.5 -74.5t-81.5 -179.5h527q-10 106 -81 180t-182 74zM402 66q111 0 182 74t81 181h-527
q9 -106 81 -180.5t183 -74.5zM449 854q0 28 19.5 47.5t47.5 19.5q29 0 48 -19.5t19 -47.5t-19 -47.5t-48 -19.5q-28 0 -47.5 19.5t-19.5 47.5zM286 787q-28 0 -47 19.5t-19 47.5t19 47.5t47 19.5q29 0 48.5 -19.5t19.5 -47.5t-19.5 -47.5t-48.5 -19.5z" />
    <glyph glyph-name="uni04EB" unicode="&#x4eb;" horiz-adv-x="560" 
d="M279 -11q-105 0 -171.5 69.5t-66.5 168.5q0 100 66.5 169.5t171.5 69.5q107 0 173.5 -69.5t66.5 -169.5q0 -99 -66.5 -168.5t-173.5 -69.5zM279 388q-60 0 -100.5 -37t-48.5 -95h300q-10 58 -50 95t-101 37zM279 67q61 0 101.5 36.5t49.5 93.5h-300q9 -56 49 -93t100 -37
zM328 625q0 29 19 48.5t47 19.5q29 0 48.5 -19.5t19.5 -48.5q0 -28 -19.5 -47t-48.5 -19q-28 0 -47 19t-19 47zM165 559q-28 0 -47.5 19t-19.5 47q0 29 19.5 48.5t47.5 19.5t47.5 -19.5t19.5 -48.5q0 -28 -19.5 -47t-47.5 -19z" />
    <glyph glyph-name="uni04EC" unicode="&#x4ec;" horiz-adv-x="753" 
d="M270 390h347q-10 108 -74.5 176t-169.5 68q-96 0 -157.5 -49.5t-78.5 -129.5h-96q21 117 105.5 189t230.5 72q154 0 245 -104.5t91 -260.5q0 -160 -93.5 -263.5t-255.5 -103.5q-121 0 -209 65.5t-115 166.5h100q20 -65 84.5 -107.5t139.5 -42.5q109 0 175 66t78 175h-347
v83zM259 774q-29 0 -49.5 20t-20.5 49t20.5 50t49.5 21t49.5 -21t20.5 -50t-20.5 -49t-49.5 -20zM419 843q0 29 20 50t49 21t50 -21t21 -50t-21 -49t-50 -20t-49 20t-20 49z" />
    <glyph glyph-name="uni04ED" unicode="&#x4ed;" horiz-adv-x="530" 
d="M42 289q2 75 60.5 126t154.5 51q112 0 172 -69.5t60 -169.5t-60 -169t-172 -69q-96 0 -154.5 47.5t-62.5 119.5h87q16 -89 134 -89q128 0 140 127h-191v66h191q-4 57 -39.5 92.5t-100.5 35.5q-61 0 -93.5 -27.5t-39.5 -71.5h-86zM146 540q-29 0 -49.5 20.5t-20.5 49.5
t20.5 49.5t49.5 20.5t49.5 -20.5t20.5 -49.5t-20.5 -49.5t-49.5 -20.5zM305 610q0 29 20.5 49.5t50.5 20.5q29 0 49 -20.5t20 -49.5t-20 -49.5t-49 -20.5q-30 0 -50.5 20.5t-20.5 49.5z" />
    <glyph glyph-name="uni04EE" unicode="&#x4ee;" horiz-adv-x="591" 
d="M234 0h-100l140 278l-264 422h106l205 -327l165 327h100zM495 802h-358v77h358v-77z" />
    <glyph glyph-name="uni04EF" unicode="&#x4ef;" horiz-adv-x="573" 
d="M282 -256q-99 0 -154.5 50t-57.5 147h88q7 -123 126 -123q62 0 94.5 30.5t32.5 104.5v128q-44 -92 -159 -92q-94 0 -138 58q-34 48 -34 142v265h87v-238q0 -72 26 -111t90 -39q62 0 95 44.5t33 110.5v233h87v-501q0 -209 -216 -209zM472 570h-358v78h358v-78z" />
    <glyph glyph-name="uni04F0" unicode="&#x4f0;" horiz-adv-x="591" 
d="M234 0h-100l140 278l-264 422h106l205 -327l165 327h100zM364 843q0 29 19.5 48.5t47.5 19.5q29 0 48 -19.5t19 -48.5q0 -28 -19 -47t-48 -19q-28 0 -47.5 19t-19.5 47zM135 843q0 29 19 48.5t47 19.5q29 0 48.5 -19.5t19.5 -48.5q0 -28 -19.5 -47t-48.5 -19
q-28 0 -47 19t-19 47z" />
    <glyph glyph-name="uni04F1" unicode="&#x4f1;" horiz-adv-x="573" 
d="M282 -256q-99 0 -154.5 50t-57.5 147h88q7 -123 126 -123q62 0 94.5 30.5t32.5 104.5v128q-44 -92 -159 -92q-94 0 -138 58q-34 48 -34 142v265h87v-238q0 -72 26 -111t90 -39q62 0 95 44.5t33 110.5v233h87v-501q0 -209 -216 -209zM344 609q0 29 19 48.5t47 19.5
q29 0 48.5 -19.5t19.5 -48.5q0 -28 -19.5 -47t-48.5 -19q-28 0 -47 19t-19 47zM114 609q0 29 19.5 48.5t47.5 19.5t47.5 -19.5t19.5 -48.5q0 -28 -19.5 -47t-47.5 -19t-47.5 19t-19.5 47z" />
    <glyph glyph-name="uni04F2" unicode="&#x4f2;" horiz-adv-x="591" 
d="M234 0h-100l140 278l-264 422h106l205 -327l165 327h100zM476 958l76 -38l-158 -151l-43 23zM281 958l76 -38l-158 -151l-43 23z" />
    <glyph glyph-name="uni04F3" unicode="&#x4f3;" horiz-adv-x="573" 
d="M282 -256q-99 0 -154.5 50t-57.5 147h88q7 -123 126 -123q62 0 94.5 30.5t32.5 104.5v128q-44 -92 -159 -92q-94 0 -138 58q-34 48 -34 142v265h87v-238q0 -72 26 -111t90 -39q62 0 95 44.5t33 110.5v233h87v-501q0 -209 -216 -209zM190 526l-43 23l125 166l76 -38z
M385 526l-43 23l125 166l76 -38z" />
    <glyph glyph-name="uni04F4" unicode="&#x4f4;" horiz-adv-x="579" 
d="M410 0v222h-140q-110 0 -170.5 63t-60.5 162v253h91v-230q0 -79 40 -122.5t117 -43.5h123v396h91v-700h-91zM323 843q0 29 19 48.5t47 19.5q29 0 48.5 -19.5t19.5 -48.5q0 -28 -19.5 -47t-48.5 -19q-28 0 -47 19t-19 47zM93 843q0 29 19.5 48.5t47.5 19.5t47.5 -19.5
t19.5 -48.5q0 -28 -19.5 -47t-47.5 -19t-47.5 19t-19.5 47z" />
    <glyph glyph-name="uni04F5" unicode="&#x4f5;" horiz-adv-x="478" 
d="M313 0v139h-111q-77 0 -118 39t-41 116v160h87v-158q0 -84 85 -84h98v242h87v-454h-87zM261 610q0 29 20.5 49.5t49.5 20.5t49.5 -20.5t20.5 -49.5t-20.5 -49.5t-49.5 -20.5t-49.5 20.5t-20.5 49.5zM43 610q0 29 20.5 49.5t49.5 20.5t49.5 -20.5t20.5 -49.5t-20.5 -49.5
t-49.5 -20.5t-49.5 20.5t-20.5 49.5z" />
    <glyph glyph-name="uni04F8" unicode="&#x4f8;" horiz-adv-x="745" 
d="M169 700v-300h151q86 0 141.5 -58.5t55.5 -141.5t-56 -141.5t-142 -58.5h-241v700h91zM169 318v-236h150q45 0 76 34.5t31 83.5t-30.5 83.5t-75.5 34.5h-151zM576 700h91v-700h-91v700zM440 843q0 29 19 48.5t47 19.5q29 0 48.5 -19.5t19.5 -48.5q0 -28 -19.5 -47
t-48.5 -19q-28 0 -47 19t-19 47zM210 843q0 29 19.5 48.5t47.5 19.5q29 0 48 -19.5t19 -48.5q0 -28 -19 -47t-48 -19q-28 0 -47.5 19t-19.5 47z" />
    <glyph glyph-name="uni04F9" unicode="&#x4f9;" horiz-adv-x="643" 
d="M479 454h86v-454h-86v454zM78 454h82v-157h122q67 0 105 -42t38 -107q0 -63 -38.5 -105.5t-105.5 -42.5h-203v454zM160 227v-157h106q37 0 58 22t21 56q0 36 -20.5 57.5t-57.5 21.5h-107zM370 610q0 29 20.5 49.5t49.5 20.5t49.5 -20.5t20.5 -49.5t-20.5 -49.5
t-49.5 -20.5t-49.5 20.5t-20.5 49.5zM140 610q0 29 20.5 49.5t49.5 20.5t49.5 -20.5t20.5 -49.5t-20.5 -49.5t-49.5 -20.5t-49.5 20.5t-20.5 49.5z" />
    <glyph glyph-name="Wgrave" unicode="&#x1e80;" horiz-adv-x="964" 
d="M482 542l-169 -542h-68l-239 700h96l176 -542l170 542h69l170 -542l176 542h96l-240 -700h-67zM337 886l41 69l249 -137l-41 -69z" />
    <glyph glyph-name="wgrave" unicode="&#x1e81;" horiz-adv-x="734" 
d="M367 359l-127 -359h-60l-176 454h93l113 -320l114 320h86l113 -320l114 320h93l-176 -454h-60zM222 640l41 68l249 -137l-41 -68z" />
    <glyph glyph-name="Wacute" unicode="&#x1e82;" horiz-adv-x="964" 
d="M482 542l-169 -542h-68l-239 700h96l176 -542l170 542h69l170 -542l176 542h96l-240 -700h-67zM378 749l-41 69l249 137l41 -69z" />
    <glyph glyph-name="wacute" unicode="&#x1e83;" horiz-adv-x="734" 
d="M367 359l-127 -359h-60l-176 454h93l113 -320l114 320h86l113 -320l114 320h93l-176 -454h-60zM263 503l-41 68l249 137l41 -68z" />
    <glyph glyph-name="Wdieresis" unicode="&#x1e84;" horiz-adv-x="964" 
d="M482 542l-169 -542h-68l-239 700h96l176 -542l170 542h69l170 -542l176 542h96l-240 -700h-67zM529 854q0 28 19.5 47.5t47.5 19.5q29 0 48 -19.5t19 -47.5t-19 -47.5t-48 -19.5q-28 0 -47.5 19.5t-19.5 47.5zM300 854q0 28 19 47.5t47 19.5q29 0 48.5 -19.5t19.5 -47.5
t-19.5 -47.5t-48.5 -19.5q-28 0 -47 19.5t-19 47.5z" />
    <glyph glyph-name="wdieresis" unicode="&#x1e85;" horiz-adv-x="734" 
d="M367 359l-127 -359h-60l-176 454h93l113 -320l114 320h86l113 -320l114 320h93l-176 -454h-60zM414 610q0 28 19.5 47.5t47.5 19.5t47.5 -19.5t19.5 -47.5t-19.5 -47.5t-47.5 -19.5t-47.5 19.5t-19.5 47.5zM185 610q0 28 19 47.5t47 19.5q29 0 48.5 -19.5t19.5 -47.5
t-19.5 -47.5t-48.5 -19.5q-28 0 -47 19.5t-19 47.5z" />
    <glyph glyph-name="Ygrave" unicode="&#x1ef2;" horiz-adv-x="591" 
d="M234 0h-100l140 278l-264 422h106l205 -327l165 327h100zM146 886l42 69l249 -137l-42 -69z" />
    <glyph glyph-name="ygrave" unicode="&#x1ef3;" horiz-adv-x="573" 
d="M282 -256q-99 0 -154.5 50t-57.5 147h88q7 -123 126 -123q62 0 94.5 30.5t32.5 104.5v128q-44 -92 -159 -92q-94 0 -138 58q-34 48 -34 142v265h87v-238q0 -72 26 -111t90 -39q62 0 95 44.5t33 110.5v233h87v-501q0 -209 -216 -209zM141 640l41 68l249 -137l-41 -68z" />
    <glyph glyph-name="thinspace" unicode="&#x2009;" horiz-adv-x="206" 
 />
    <glyph glyph-name="endash" unicode="&#x2013;" horiz-adv-x="503" 
d="M50 246v78h403v-78h-403z" />
    <glyph glyph-name="emdash" unicode="&#x2014;" horiz-adv-x="1006" 
d="M50 246v78h906v-78h-906z" />
    <glyph glyph-name="quoteleft" unicode="&#x2018;" horiz-adv-x="269" 
d="M209 567q0 -29 -19.5 -48.5t-48.5 -19.5q-37 0 -59 27t-22 70q0 76 36.5 109.5t107.5 34.5v-42q-52 0 -69 -30q-15 -20 -15 -42q7 7 22 7q30 0 48.5 -19t18.5 -47z" />
    <glyph glyph-name="quoteright" unicode="&#x2019;" horiz-adv-x="269" 
d="M60 672q0 28 19.5 48t49.5 20q37 0 58.5 -27t21.5 -71q0 -76 -36.5 -109.5t-106.5 -33.5v41q51 0 69 31q14 20 14 42q-5 -7 -22 -7q-30 0 -48.5 19t-18.5 47z" />
    <glyph glyph-name="quotesinglbase" unicode="&#x201a;" horiz-adv-x="269" 
d="M60 55q0 29 19.5 49t49.5 20q36 0 58 -27.5t22 -70.5q0 -76 -36.5 -109.5t-106.5 -34.5v42q52 0 69 30q14 19 14 42q-5 -7 -22 -7q-30 0 -48.5 19t-18.5 47z" />
    <glyph glyph-name="quotedblleft" unicode="&#x201c;" horiz-adv-x="444" 
d="M384 567q0 -29 -19.5 -48.5t-49.5 -19.5q-36 0 -58 27t-22 70q0 76 36.5 109.5t106.5 34.5v-42q-52 0 -69 -30q-14 -19 -14 -42q5 7 22 7q30 0 48.5 -19t18.5 -47zM209 567q0 -29 -19.5 -48.5t-48.5 -19.5q-37 0 -59 27t-22 70q0 76 36.5 109.5t107.5 34.5v-42
q-52 0 -69 -30q-15 -20 -15 -42q7 7 22 7q30 0 48.5 -19t18.5 -47z" />
    <glyph glyph-name="quotedblright" unicode="&#x201d;" horiz-adv-x="444" 
d="M60 672q0 28 19.5 48t49.5 20q37 0 58.5 -27t21.5 -71q0 -76 -36.5 -109.5t-106.5 -33.5v41q51 0 69 31q14 20 14 42q-5 -7 -22 -7q-30 0 -48.5 19t-18.5 47zM235 672q0 28 19.5 48t48.5 20q37 0 59 -27t22 -71q0 -76 -36.5 -109.5t-107.5 -33.5v41q53 0 69 31
q15 23 15 42q-7 -7 -22 -7q-30 0 -48.5 19t-18.5 47z" />
    <glyph glyph-name="quotedblbase" unicode="&#x201e;" horiz-adv-x="444" 
d="M60 55q0 29 19.5 49t49.5 20q36 0 58 -27.5t22 -70.5q0 -76 -36.5 -109.5t-106.5 -34.5v42q52 0 69 30q14 19 14 42q-5 -7 -22 -7q-30 0 -48.5 19t-18.5 47zM235 55q0 29 19.5 49t48.5 20q36 0 58.5 -27.5t22.5 -70.5q0 -76 -36.5 -109.5t-107.5 -34.5v42q52 0 69 30
q15 20 15 42q-7 -7 -22 -7q-30 0 -48.5 19t-18.5 47z" />
    <glyph glyph-name="dagger" unicode="&#x2020;" horiz-adv-x="444" 
d="M179 -182v561h-124v77h124v261h87v-261h123v-77h-123v-561h-87z" />
    <glyph glyph-name="daggerdbl" unicode="&#x2021;" horiz-adv-x="444" 
d="M266 717v-261h123v-75h-123v-296h123v-76h-123v-191h-87v191h-124v76h124v296h-124v75h124v261h87z" />
    <glyph glyph-name="bullet" unicode="&#x2022;" horiz-adv-x="348" 
d="M58 312q0 49 34 83t82 34q49 0 83 -34t34 -83q0 -48 -34 -82t-83 -34q-48 0 -82 34t-34 82z" />
    <glyph glyph-name="ellipsis" unicode="&#x2026;" horiz-adv-x="939" 
d="M58 64q0 30 20 50.5t49 20.5t50 -20.5t21 -50.5q0 -29 -21 -49t-50 -20t-49 20t-20 49zM400 64q0 29 20 49.5t49 20.5t50 -20.5t21 -49.5t-21 -49.5t-50 -20.5t-49 20.5t-20 49.5zM742 63q0 29 20 49.5t49 20.5t50 -20.5t21 -49.5t-21 -49.5t-50 -20.5t-49 20.5t-20 49.5
z" />
    <glyph glyph-name="perthousand" unicode="&#x2030;" horiz-adv-x="1265" 
d="M980 126q0 -31 19.5 -52t49.5 -21q31 0 50.5 21t19.5 52v133q0 31 -19.5 52.5t-50.5 21.5q-30 0 -49.5 -21.5t-19.5 -52.5v-133zM1191 124q0 -55 -39.5 -93.5t-102.5 -38.5q-62 0 -101 39t-39 95v135q0 55 39 93.5t101 38.5q64 0 103 -39t39 -95v-135zM701 393
q62 0 101.5 -39t39.5 -95v-135q0 -55 -39.5 -93.5t-101.5 -38.5q-63 0 -102 39t-39 95v135q0 55 39.5 93.5t101.5 38.5zM701 333q-31 0 -50 -21.5t-19 -52.5v-133q0 -31 19 -52t50 -21t50.5 21t19.5 52v133q0 31 -19.5 52.5t-50.5 21.5zM73 576q0 55 39.5 93t101.5 38
t101.5 -39t39.5 -94v-136q0 -55 -39.5 -93t-101.5 -38q-63 0 -102 38.5t-39 94.5v136zM284 574q0 30 -19.5 51.5t-50.5 21.5t-50 -21.5t-19 -51.5v-134q0 -30 19 -51.5t50 -21.5t50.5 21.5t19.5 51.5v134zM639 752l69 -40l-437 -753l-69 40z" />
    <glyph glyph-name="guilsinglleft" unicode="&#x2039;" horiz-adv-x="276" 
d="M236 98l-196 167v53l196 167v-86l-126 -108l126 -108v-85z" />
    <glyph glyph-name="guilsinglright" unicode="&#x203a;" horiz-adv-x="276" 
d="M40 183l126 108l-126 108v86l196 -167v-53l-196 -167v85z" />
    <glyph glyph-name="fraction" unicode="&#x2044;" horiz-adv-x="217" 
d="M292 752l70 -40l-438 -753l-69 40z" />
    <glyph glyph-name="zerosuperior" unicode="&#x2070;" horiz-adv-x="394" 
d="M56 576q2 56 40 94t100 38q64 0 103 -39t39 -95q-1 -25 -1 -66v-69q0 -55 -39.5 -93.5t-101.5 -38.5t-101 39t-39 95v135zM266 574q0 31 -19.5 52.5t-50.5 21.5q-30 0 -49.5 -21.5t-19.5 -52.5v-133q0 -31 19.5 -52t49.5 -21q31 0 50.5 21t19.5 52v133z" />
    <glyph glyph-name="foursuperior" unicode="&#x2074;" horiz-adv-x="385" 
d="M216 431h-152v269h71v-209h81v112h72v-112h52v-60h-52v-116h-72v116z" />
    <glyph glyph-name="fivesuperior" unicode="&#x2075;" horiz-adv-x="401" 
d="M71 700h247v-56h-181v-110q22 39 82 39q59 0 92 -38t33 -92q0 -56 -38.5 -95.5t-102.5 -39.5t-102.5 39.5t-38.5 95.5h70q0 -32 19.5 -54t51.5 -22q31 0 51 22t20 54t-19.5 53.5t-51.5 21.5q-46 0 -65 -40h-67v222z" />
    <glyph glyph-name="sixsuperior" unicode="&#x2076;" horiz-adv-x="380" 
d="M189 309q-64 0 -102.5 38.5t-38.5 95.5q0 43 22 78l114 179h81l-83 -128q9 3 32 1q53 -6 84.5 -42t31.5 -88q0 -57 -39 -95.5t-102 -38.5zM189 368q31 0 51 22t20 53q0 33 -19.5 54.5t-51.5 21.5t-51.5 -21.5t-19.5 -54.5q0 -31 19.5 -53t51.5 -22z" />
    <glyph glyph-name="sevensuperior" unicode="&#x2077;" horiz-adv-x="339" 
d="M312 700l-169 -385h-77l145 325h-161v60h262z" />
    <glyph glyph-name="eightsuperior" unicode="&#x2078;" horiz-adv-x="391" 
d="M196 308q-64 0 -102 32.5t-38 82.5q0 33 18.5 59t48.5 34q-27 9 -42.5 32t-15.5 51q0 47 35 77.5t96 30.5q60 0 95 -30.5t35 -77.5q0 -28 -15.5 -51t-42.5 -32q30 -9 48.5 -34.5t18.5 -58.5q0 -49 -38 -82t-101 -33zM196 539q28 0 45 16.5t17 40.5t-17 40t-45 16t-45 -16
t-17 -40t16.5 -40.5t45.5 -16.5zM196 363q32 0 50.5 17.5t18.5 44.5q0 25 -18.5 43t-50.5 18q-33 0 -51.5 -17.5t-18.5 -43.5q0 -27 19 -44.5t51 -17.5z" />
    <glyph glyph-name="ninesuperior" unicode="&#x2079;" horiz-adv-x="380" 
d="M191 707q63 0 102 -39.5t39 -95.5q0 -42 -23 -77l-114 -180h-80l82 127q-3 -4 -13 -4q-61 2 -97.5 40.5t-36.5 93.5q0 56 38.5 95.5t102.5 39.5zM191 647q-32 0 -51.5 -21.5t-19.5 -53.5t20 -54t51 -22t51 22t20 54t-19.5 53.5t-51.5 21.5z" />
    <glyph glyph-name="plussuperior" unicode="&#x207a;" horiz-adv-x="390" 
d="M166 357v87h-86v55h86v87h58v-87h86v-55h-86v-87h-58z" />
    <glyph glyph-name="minussuperior" unicode="&#x207b;" horiz-adv-x="390" 
d="M79 445v54h232v-54h-232z" />
    <glyph glyph-name="equalsuperior" unicode="&#x207c;" horiz-adv-x="390" 
d="M79 493v55h232v-55h-232zM79 394v55h232v-55h-232z" />
    <glyph glyph-name="parenleftsuperior" unicode="&#x207d;" horiz-adv-x="268" 
d="M223 683q-35 0 -57 -24t-22 -59v-269q0 -34 22 -58t57 -24v-62q-66 0 -107 42t-41 102v269q0 60 41 102t107 42v-61z" />
    <glyph glyph-name="parenrightsuperior" unicode="&#x207e;" horiz-adv-x="268" 
d="M45 744q66 0 107.5 -42t41.5 -102v-269q0 -60 -41.5 -102t-107.5 -42v62q36 0 57.5 24t21.5 58v269q0 35 -21.5 59t-57.5 24v61z" />
    <glyph glyph-name="nsuperior" unicode="&#x207f;" horiz-adv-x="386" 
d="M69 573h68v-45q24 50 89 50q51 0 74 -29q21 -26 21 -82v-152h-67v135q0 71 -55 71q-31 0 -46.5 -21t-15.5 -55v-130h-68v258z" />
    <glyph glyph-name="zeroinferior" unicode="&#x2080;" horiz-adv-x="394" 
d="M56 61q2 56 40 94t100 38q64 0 103 -39t39 -95q-1 -25 -1 -66v-69q0 -55 -39.5 -93.5t-101.5 -38.5t-101 39t-39 95v135zM266 59q0 31 -19.5 52.5t-50.5 21.5q-30 0 -49.5 -21.5t-19.5 -52.5v-133q0 -31 19.5 -52.5t49.5 -21.5q31 0 50.5 21.5t19.5 52.5v133z" />
    <glyph glyph-name="oneinferior" unicode="&#x2081;" horiz-adv-x="268" 
d="M47 119q52 0 69.5 15t17.5 51h64v-385h-73v267h-78v52z" />
    <glyph glyph-name="twoinferior" unicode="&#x2082;" horiz-adv-x="370" 
d="M55 -200q0 86 25.5 126.5t81.5 69.5q29 15 44 24.5t27.5 26t12.5 37.5q0 53 -57 53q-28 0 -45 -17t-17 -50h-71q0 54 35.5 88t97.5 34q56 0 91.5 -29t35.5 -84q0 -31 -18.5 -57.5t-36.5 -39t-46 -27.5q-46 -24 -62 -44t-16 -52h179v-59h-261z" />
    <glyph glyph-name="threeinferior" unicode="&#x2083;" horiz-adv-x="382" 
d="M119 -77q0 -33 19.5 -52.5t50.5 -19.5q30 0 47 17t17 43q0 61 -68 61h-33v57h33q62 0 62 56q0 52 -57 52q-61 0 -61 -63h-71q0 52 33 85t97 33q56 0 93 -28.5t37 -77.5q0 -32 -17 -54.5t-45 -31.5q30 -9 49 -33.5t19 -60.5q0 -52 -38.5 -82.5t-95.5 -30.5
q-67 0 -104.5 35.5t-37.5 94.5h71z" />
    <glyph glyph-name="fourinferior" unicode="&#x2084;" horiz-adv-x="385" 
d="M216 -84h-152v269h71v-209h81v112h72v-112h52v-60h-52v-116h-72v116z" />
    <glyph glyph-name="fiveinferior" unicode="&#x2085;" horiz-adv-x="401" 
d="M71 185h247v-56h-181v-110q22 39 82 39q59 0 92 -38t33 -92q0 -56 -38.5 -95.5t-102.5 -39.5t-102.5 39t-38.5 95h70q0 -31 19.5 -53t51.5 -22q31 0 51 22t20 54t-19.5 53.5t-51.5 21.5q-45 0 -65 -41h-67v223z" />
    <glyph glyph-name="sixinferior" unicode="&#x2086;" horiz-adv-x="380" 
d="M189 -207q-64 0 -102.5 39.5t-38.5 95.5q0 43 22 78l114 179h81l-83 -128q9 3 32 1q53 -6 84.5 -42.5t31.5 -87.5q0 -56 -39 -95.5t-102 -39.5zM189 -147q32 0 51.5 21.5t19.5 53.5t-20 54t-51 22q-32 0 -51.5 -22t-19.5 -54t19.5 -53.5t51.5 -21.5z" />
    <glyph glyph-name="seveninferior" unicode="&#x2087;" horiz-adv-x="339" 
d="M312 185l-169 -385h-77l145 325h-161v60h262z" />
    <glyph glyph-name="eightinferior" unicode="&#x2088;" horiz-adv-x="391" 
d="M196 -207q-64 0 -102 32.5t-38 82.5q0 33 18.5 59t48.5 34q-27 9 -42.5 32t-15.5 51q0 47 35 77.5t96 30.5q60 0 95 -30.5t35 -77.5q0 -28 -15.5 -51t-42.5 -32q30 -9 48.5 -34.5t18.5 -58.5q0 -49 -38 -82t-101 -33zM196 24q28 0 45 16.5t17 40.5t-17 40t-45 16t-45 -16
t-17 -40t16.5 -40.5t45.5 -16.5zM196 -152q31 0 50 17.5t19 43.5t-18.5 44t-50.5 18q-33 0 -51.5 -17.5t-18.5 -44.5t19 -44t51 -17z" />
    <glyph glyph-name="nineinferior" unicode="&#x2089;" horiz-adv-x="380" 
d="M191 192q63 0 102 -39.5t39 -95.5q0 -43 -23 -78l-114 -179h-80l83 127q-5 -5 -14 -5q-62 3 -98 41t-36 94t38.5 95.5t102.5 39.5zM191 132q-32 0 -51.5 -21.5t-19.5 -53.5t20 -54t51 -22t51 22t20 54t-19.5 53.5t-51.5 21.5z" />
    <glyph glyph-name="parenleftinferior" unicode="&#x208d;" horiz-adv-x="268" 
d="M223 168q-35 0 -57 -24t-22 -59v-269q0 -35 22 -59t57 -24v-61q-66 0 -107 42t-41 102v269q0 60 41 102t107 42v-61z" />
    <glyph glyph-name="parenrightinferior" unicode="&#x208e;" horiz-adv-x="268" 
d="M45 229q66 0 107.5 -42t41.5 -102v-269q0 -60 -41.5 -102t-107.5 -42v61q36 0 57.5 24t21.5 59v269q0 35 -21.5 59t-57.5 24v61z" />
    <glyph glyph-name="Euro" unicode="&#x20ac;" horiz-adv-x="593" 
d="M554 228q0 -100 -67 -169.5t-174 -69.5q-105 0 -171.5 69.5t-66.5 169.5v10h-63l16 67h47v89h-62l17 66h45v11q0 99 66.5 169.5t171.5 70.5q102 0 168 -63t72 -156h-92q-6 59 -46 97.5t-102 38.5q-65 0 -106 -45.5t-41 -111.5v-11h229l-17 -66h-212v-89h227l-16 -67h-211
v-10q0 -66 41 -111.5t106 -45.5q67 0 108.5 45.5t41.5 111.5h91z" />
    <glyph glyph-name="afii61289" unicode="&#x2113;" horiz-adv-x="405" 
d="M267 -11q-22 0 -38 1.5t-40.5 11.5t-40.5 27.5t-28 53t-12 84.5v4l-64 -50l-39 66l103 77v243q0 210 141 210q67 0 103 -47t36 -128q0 -82 -53 -157t-151 -155v-69q0 -33 8 -54t24 -29.5t29 -11t32 -2.5q46 0 78 19l4 -71q-34 -23 -92 -23zM252 648q-68 0 -68 -126v-197
q70 64 99.5 114.5t29.5 105.5q0 103 -61 103z" />
    <glyph glyph-name="afii61352" unicode="&#x2116;" horiz-adv-x="1069" 
d="M494 159v541h91v-700h-101l-315 541v-541h-91v700h101zM838 319q-90 0 -145 57t-55 138q0 83 55 139t145 56q91 0 146 -56t55 -139q0 -82 -55.5 -138.5t-145.5 -56.5zM838 395q51 0 82.5 34.5t31.5 84.5t-31.5 84.5t-82.5 34.5q-50 0 -81.5 -34.5t-31.5 -84.5t31.5 -84.5
t81.5 -34.5zM638 215v78h401v-78h-401z" />
    <glyph glyph-name="trademark" unicode="&#x2122;" horiz-adv-x="811" 
d="M370 700h107l101 -294l101 294h107v-407h-65v334l-114 -334h-58l-114 334v-334h-65v407zM304 700v-59h-100v-348h-65v348h-99v59h264z" />
    <glyph glyph-name="Omega" unicode="&#x2126;" horiz-adv-x="718" 
d="M359 630q-104 0 -163 -65.5t-59 -161.5q0 -91 47.5 -158.5t136.5 -84.5v-160h-255v82h183v28q-93 32 -148 110.5t-55 178.5q0 131 85.5 222t227.5 91t227.5 -91t85.5 -222q0 -100 -55 -178.5t-148 -110.5v-28h183v-82h-255v160q89 17 136.5 84.5t47.5 158.5
q0 96 -59 161.5t-163 65.5z" />
    <glyph glyph-name="estimated" unicode="&#x212e;" horiz-adv-x="525" 
d="M144 233v-181q49 -41 126 -41q67 0 114.5 32.5t62.5 80.5h23q-17 -58 -70 -96.5t-130 -38.5q-109 0 -168 69.5t-59 169.5q0 105 59.5 171.5t164.5 66.5q88 0 149 -59t61 -146q0 -15 -1 -28h-332zM267 444q-72 0 -123 -38v-151h236v153q-50 36 -113 36z" />
    <glyph glyph-name="arrowleft" unicode="&#x2190;" horiz-adv-x="705" 
d="M3 350l236 216l49 -52l-144 -128h559v-72h-558l143 -127l-49 -53z" />
    <glyph glyph-name="arrowup" unicode="&#x2191;" horiz-adv-x="487" 
d="M244 700l216 -236l-53 -49l-128 144v-559h-72v557l-127 -142l-52 49z" />
    <glyph glyph-name="arrowright" unicode="&#x2192;" horiz-adv-x="705" 
d="M703 350l-237 -216l-48 52l143 128h-558v72h557l-142 127l48 53z" />
    <glyph glyph-name="arrowdown" unicode="&#x2193;" horiz-adv-x="487" 
d="M244 0l-216 237l52 48l128 -144v559h72v-558l127 143l53 -48z" />
    <glyph glyph-name="uni2196" unicode="&#x2196;" horiz-adv-x="570" 
d="M25 597l320 -14l-3 -72l-192 11l395 -394l-51 -51l-394 394l11 -190l-72 -4z" />
    <glyph glyph-name="uni2197" unicode="&#x2197;" horiz-adv-x="570" 
d="M545 597l-14 -320l-72 4l12 191l-395 -395l-51 51l394 394l-190 -11l-4 72z" />
    <glyph glyph-name="uni2198" unicode="&#x2198;" horiz-adv-x="570" 
d="M545 103l-320 14l4 72l191 -11l-395 394l51 51l394 -394l-11 191l72 3z" />
    <glyph glyph-name="uni2199" unicode="&#x2199;" horiz-adv-x="570" 
d="M25 103l14 320l72 -3l-11 -192l394 395l51 -51l-394 -394l191 11l3 -72z" />
    <glyph glyph-name="partialdiff" unicode="&#x2202;" 
d="M281 442q44 0 87.5 -19t71.5 -56v8q-4 104 -22 161.5t-48 78.5t-81 21q-66 0 -105 -46.5t-39 -118.5h-91q0 105 64.5 175t170.5 70q84 0 135 -36.5t77.5 -126.5t26.5 -244q0 -326 -249 -326q-102 0 -165 65.5t-63 161.5t63.5 164t166.5 68zM281 362q-65 0 -105 -44
t-40 -108t39 -105t104 -41q76 0 117 48t45 169q-54 81 -160 81z" />
    <glyph glyph-name="increment" unicode="&#x2206;" horiz-adv-x="559" 
d="M131 82h297l-148 469zM554 0h-549l241 700h66z" />
    <glyph glyph-name="product" unicode="&#x220f;" horiz-adv-x="645" 
d="M633 713h-63v-959h-91v959h-313v-959h-91v959h-63v81h621v-81z" />
    <glyph glyph-name="summation" unicode="&#x2211;" 
d="M23 -246v85l357 439l-357 438v78h519v-81h-404l356 -424l-356 -446h404v-89h-519z" />
    <glyph glyph-name="minus" unicode="&#x2212;" 
d="M86 247v77h404v-77h-404z" />
    <glyph glyph-name="radical" unicode="&#x221a;" horiz-adv-x="686" 
d="M3 232h182l106 -316l296 878h96l-359 -1028h-66l-137 388h-118v78z" />
    <glyph glyph-name="infinity" unicode="&#x221e;" horiz-adv-x="830" 
d="M600 491q96 0 150 -58t54 -144t-54 -144t-150 -58q-112 0 -185 119q-73 -119 -185 -119q-97 0 -150.5 59.5t-53.5 142.5t53.5 142.5t150.5 59.5q110 0 185 -119q75 119 185 119zM600 413q-38 0 -76 -31.5t-64 -92.5q26 -62 63.5 -93t76.5 -31q58 0 90 35.5t32 88.5
t-32 88.5t-90 35.5zM230 413q-58 0 -90 -35.5t-32 -88.5t32 -88.5t90 -35.5q38 0 76 31t64 93q-26 61 -64 92.5t-76 31.5z" />
    <glyph glyph-name="integral" unicode="&#x222b;" horiz-adv-x="286" 
d="M181 -123q0 -69 -27.5 -101t-70.5 -32q-51 0 -78 12v73q23 -8 44 -8q46 0 46 61v780q0 69 27.5 100.5t69.5 31.5q51 0 79 -11v-74q-27 9 -45 9q-45 0 -45 -62v-779z" />
    <glyph glyph-name="approxequal" unicode="&#x2248;" 
d="M65 232l1 1v71q43 55 107 55q41 0 118 -32q7 -3 23 -9.5t24.5 -10t21 -8t22 -6.5t17.5 -2q56 0 110 54v-76l-1 -1v-71q-46 -56 -110 -56q-40 0 -110 34t-119 34q-50 0 -104 -54v77z" />
    <glyph glyph-name="notequal" unicode="&#x2260;" 
d="M267 164l-51 -112h-73l51 112h-108v78h142l40 84h-182v77h216l51 112h73l-51 -112h115v-77h-149l-40 -84h189v-78h-223z" />
    <glyph glyph-name="lessequal" unicode="&#x2264;" 
d="M487 254l-399 144v63l399 145v-81l-274 -95l274 -96v-80zM88 24v78h399v-78h-399z" />
    <glyph glyph-name="greaterequal" unicode="&#x2265;" 
d="M88 334l274 96l-274 95v81l399 -145v-63l-399 -144v80zM88 24v78h399v-78h-399z" />
    <glyph glyph-name="lozenge" unicode="&#x25ca;" horiz-adv-x="475" 
d="M5 396l194 398h78l193 -398l-193 -396h-78zM237 92l143 304q-8 16 -71 152t-71 152l-143 -304z" />
    <glyph glyph-name="commaaccent" unicode="&#xf6c3;" horiz-adv-x="234" 
d="M58 58q0 23 16.5 39.5t40.5 16.5q30 0 49 -23t19 -58q0 -118 -120 -120v36q43 0 58 24q13 15 11 35q-6 -6 -18 -6q-26 0 -41 16t-15 40z" />
    <glyph glyph-name="asuperior" unicode="&#xf6e9;" horiz-adv-x="402" 
d="M333 573v-258h-68v44q-10 -21 -34 -35.5t-53 -14.5q-56 0 -91.5 38.5t-35.5 95.5q0 58 35.5 96.5t91.5 38.5q29 0 53 -14.5t34 -35.5v45h68zM192 367q32 0 52.5 22t20.5 54q0 33 -20.5 55.5t-52.5 22.5q-33 0 -53.5 -22.5t-20.5 -55.5q0 -32 20.5 -54t53.5 -22z" />
    <glyph glyph-name="bsuperior" unicode="&#xf6ea;" horiz-adv-x="403" 
d="M137 315h-68v385h68v-172q10 21 34 35.5t53 14.5q56 0 92 -38.5t36 -96.5q0 -57 -36 -95.5t-92 -38.5q-29 0 -53 14.5t-34 35.5v-44zM211 367q32 0 52.5 22t20.5 54q0 33 -20.5 55.5t-52.5 22.5q-33 0 -53.5 -22.5t-20.5 -55.5q0 -32 20.5 -54t53.5 -22z" />
    <glyph glyph-name="dsuperior" unicode="&#xf6eb;" horiz-adv-x="402" 
d="M265 359q-10 -21 -34 -35.5t-53 -14.5q-56 0 -91.5 38.5t-35.5 95.5q0 58 35.5 96.5t91.5 38.5q29 0 53 -14.5t34 -35.5v172h68v-385h-68v44zM192 367q32 0 52.5 22t20.5 54q0 33 -20.5 55.5t-52.5 22.5q-33 0 -53.5 -22.5t-20.5 -55.5q0 -32 20.5 -54t53.5 -22z" />
    <glyph glyph-name="esuperior" unicode="&#xf6ec;" horiz-adv-x="368" 
d="M119 428q0 -30 16.5 -50t51.5 -20q45 0 58 36h66q-6 -37 -39 -61t-84 -24q-66 0 -101.5 38t-35.5 97t35.5 97t99.5 38q56 0 92.5 -34t36.5 -83q0 -4 -2 -34h-194zM185 530q-30 0 -47 -16t-18 -45h128q0 27 -18 44t-45 17z" />
    <glyph glyph-name="isuperior" unicode="&#xf6ed;" horiz-adv-x="222" 
d="M65 663q0 19 13 32.5t33 13.5t33.5 -13.5t13.5 -32.5t-13.5 -32.5t-33.5 -13.5t-33 13.5t-13 32.5zM145 573v-258h-68v258h68z" />
    <glyph glyph-name="lsuperior" unicode="&#xf6ee;" horiz-adv-x="206" 
d="M69 700h68v-385h-68v385z" />
    <glyph glyph-name="msuperior" unicode="&#xf6ef;" horiz-adv-x="531" 
d="M400 315v143q0 63 -47 63q-53 0 -53 -76v-130h-66v140q0 66 -45 66q-25 0 -39.5 -19.5t-14.5 -57.5v-129h-66v258h66v-45q9 22 29 36t48 14q62 0 80 -52q22 52 83 52q90 0 90 -104v-159h-65z" />
    <glyph glyph-name="osuperior" unicode="&#xf6f0;" horiz-adv-x="382" 
d="M191 309q-64 0 -102.5 39t-38.5 95q0 57 38.5 96.5t102.5 39.5q63 0 102 -39.5t39 -96.5q0 -56 -39 -95t-102 -39zM191 367q32 0 52.5 22t20.5 54q0 33 -20.5 55.5t-52.5 22.5q-33 0 -53.5 -22.5t-20.5 -55.5q0 -32 20.5 -54t53.5 -22z" />
    <glyph glyph-name="rsuperior" unicode="&#xf6f1;" horiz-adv-x="278" 
d="M246 511q-16 4 -29 4q-38 0 -59 -24.5t-21 -70.5v-105h-68v258h68v-50q10 24 32.5 39t50.5 15q17 0 26 -4v-62z" />
    <glyph glyph-name="ssuperior" unicode="&#xf6f2;" horiz-adv-x="331" 
d="M194 464q22 -6 32.5 -10.5t25 -13t20.5 -21t6 -30.5q0 -80 -111 -80q-54 0 -85.5 24t-31.5 69h67q0 -47 52 -47q44 0 44 31q0 4 -1 7.5t-3 6l-4 5t-6.5 4.5t-8 3.5t-10.5 4t-11.5 4t-14 4t-15.5 4.5q-40 9 -61 24.5t-21 48.5q0 38 29.5 57.5t79.5 19.5q53 0 80.5 -23.5
t27.5 -62.5h-66q0 41 -44 41q-40 0 -40 -31q0 -14 13 -21t44 -15q9 -2 13 -3z" />
    <glyph glyph-name="tsuperior" unicode="&#xf6f3;" horiz-adv-x="261" 
d="M223 315q-16 -4 -51 -4q-18 0 -30.5 2.5t-27.5 10.5t-22.5 27.5t-7.5 49.5v120h-44v52h44v83h68v-83h64v-52h-64v-105q0 -30 9.5 -40t29.5 -10q16 0 32 2v-53z" />
    <glyph glyph-name="apple" unicode="&#xf8ff;" horiz-adv-x="800" 
d="M400 717q162 0 262 -109t100 -258t-100 -258t-262 -109t-262 109t-100 258t100 258t262 109zM400 695q-74 0 -143 -29q-60 -27 -106 -76q-44 -48 -67 -110q-24 -63 -24 -130q0 -68 24 -129q23 -63 67 -110q48 -52 106 -76q69 -29 143 -29q75 0 142 29q58 24 106 76
q44 47 67 110q24 61 24 129q0 67 -24 130q-23 62 -67 110q-46 49 -106 76q-67 29 -142 29zM168 228q82 -49 116 -60q35 -11 72 -11q148 0 220 37q1 0 3 2q-26 -57 -107 -99q-56 -31 -106 -31q-102 0 -198 162zM219 259l179 268l-110 -243h178v-25h-247zM230 169
q27 -39 67.5 -58t68.5 -19q30 0 70 15.5t59 27t32 20.5q-119 -23 -169 -23q-91 0 -128 37zM498 500q0 18 12.5 30.5t29.5 12.5q18 0 30.5 -12.5t12.5 -30.5q0 -17 -12.5 -30t-30.5 -13q-17 0 -29.5 13t-12.5 30zM201 500q0 18 12.5 30.5t29.5 12.5q18 0 30.5 -12.5
t12.5 -30.5q0 -17 -12.5 -30t-30.5 -13q-17 0 -29.5 13t-12.5 30zM600 161q2 5 2 18q0 2 -4 13l-3 5q-1 0 -3 2q-2 0 -4 2l-14 5q-22 10 -33 19q-11 8 -18 20l-4 11q0 1 -1.5 6t-1.5 8q-4 15 -4 31q3 18 3 19l15 -5q0 -1 -0.5 -4.5t-0.5 -5.5v-13q3 -23 4 -27q1 -2 2 -6
t3 -6q3 -6 19 -20q4 -2 8.5 -4.5t9.5 -5t8 -3.5l15 -6q4 -2 7 -5q5 -4 7 -9q5 -9 6 -19q0 -19 -2 -24zM213 331q0 -6 2 -20t2 -20q0 -10 -7 -20q-8 -9 -14 -13h-2l-2 -1q-14 -6 -21 -10q-6 -2 -10 -5l-6 -5q-3 -5 -5 -13q-2 -14 -2 -17h-16q0 6 2 20q8 19 9 20l9 8l11 7
q5 3 24 10l1 1q5 2 9 8q4 5 4 10q0 4 -2 18l-3 20z" />
    <glyph glyph-name="uniFB00" unicode="&#xfb00;" horiz-adv-x="694" 
d="M336 620q-26 8 -51 8q-17 0 -28.5 -2t-24.5 -10t-19.5 -26.5t-6.5 -47.5v-88h130v-73h-130v-381h-87v381h-98v73h98v79q0 58 15.5 95.5t43 53t48.5 20t48 4.5q40 0 62 -12v-74zM683 620q-26 8 -51 8q-17 0 -28.5 -2t-24.5 -10t-19.5 -26.5t-6.5 -47.5v-88h130v-73h-130
v-381h-87v381h-98v73h98v79q0 58 15.5 95.5t43 53t48 20t47.5 4.5q41 0 63 -12v-74z" />
    <glyph glyph-name="uniFB03" unicode="&#xfb03;" horiz-adv-x="969" 
d="M336 620q-26 8 -51 8q-17 0 -28.5 -2t-24.5 -10t-19.5 -26.5t-6.5 -47.5v-88h130v-73h-130v-381h-87v381h-98v73h98v79q0 58 15.5 95.5t43 53t48.5 20t48 4.5q40 0 62 -12v-74zM683 620q-26 8 -51 8q-17 0 -28.5 -2t-24.5 -10t-19.5 -26.5t-6.5 -47.5v-88h130v-73h-130
v-381h-87v381h-98v73h98v79q0 58 15.5 95.5t43 53t48 20t47.5 4.5q41 0 63 -12v-74zM788 454h87v-454h-87v454zM762 626q0 29 20 50t49 21t50 -21t21 -50t-21 -49t-50 -20t-49 20t-20 49z" />
    <glyph glyph-name="uniFB04" unicode="&#xfb04;" horiz-adv-x="933" 
d="M336 620q-26 8 -51 8q-17 0 -28.5 -2t-24.5 -10t-19.5 -26.5t-6.5 -47.5v-88h130v-73h-130v-381h-87v381h-98v73h98v79q0 58 15.5 95.5t43 53t48.5 20t48 4.5q40 0 62 -12v-74zM683 620q-26 8 -51 8q-17 0 -28.5 -2t-24.5 -10t-19.5 -26.5t-6.5 -47.5v-88h130v-73h-130
v-381h-87v381h-98v73h98v79q0 58 15.5 95.5t43 53t48 20t47.5 4.5q41 0 63 -12v-74zM772 700h86v-700h-86v700z" />
    <glyph glyph-name="uni00B5" 
d="M78 454h87v-240q0 -148 115 -148q62 0 95.5 44.5t33.5 110.5v233h87v-454h-87v81q-21 -43 -62 -67.5t-98 -24.5q-53 0 -84 28v-263h-87v700z" />
    <glyph glyph-name="uni2126" horiz-adv-x="718" 
d="M359 630q-104 0 -163 -65.5t-59 -161.5q0 -91 47.5 -158.5t136.5 -84.5v-160h-255v82h183v28q-93 32 -148 110.5t-55 178.5q0 131 85.5 222t227.5 91t227.5 -91t85.5 -222q0 -100 -55 -178.5t-148 -110.5v-28h183v-82h-255v160q89 17 136.5 84.5t47.5 158.5
q0 96 -59 161.5t-163 65.5z" />
    <glyph glyph-name="uni2206" horiz-adv-x="559" 
d="M131 82h297l-148 469zM554 0h-549l241 700h66z" />
    <glyph glyph-name="commaturn" horiz-adv-x="234" 
d="M183 650q0 -24 -16.5 -40.5t-40.5 -16.5q-30 0 -49 23t-19 58q0 63 30.5 91t89.5 29v-36q-44 0 -57 -24q-12 -13 -12 -35q6 6 18 6q26 0 41 -15.5t15 -39.5z" />
    <glyph glyph-name="zero.slash" 
d="M286 -12q-105 0 -171.5 69.5t-66.5 168.5v248q0 99 66.5 168.5t171.5 69.5q107 0 174 -69t67 -169v-248q0 -99 -67 -168.5t-174 -69.5zM220 87q29 -17 66 -17q67 0 108.5 45.5t41.5 110.5v248q0 37 -21 68zM139 226q0 -40 21 -74l198 460q-34 18 -72 18q-65 0 -106 -45.5
t-41 -110.5v-248z" />
    <glyph glyph-name="zero.tlfslash" 
d="M48 474q0 99 66.5 168.5t171.5 69.5q107 0 174 -69t67 -169v-248q0 -99 -67 -168.5t-174 -69.5q-105 0 -171.5 69.5t-66.5 168.5v248zM436 474q0 37 -21 68l-195 -455q29 -17 66 -17q67 0 108.5 45.5t41.5 110.5v248zM139 226q0 -40 21 -74l198 460q-34 18 -72 18
q-65 0 -106 -45.5t-41 -110.5v-248z" />
    <glyph glyph-name="zero.tlf" 
d="M48 474q0 99 66.5 168.5t171.5 69.5q107 0 174 -69t67 -169v-248q0 -99 -67 -168.5t-174 -69.5q-105 0 -171.5 69.5t-66.5 168.5v248zM436 474q0 66 -41.5 111t-108.5 45q-65 0 -106 -45.5t-41 -110.5v-248q0 -65 41 -110.5t106 -45.5q67 0 108.5 45.5t41.5 110.5v248z
" />
    <glyph glyph-name="one.tlf" 
d="M104 584h49q68 0 103 28t41 88h87v-700h-95v511h-185v73z" />
    <glyph glyph-name="two.tlf" 
d="M79 0q0 65 9 115t24 84.5t42 63t54 47t68 39.5q35 17 55 28.5t45 32t37 47t12 59.5q0 54 -33 83.5t-90 29.5q-59 0 -95.5 -36t-36.5 -101h-91q0 100 64.5 159.5t159.5 59.5q96 0 154.5 -53.5t58.5 -149.5q0 -37 -15 -71t-32.5 -55.5t-50 -45t-47.5 -32t-44 -23.5
q-88 -50 -116 -88.5t-28 -110.5h333v-82h-437z" />
    <glyph glyph-name="three.tlf" 
d="M138 221q0 -68 42.5 -109t107.5 -41q62 0 100 36t38 89q0 59 -35 94t-107 35h-50v81h50q127 0 127 116q0 50 -33 78.5t-89 28.5q-66 0 -98.5 -34t-32.5 -93h-91q0 93 60.5 151t155.5 58q94 0 156.5 -52.5t62.5 -136.5q0 -60 -28.5 -100.5t-79.5 -56.5q57 -18 90 -60.5
t33 -108.5q0 -91 -66.5 -149t-166.5 -58t-168.5 62.5t-68.5 169.5h91z" />
    <glyph glyph-name="four.tlf" 
d="M331 225h-261v475h91v-393h170v216h91v-216h105v-82h-105v-225h-91v225z" />
    <glyph glyph-name="five.tlf" 
d="M63 700h412v-82h-330v-234q20 39 65.5 59.5t91.5 20.5q106 0 166 -68t60 -169q0 -99 -67 -168.5t-174 -69.5q-105 0 -171.5 69.5t-66.5 168.5h91q0 -65 41 -110.5t106 -45.5q67 0 108 45.5t41 110.5t-41 110t-108 45q-91 0 -131 -84h-93v402z" />
    <glyph glyph-name="six.tlf" 
d="M286 -11q-105 0 -171.5 69.5t-66.5 168.5q0 73 41 139l209 334h105l-160 -246q17 12 43 12q107 0 174 -69.5t67 -169.5q0 -99 -67 -168.5t-174 -69.5zM286 71q67 0 108.5 45.5t41.5 110.5q0 66 -41.5 111t-108.5 45q-65 0 -106 -45.5t-41 -110.5t41 -110.5t106 -45.5z
" />
    <glyph glyph-name="seven.tlf" 
d="M525 700l-311 -700h-97l278 618h-304v82h434z" />
    <glyph glyph-name="eight.tlf" 
d="M280 -11q-108 0 -172 59.5t-64 148.5q0 58 30 106t87 63q-51 18 -76 58.5t-25 92.5q0 83 59.5 138.5t160.5 55.5q99 0 159 -56t60 -138q0 -51 -25.5 -92.5t-75.5 -58.5q56 -15 86 -63t30 -106q0 -88 -63.5 -148t-170.5 -60zM280 397q58 0 93 33t35 83q0 49 -35 82.5
t-93 33.5t-93.5 -33.5t-35.5 -82.5q0 -50 35 -83t94 -33zM280 71q64 0 103.5 36.5t39.5 89.5t-38.5 89.5t-104.5 36.5q-67 0 -105.5 -36t-38.5 -90t39 -90t105 -36z" />
    <glyph glyph-name="nine.tlf" 
d="M289 711q105 0 171.5 -69.5t66.5 -168.5q0 -70 -42 -139l-208 -334h-105l160 246q-10 -11 -43 -11q-107 0 -174 69t-67 169t67 169t174 69zM289 629q-67 0 -108.5 -45t-41.5 -111t41.5 -111t108.5 -45q65 0 106 45.5t41 110.5t-41 110.5t-106 45.5z" />
    <glyph glyph-name="csuperior" horiz-adv-x="368" 
d="M248 473q-5 48 -61 48q-34 0 -51.5 -22t-17.5 -55q0 -34 18 -55.5t54 -21.5q48 0 59 43h68q-6 -46 -39 -73.5t-92 -27.5q-63 0 -99 39.5t-36 95.5t36 95.5t99 39.5q60 0 93 -31t37 -75h-68z" />
    <glyph glyph-name="fsuperior" horiz-adv-x="261" 
d="M225 648q-12 5 -28 5q-39 0 -39 -42v-38h67v-52h-67v-206h-68v206h-50v52h50v34q0 32 8.5 53.5t24 30t28.5 11.5t31 3q21 0 43 -6v-51z" />
    <glyph glyph-name="gsuperior" horiz-adv-x="401" 
d="M192 521q-33 0 -53.5 -22.5t-20.5 -54.5q0 -33 20.5 -55t53.5 -22q32 0 52.5 22t20.5 55q0 32 -20.5 54.5t-52.5 22.5zM333 310q0 -69 -35 -99t-108 -30q-66 0 -100.5 30t-36.5 79h68q6 -58 69 -58q75 0 75 74v54q-25 -48 -86 -48q-57 0 -92.5 37t-35.5 95q0 57 35 95.5
t91 38.5q64 0 88 -49v44h68v-263z" />
    <glyph glyph-name="ksuperior" horiz-adv-x="347" 
d="M202 443l110 -128h-82l-93 112v-112h-68v385h68v-240l93 113h82z" />
    <glyph glyph-name="psuperior" horiz-adv-x="403" 
d="M137 529q10 21 34 35t53 14q56 0 92 -38.5t36 -95.5q0 -58 -36 -96.5t-92 -38.5q-29 0 -53 14.5t-34 35.5v-171h-68v385h68v-44zM211 521q-33 0 -53.5 -22.5t-20.5 -54.5q0 -33 20.5 -55t53.5 -22q32 0 52.5 22t20.5 55q0 32 -20.5 54.5t-52.5 22.5z" />
    <glyph glyph-name="qsuperior" horiz-adv-x="403" 
d="M266 573h68v-385h-68v171q-10 -21 -34 -35.5t-53 -14.5q-56 0 -91.5 38.5t-35.5 96.5q0 57 35.5 95.5t91.5 38.5q29 0 53 -14t34 -35v44zM193 521q-33 0 -53.5 -22.5t-20.5 -54.5q0 -33 20.5 -55t53.5 -22q32 0 52.5 22t20.5 55q0 32 -20.5 54.5t-52.5 22.5z" />
    <glyph glyph-name="usuperior" horiz-adv-x="386" 
d="M317 315h-68v45q-25 -51 -89 -51q-50 0 -74 29q-21 28 -21 83v152h67v-135q0 -72 55 -72q31 0 46.5 21.5t15.5 55.5v130h68v-258z" />
    <glyph glyph-name="vsuperior" horiz-adv-x="349" 
d="M102 573l72 -178l73 178h71l-117 -258h-54l-116 258h71z" />
    <glyph glyph-name="zsuperior" horiz-adv-x="317" 
d="M276 573l-128 -200h125v-58h-231l128 200h-121v58h227z" />
    <glyph glyph-name="plusinferior" horiz-adv-x="390" 
d="M166 -158v87h-86v55h86v87h58v-87h86v-55h-86v-87h-58z" />
    <glyph glyph-name="minusinferior" horiz-adv-x="390" 
d="M79 -71v55h232v-55h-232z" />
    <glyph glyph-name="equalinferior" horiz-adv-x="390" 
d="M79 -22v55h232v-55h-232zM79 -121v55h232v-55h-232z" />
    <glyph glyph-name="multiply.case" 
d="M399 459l62 -61l-116 -116l113 -113l-56 -54l-112 112l-115 -115l-61 61l114 115l-111 112l55 55l112 -112z" />
    <glyph glyph-name="Iacute.smcp" horiz-adv-x="277" 
d="M93 560h91v-560h-91v560zM51 587l-33 62l208 106l33 -62z" />
    <glyph glyph-name="uni0442.002" horiz-adv-x="824" 
d="M666 0v261q0 128 -96 128q-52 0 -81.5 -40t-29.5 -118v-231h-87v256q0 133 -95 133q-52 0 -82 -40t-30 -118v-231h-87v454h87v-81q13 40 49 66.5t85 26.5q118 0 146 -97q15 41 54.5 69t91.5 28q85 0 123.5 -49t38.5 -130v-287h-87z" />
    <glyph glyph-name="parenleft.smcp" horiz-adv-x="363" 
d="M309 551q-52 0 -84 -35.5t-32 -87.5v-416q0 -52 32 -87.5t84 -35.5v-79q-91 0 -147.5 59t-56.5 143v416q0 84 56.5 142.5t147.5 58.5v-78z" />
    <glyph glyph-name="Ibreve.smcp" horiz-adv-x="277" 
d="M93 560h92v-560h-92v560zM44 718q19 -58 95 -58q36 0 61.5 16t33.5 42h74q-8 -56 -56.5 -91t-112.5 -35t-111.5 35t-57.5 91h74z" />
    <glyph glyph-name="uni0438.002" horiz-adv-x="565" 
d="M487 454v-454h-87v81q-21 -43 -62.5 -67.5t-97.5 -24.5q-92 0 -137 59q-34 50 -34 138v268h87v-240q0 -148 114 -148q63 0 96.5 44.5t33.5 110.5v233h87z" />
    <glyph glyph-name="Dcroat.smcp" horiz-adv-x="630" 
d="M276 560q133 0 212 -83t79 -197t-79 -197t-212 -83h-183v246h-99v70h99v244h183zM284 246h-101v-167h91q92 0 147 60t55 141t-55 141t-147 60h-91v-165h101v-70z" />
    <glyph glyph-name="Scaron.smcp" horiz-adv-x="534" 
d="M157 180q0 -54 31.5 -86t85.5 -32q45 0 74 24t29 63q0 22 -8 38.5t-26 27.5t-31.5 16.5t-39.5 13.5q-48 15 -73.5 25.5t-56 31t-44 50t-13.5 70.5q0 68 53 109.5t133 41.5q84 0 134 -48.5t50 -124.5h-90q-1 46 -25.5 73t-68.5 27t-70 -20.5t-26 -56.5q0 -38 26 -58.5
t75 -34.5q29 -10 39 -13.5t36.5 -14t37.5 -18t29.5 -21.5t26.5 -28t14.5 -34.5t6.5 -43.5q0 -80 -55 -125t-143 -45q-89 0 -145 52.5t-56 140.5h90zM137 727l43 53l91 -84l93 84l44 -53l-137 -120z" />
    <glyph glyph-name="Nacute.smcp" horiz-adv-x="613" 
d="M431 143v417h89v-560h-95l-242 415v-415h-90v560h96zM221 596l-33 62l208 107l33 -62z" />
    <glyph glyph-name="Q.smcp" horiz-adv-x="710" 
d="M647 280q0 -96 -55 -172.5t-144 -102.5l50 -67l-79 -41l-65 90q-131 0 -211 87t-80 206q0 120 80.5 206.5t211.5 86.5t211.5 -86.5t80.5 -206.5zM355 68q89 0 144 63.5t55 148.5q0 87 -55 149.5t-144 62.5t-144 -62.5t-55 -149.5q0 -85 55 -148.5t144 -63.5z" />
    <glyph glyph-name="Eth.smcp" horiz-adv-x="630" 
d="M276 560q132 0 211.5 -83t79.5 -197t-79 -197t-212 -83h-183v245h-89v71h89v244h183zM276 245h-93v-166h90q92 0 147 60t55 141t-55 141t-147 60h-90v-165h93v-71z" />
    <glyph glyph-name="Tbar.smcp" horiz-adv-x="456" 
d="M374 322h-101v-322h-90v322h-99v69h99v90h-139v79h369v-79h-140v-90h101v-69z" />
    <glyph glyph-name="Lcommaaccent.smcp" horiz-adv-x="414" 
d="M93 560h90v-481h176v-79h-266v560zM162 -64q0 21 14 35.5t35 14.5q26 0 42 -19.5t16 -50.5q0 -104 -104 -104v31q57 0 62 44q0 5 -1 6q-5 -5 -16 -5q-21 0 -34.5 13.5t-13.5 34.5z" />
    <glyph glyph-name="Y.smcp" horiz-adv-x="546" 
d="M235 0h-99l110 218l-208 342h105l150 -252l125 252h99z" />
    <glyph glyph-name="Ncaron.smcp" horiz-adv-x="613" 
d="M431 143v417h89v-560h-95l-242 415v-415h-90v560h96zM174 717l43 53l92 -85l93 85l43 -53l-136 -121z" />
    <glyph glyph-name="Uogonek.smcp" horiz-adv-x="574" 
d="M373 -158q-33 -12 -73 -12q-46 0 -71 22t-25 56q0 41 49 81q-76 10 -122 65t-46 129v377h90v-376q0 -49 31 -83.5t80 -34.5q51 0 82.5 34.5t31.5 83.5v376h89v-377q0 -77 -49.5 -133t-130.5 -62q-32 -25 -32 -57q0 -21 12.5 -34.5t33.5 -13.5q24 0 51 11z" />
    <glyph glyph-name="Rcaron.smcp" horiz-adv-x="565" 
d="M93 560h211q87 0 141.5 -56.5t54.5 -137.5q0 -61 -32.5 -109.5t-88.5 -69.5l117 -187h-103l-109 173h-101v-173h-90v560zM183 484v-235h114q50 0 81 34t31 83t-31 83.5t-80 34.5h-115zM137 717l42 54l93 -84l93 84l43 -54l-136 -119z" />
    <glyph glyph-name="three.denominator" horiz-adv-x="382" 
d="M119 123q0 -33 19.5 -52.5t50.5 -19.5q30 0 47 17t17 43q0 62 -68 62h-33v56h33q62 0 62 56q0 52 -57 52q-61 0 -61 -63h-71q0 52 33 85t97 33q56 0 93 -28.5t37 -77.5q0 -32 -17 -54.5t-45 -31.5q30 -9 49 -33.5t19 -59.5q0 -52 -38.5 -83t-95.5 -31q-67 0 -104.5 35.5
t-37.5 94.5h71z" />
    <glyph glyph-name="Obreve.smcp" horiz-adv-x="710" 
d="M355 -13q-131 0 -211.5 86.5t-80.5 206.5t80.5 206.5t211.5 86.5t211.5 -86.5t80.5 -206.5t-80.5 -206.5t-211.5 -86.5zM355 68q89 0 144 63.5t55 148.5q0 87 -55 149.5t-144 62.5t-144 -62.5t-55 -149.5q0 -85 55 -148.5t144 -63.5zM259 717q21 -58 96 -58q36 0 61.5 16
t33.5 42h73q-6 -56 -55 -91t-113 -35t-112 35t-56 91h72z" />
    <glyph glyph-name="Lacute.smcp" horiz-adv-x="414" 
d="M359 79v-79h-266v560h89v-481h177zM70 596l-32 62l208 107l32 -62z" />
    <glyph glyph-name="two.plf.smcp" horiz-adv-x="520" 
d="M78 0q0 65 10 111.5t32.5 78.5t47.5 52t66 41q25 12 38 19t31.5 20t28 25t16.5 29t7 37q0 41 -23.5 62t-65.5 21q-44 0 -70.5 -26t-26.5 -76h-91q0 78 52 127t136 49q79 0 129.5 -43t50.5 -121q0 -36 -14 -65.5t-41.5 -52.5t-45.5 -34.5t-49 -27.5q-69 -39 -91.5 -67.5
t-22.5 -81.5h263v-77h-367z" />
    <glyph glyph-name="C.smcp" horiz-adv-x="689" 
d="M628 181q-21 -85 -93.5 -139.5t-175.5 -54.5q-133 0 -214.5 86t-81.5 208q0 119 79.5 205.5t208.5 86.5q118 0 189 -60t88 -155h-94q-13 60 -59 97.5t-117 37.5q-94 0 -149 -62.5t-55 -149.5q0 -90 57.5 -151.5t154.5 -61.5q56 0 102 32t63 81h97z" />
    <glyph glyph-name="ampersand.smcp" horiz-adv-x="555" 
d="M310 261h196v-74h-46q0 -89 -53 -143t-143 -54q-80 0 -138 46t-58 124q0 92 100 131q-89 32 -89 126q0 70 52 111.5t130 41.5q85 0 134 -47.5t49 -121.5h-90q0 96 -96 96q-41 0 -65.5 -21.5t-24.5 -59.5q0 -87 100 -87h11v-74h-11q-110 0 -110 -98q0 -38 29 -65t78 -27
q48 0 77 33.5t30 88.5h-62v74z" />
    <glyph glyph-name="J.smcp" horiz-adv-x="510" 
d="M423 182q0 -90 -50 -142.5t-138 -52.5t-139.5 55t-51.5 140h90q0 -52 27 -84t74 -32t73 31t26 85v378h89v-378z" />
    <glyph glyph-name="Amacron.smcp" horiz-adv-x="543" 
d="M506 0h-97l-27 83h-222l-28 -83h-95l196 560h76zM184 158h174l-87 278zM416 638h-290v69h290v-69z" />
    <glyph glyph-name="nine.denominator" horiz-adv-x="380" 
d="M191 392q63 0 102 -39.5t39 -95.5q0 -42 -23 -77l-114 -180h-80l82 127q-3 -4 -13 -4q-61 2 -97.5 40.5t-36.5 93.5q0 56 38.5 95.5t102.5 39.5zM191 332q-32 0 -51.5 -21.5t-19.5 -53.5t20 -54t51 -22t51 22t20 54t-19.5 53.5t-51.5 21.5z" />
    <glyph glyph-name="Aring.smcp" horiz-adv-x="543" 
d="M506 0h-97l-27 83h-222l-28 -83h-95l196 560h76zM184 158h174l-87 278zM272 787q42 0 72 -30.5t30 -72.5q0 -41 -30 -71t-72 -30q-43 0 -73 30t-30 71q0 43 30 73t73 30zM272 732q-20 0 -33.5 -14t-13.5 -34q0 -18 13.5 -31.5t33.5 -13.5q19 0 32.5 13.5t13.5 32.5
t-13 33t-33 14z" />
    <glyph glyph-name="Idotaccent.smcp" horiz-adv-x="277" 
d="M93 560h91v-560h-91v560zM78 680q0 26 17 43.5t43 17.5t44 -17.5t18 -43.5q0 -25 -18 -43t-44 -18t-43 18t-17 43z" />
    <glyph glyph-name="Hcircumflex.smcp" horiz-adv-x="608" 
d="M426 239h-243v-239h-90v560h90v-243h243v243h89v-560h-89v239zM304 770l150 -120l-49 -53l-101 82l-101 -81l-49 52z" />
    <glyph glyph-name="three.numerator" horiz-adv-x="382" 
d="M119 438q0 -33 19.5 -52.5t50.5 -19.5q30 0 47 17t17 43q0 62 -68 62h-33v56h33q62 0 62 56q0 52 -57 52q-61 0 -61 -63h-71q0 52 33 85t97 33q56 0 93 -28.5t37 -77.5q0 -32 -17 -54.5t-45 -31.5q30 -9 49 -33.5t19 -59.5q0 -52 -38.5 -83t-95.5 -31q-67 0 -104.5 35.5
t-37.5 94.5h71z" />
    <glyph glyph-name="uni0437.002" horiz-adv-x="465" 
d="M98 -64q2 -54 39 -86t89 -32q51 0 83 35.5t32 103.5q0 64 -30 107.5t-94 43.5h-38v62h39q50 0 78.5 32t28.5 86q0 47 -23.5 75.5t-67.5 28.5q-49 0 -73.5 -25t-24.5 -67h-84q0 72 51.5 117t133.5 45q80 0 125.5 -44.5t45.5 -117.5q0 -131 -111 -155q57 -10 93.5 -62.5
t36.5 -122.5q0 -105 -56 -160.5t-150 -55.5q-93 0 -150 50.5t-57 141.5h84z" />
    <glyph glyph-name="Racute.smcp" horiz-adv-x="565" 
d="M93 560h211q87 0 141.5 -56.5t54.5 -137.5q0 -61 -32.5 -109.5t-88.5 -69.5l117 -187h-103l-109 173h-101v-173h-90v560zM183 484v-235h114q50 0 81 34t31 83t-31 83.5t-80 34.5h-115zM195 596l-33 62l208 107l33 -62z" />
    <glyph glyph-name="Scommaaccent.smcp" horiz-adv-x="534" 
d="M157 180q0 -54 31.5 -86t85.5 -32q45 0 74 24t29 63q0 22 -8 38.5t-26 27.5t-31.5 16.5t-39.5 13.5q-48 15 -73.5 25.5t-56 31t-44 50t-13.5 70.5q0 68 52.5 109.5t132.5 41.5q84 0 134.5 -48.5t50.5 -124.5h-90q-1 46 -25.5 73t-68.5 27t-70 -20.5t-26 -56.5
q0 -38 26 -58.5t75 -34.5q29 -10 39 -13.5t36.5 -14t37.5 -18t29.5 -21.5t26.5 -28t14.5 -34.5t6.5 -43.5q0 -80 -55 -125t-143 -45q-89 0 -145 52.5t-56 140.5h90zM220 -72q0 21 14 35t35 14q26 0 42.5 -19.5t16.5 -49.5q0 -103 -105 -105v31q57 0 63 44q0 6 -2 6
q-4 -4 -16 -4q-21 0 -34.5 13.5t-13.5 34.5z" />
    <glyph glyph-name="Icircumflex.smcp" horiz-adv-x="277" 
d="M93 560h91v-560h-91v560zM138 770l150 -121l-47 -53l-102 82l-101 -81l-48 52z" />
    <glyph glyph-name="A.smcp" horiz-adv-x="543" 
d="M506 0h-97l-27 83h-222l-28 -83h-95l196 560h76zM184 158h174l-87 278z" />
    <glyph glyph-name="E.smcp" horiz-adv-x="504" 
d="M183 485v-170h233v-74h-233v-165h233v-76h-323v560h323v-75h-233z" />
    <glyph glyph-name="AEacute.smcp" horiz-adv-x="769" 
d="M446 485v-170h232v-74h-232v-165h232v-76h-322v84h-185l-39 -84h-98l274 560h370v-75h-232zM356 159v315l-150 -315h150zM360 596l-32 62l208 107l32 -62z" />
    <glyph glyph-name="Adieresis.001.smcp" horiz-adv-x="543" 
d="M246 592h-59l70 104h58zM345 592h-59l70 104h58zM506 0h-97l-27 83h-222l-28 -83h-95l196 560h76zM184 158h174l-87 278z" />
    <glyph glyph-name="Abreve.smcp" horiz-adv-x="543" 
d="M506 0h-97l-27 83h-222l-28 -83h-95l196 560h76zM184 158h174l-87 278zM176 718q19 -58 95 -58q36 0 61.5 16t33.5 42h74q-8 -56 -56.5 -91t-112.5 -35t-111.5 35t-57.5 91h74z" />
    <glyph glyph-name="Udieresis.smcp" horiz-adv-x="574" 
d="M85 560h90v-376q0 -49 31 -83.5t80 -34.5q51 0 82.5 34.5t31.5 83.5v376h89v-377q0 -83 -56 -139.5t-147 -56.5q-90 0 -145.5 56.5t-55.5 139.5v377zM319 674q0 26 17 43.5t43 17.5t44 -17.5t18 -43.5t-18 -43t-44 -17t-43 17t-17 43zM131 674q0 26 17.5 43.5t43.5 17.5
t44 -17.5t18 -43.5t-18 -43t-44 -17t-43.5 17t-17.5 43z" />
    <glyph glyph-name="six.numerator" horiz-adv-x="380" 
d="M189 309q-64 0 -102.5 38.5t-38.5 95.5q0 43 22 78l114 179h81l-83 -128q9 3 32 1q53 -6 84.5 -42t31.5 -88q0 -57 -39 -95.5t-102 -38.5zM189 368q31 0 51 22t20 53q0 33 -19.5 54.5t-51.5 21.5t-51.5 -21.5t-19.5 -54.5q0 -31 19.5 -53t51.5 -22z" />
    <glyph glyph-name="Cacute.smcp" horiz-adv-x="689" 
d="M628 181q-21 -85 -93.5 -139.5t-175.5 -54.5q-133 0 -214.5 86t-81.5 208q0 119 79.5 205.5t208.5 86.5q118 0 189 -60t88 -155h-94q-13 60 -59 97.5t-117 37.5q-94 0 -149 -62.5t-55 -149.5q0 -90 57.5 -151.5t154.5 -61.5q56 0 102 32t63 81h97zM260 596l-32 62
l209 107l32 -62z" />
    <glyph glyph-name="minus.numerator" horiz-adv-x="390" 
d="M79 445v54h232v-54h-232z" />
    <glyph glyph-name="Uacute.smcp" horiz-adv-x="574" 
d="M85 560h90v-376q0 -49 31 -83.5t80 -34.5q51 0 82.5 34.5t31.5 83.5v376h89v-377q0 -83 -56 -139.5t-147 -56.5q-90 0 -145.5 56.5t-55.5 139.5v377zM187 596l-33 62l209 107l32 -62z" />
    <glyph glyph-name="Aacute.smcp" horiz-adv-x="543" 
d="M506 0h-97l-27 83h-222l-28 -83h-95l196 560h76zM184 158h174l-87 278zM184 587l-33 62l209 106l32 -62z" />
    <glyph glyph-name="Imacron.smcp" horiz-adv-x="277" 
d="M92 560h92v-560h-92v560zM284 638h-290v69h290v-69z" />
    <glyph glyph-name="equal.denominator" horiz-adv-x="390" 
d="M79 178v55h232v-55h-232zM79 79v55h232v-55h-232z" />
    <glyph glyph-name="F.smcp" horiz-adv-x="500" 
d="M183 482v-187h233v-77h-233v-218h-90v560h323v-78h-233z" />
    <glyph glyph-name="one.numerator" horiz-adv-x="268" 
d="M47 634q52 0 69.5 15t17.5 51h64v-385h-73v267h-78v52z" />
    <glyph glyph-name="parenleft.denominator" horiz-adv-x="268" 
d="M223 368q-35 0 -57 -24t-22 -59v-269q0 -35 22 -59t57 -24v-61q-66 0 -107 42t-41 102v269q0 60 41 102t107 42v-61z" />
    <glyph glyph-name="exclamdown.smcp" horiz-adv-x="311" 
d="M111 380h92v-384h-92v384zM93 504q0 26 18.5 45t45.5 19q26 0 44.5 -19t18.5 -45t-18.5 -44.5t-44.5 -18.5q-27 0 -45.5 18.5t-18.5 44.5z" />
    <glyph glyph-name="brokenbar.smcp" horiz-adv-x="325" 
d="M93 276v353h85v-353h-85zM178 191v-355h-85v355h85z" />
    <glyph glyph-name="D.smcp" horiz-adv-x="630" 
d="M276 560q133 0 212 -83t79 -197t-79 -197t-212 -83h-183v560h183zM183 481v-402h90q92 0 147 60t55 141t-55 141t-147 60h-90z" />
    <glyph glyph-name="Gdotaccent.smcp" horiz-adv-x="732" 
d="M402 277h280v-73h-59q-16 -99 -85.5 -158t-184.5 -59q-135 0 -212.5 85t-77.5 208q0 119 80 206t210 87q97 0 164.5 -50.5t77.5 -124.5h-93q-10 41 -51 68.5t-98 27.5q-90 0 -144.5 -63.5t-54.5 -151.5q0 -90 54.5 -152t152.5 -62q73 0 116.5 38.5t52.5 100.5h-128v73z
M292 680q0 26 17.5 43.5t42.5 17.5q26 0 44 -17.5t18 -43.5q0 -25 -18 -43t-44 -18q-25 0 -42.5 18t-17.5 43z" />
    <glyph glyph-name="three.plf.smcp" horiz-adv-x="540" 
d="M157 178q0 -52 30 -82t79 -30q47 0 74 27t27 67q0 44 -26 69.5t-79 25.5h-46v75h46q95 0 95 86q0 38 -24 59t-65 21q-96 0 -96 -95h-91q0 74 48.5 121.5t134.5 47.5q78 0 131 -41.5t53 -111.5q0 -47 -24.5 -80.5t-64.5 -45.5q45 -13 72 -48.5t27 -87.5q0 -74 -55 -119.5
t-137 -45.5q-90 0 -145 51.5t-55 136.5h91z" />
    <glyph glyph-name="five.smcp" horiz-adv-x="553" 
d="M90 560h348v-75h-265v-172q17 29 51 44.5t72 15.5q85 0 133 -54.5t48 -133.5q0 -83 -55 -139t-145 -56t-145 56.5t-55 137.5h90q0 -49 30 -82.5t80 -33.5q49 0 79.5 34t30.5 83q0 48 -30 81t-80 33q-70 0 -99 -62h-88v323z" />
    <glyph glyph-name="Edieresis.001" horiz-adv-x="544" 
d="M250 740h-67l87 130h67zM368 740h-67l87 130h67zM169 618v-229h302v-82h-302v-225h302v-82h-393v700h393v-82h-302z" />
    <glyph glyph-name="Aringacute.smcp" horiz-adv-x="543" 
d="M409 0l-27 83h-222l-28 -83h-95l194 555q-6 1 -14 17.5t-8 30.5q0 25 18 42.5t43 17.5t42.5 -18t17.5 -42q0 -14 -7 -30t-13 -17l196 -556h-97zM271 436l-87 -278h174zM177 636l-22 40l195 102l21 -40zM270 629q-11 0 -18 -7.5t-7 -18.5q0 -10 7 -17.5t18 -7.5t18 7.5
t7 17.5q0 11 -7 18.5t-18 7.5z" />
    <glyph glyph-name="Gcircumflex.smcp" horiz-adv-x="732" 
d="M402 277h280v-73h-59q-16 -99 -85.5 -158t-184.5 -59q-135 0 -212.5 85t-77.5 208q0 119 80 206t210 87q97 0 164.5 -50.5t77.5 -124.5h-93q-10 41 -51 68.5t-98 27.5q-90 0 -144.5 -63.5t-54.5 -151.5q0 -90 54.5 -152t152.5 -62q73 0 116.5 38.5t52.5 100.5h-128v73z
M353 771l150 -119l-48 -54l-102 82l-101 -81l-49 53z" />
    <glyph glyph-name="equal.numerator" horiz-adv-x="390" 
d="M79 493v55h232v-55h-232zM79 394v55h232v-55h-232z" />
    <glyph glyph-name="Egrave.smcp" horiz-adv-x="504" 
d="M183 485v-170h233v-74h-233v-165h233v-76h-323v560h323v-75h-233zM144 694l33 62l208 -106l-33 -63z" />
    <glyph glyph-name="Edotaccent.smcp" horiz-adv-x="504" 
d="M183 485v-170h233v-74h-233v-165h233v-76h-323v560h323v-75h-233zM191 680q0 26 17.5 43.5t43.5 17.5t43.5 -17.5t17.5 -43.5q0 -25 -17.5 -43t-43.5 -18t-43.5 18t-17.5 43z" />
    <glyph glyph-name="R.smcp" horiz-adv-x="565" 
d="M93 560h211q87 0 141.5 -56.5t54.5 -137.5q0 -61 -32.5 -109.5t-88.5 -69.5l117 -187h-103l-109 173h-101v-173h-90v560zM297 249q50 0 81 34t31 83t-31 83.5t-80 34.5h-115v-235h114z" />
    <glyph glyph-name="P.smcp" horiz-adv-x="555" 
d="M93 560h211q87 0 141.5 -56.5t54.5 -137.5q0 -80 -54.5 -136.5t-141.5 -56.5h-121v-173h-90v560zM297 249q50 0 81 34t31 83t-31 83.5t-80 34.5h-115v-235h114z" />
    <glyph glyph-name="Ecaron.smcp" horiz-adv-x="504" 
d="M183 485v-170h233v-74h-233v-165h233v-76h-323v560h323v-75h-233zM116 717l43 53l93 -85l92 85l43 -53l-135 -121z" />
    <glyph glyph-name="Uring.smcp" horiz-adv-x="574" 
d="M85 560h90v-376q0 -49 31 -83.5t80 -34.5q51 0 82.5 34.5t31.5 83.5v376h89v-377q0 -83 -56 -139.5t-147 -56.5q-90 0 -145.5 56.5t-55.5 139.5v377zM287 787q42 0 72 -30.5t30 -72.5t-29.5 -71.5t-72.5 -29.5t-72.5 29.5t-29.5 71.5q0 43 29.5 73t72.5 30zM287 732
q-20 0 -33.5 -14t-13.5 -34q0 -18 13.5 -31.5t33.5 -13.5t33 13.5t13 32.5t-13 33t-33 14z" />
    <glyph glyph-name="Thorn.smcp" horiz-adv-x="478" 
d="M174 459h55q89 0 141.5 -53.5t52.5 -129.5t-52.5 -129.5t-141.5 -53.5h-55v-93h-82v560h82v-101zM174 164h55q51 0 81.5 33t30.5 79q0 47 -30.5 80t-81.5 33h-55v-225z" />
    </font>
</defs>
</svg>
