<svg xmlns="http://www.w3.org/2000/svg" viewBox="0 0 600 600"><title>logo</title><path d="M0,0V600H600V0ZM390.26,428.51c-9.23,38.3-34.82,61.81-73.46,69.77-51.2,10.56-102.12-26.63-108.89-78.76-3.59-27.62,3.8-52,21.65-73.72l14.76,11.25a78.78,78.78,0,0,0-16.82,32.27c-9.91,40,15.82,81.38,56.24,90.31,40.85,9,81.87-17.54,89.32-58.26,5.34-29.2-3.15-54.25-26.5-72.53-48.54-38-97.79-75-146.74-112.47-3.28-2.51-6.59-5-10.83-8.17v153H170.66V191.53a14.08,14.08,0,0,1,2.55,1.22c61.43,46.9,123.19,93.38,184.12,140.92C388.15,357.72,399.39,390.66,390.26,428.51Z" stroke="#000" stroke-miterlimit="10"/><path d="M357.33,333.67c-60.93-47.54-122.69-94-184.12-140.92a14.08,14.08,0,0,0-2.55-1.22V381.16H189v-153c4.24,3.2,7.55,5.67,10.83,8.17,49,37.43,98.21,74.5,146.74,112.47,23.36,18.27,31.84,43.33,26.5,72.53-7.45,40.72-48.47,67.29-89.32,58.26-40.41-8.92-66.15-50.3-56.24-90.31a78.78,78.78,0,0,1,16.82-32.27l-14.76-11.25c-17.86,21.73-25.24,46.09-21.65,73.72,6.77,52.13,57.69,89.32,108.89,78.76,38.64-8,64.23-31.47,73.46-69.77C399.39,390.66,388.15,357.72,357.33,333.67Z" fill="#0080ff"/><path d="M349.79,186.81s.82-2.58,1-3.31c5.87-32.12-15.87-61.63-47.94-64.91-35.26-3.61-64.54,27.33-59.46,62.54,2,14.17,8.78,25.22,20.05,33.8q71.56,54.48,143.07,109c1.19.91,2.41,1.76,4.43,3.23V174.36h18.46V364.65c-5.46-4.12-10.46-7.87-15.44-11.66Q332.84,291.2,251.77,229.42c-24.17-18.4-31.75-46-25-74.46,6.65-28.08,30.44-49.84,57.91-54.09,54.47-8.44,98.32,41.08,82.38,93-.39,1.26-.88,2.5-1.64,4.65" fill="#0080ff"/></svg>
