<svg enable-background="new 0 0 512 512" viewBox="0 0 512 512" height="110" xmlns="http://www.w3.org/2000/svg"><path d="m366.39 125.45-279.89.55v336c0 22.09 17.91 40 40 40h200c22.09 0 40-17.91 40-40v-336.35z" fill="#95e7ee"/><path d="m366.5 462v-336.35l-.11-.2-279.89.55v336z" fill="#fec652"/><path d="m466.5 211v171c0 22.09-17.91 40-40 40h-60v-40h60v-171h-60v-40h60c22.09 0 40 17.91 40 40z" fill="#95e7ee"/><path d="m385.45 81.71c7.61 33.773-27.227 60.794-59.95 44.15v84.43c0 11.04-8.95 20-20 20s-20-8.96-20-20v-40c0-13.81.5-39.29-44-39.29-3.61 0-7.06 1.46-9.56 4.05-9.09 9.4-21.83 15.24-35.94 15.24-13.65 0-26.02-5.47-35.04-14.34-3.23-3.17-7.58-4.95-12.32-4.95-3.81 0-7.29 2.17-8.96 5.59-9.66 19.78-29.73 33.5-53.18 33.7v79.78c-.5 11.26-9.45 20.22-20.5 20.22s-20.5-8.96-20.5-20c0-13.087 0-106.121 0-120 0-47.57 42.01-85.44 90.76-79.19 13.65-24.33 39.77-41.1 69.74-41.1 23.7 0 44.99 10.59 59.64 26.97 6.04-3.82 13.2-5.97 20.86-5.97 17.45 0 32.29 11.17 37.75 26.75 8.59-5.76 19.54-8.28 31.09-5.8 14.68 3.14 26.82 15.12 30.11 29.76z" fill="#ffe5cb"/><path d="m286 451.29c-5.52 0-10 4.48-10 10s4.48 10 10 10 10-4.48 10-10-4.48-10-10-10z"/><path d="m145.5 200.29c-5.523 0-10 4.477-10 10v191c0 5.523 4.477 10 10 10s10-4.477 10-10v-191c0-5.523-4.477-10-10-10z"/><path d="m225.5 200.29c-5.523 0-10 4.477-10 10v191c0 5.523 4.477 10 10 10s10-4.477 10-10v-191c0-5.523-4.477-10-10-10z"/><path d="m126.5 512h200c27.57 0 50-22.43 50-50v-30h50c27.57 0 50-22.43 50-50v-171c0-27.57-22.43-50-50-50h-50v-30.259c15.675-11.751 23.125-31.613 18.707-51.224-4.133-18.39-19.313-33.398-37.768-37.345-9.811-2.105-19.692-1.36-28.695 2.063-9.028-14.233-24.882-23.235-42.244-23.235-6.544 0-12.939 1.269-18.852 3.711-16.738-15.789-38.805-24.711-61.648-24.711-30.216 0-58.396 15.393-75.03 40.579-52.27-2.892-95.47 38.577-95.47 89.711v120c0 16.542 13.682 30 30.5 30 3.689 0 7.224-.671 10.5-1.893v183.603c0 27.57 22.43 50 50 50zm200-20h-200c-13.036 0-24.152-8.361-28.28-20h147.79c5.523 0 10-4.477 10-10s-4.477-10-10-10h-149.51v-201.93-70.564c22.463-3.391 41.914-17.538 52.14-38.505 2.086 0 3.924.722 5.309 2.081 11.286 11.098 26.22 17.209 42.051 17.209 16.408 0 31.725-6.495 43.135-18.295.61-.632 1.473-.995 2.365-.995 15.567 0 25.753 3.325 30.277 9.881 3.729 5.405 3.726 12.915 3.723 18.95v40.459c0 13.036 8.361 24.152 20 28.28v162.72c0 5.523 4.477 10 10 10s10-4.477 10-10v-162.721c11.639-4.128 20-15.243 20-28.28v-70.464c7.005 1.398 14.154 1.407 21 .007v312.167h-30.51c-5.523 0-10 4.477-10 10s4.477 9.9 10 9.9h28.79c-4.128 11.639-15.244 20.1-28.28 20.1zm50-271h40v151h-40zm50-40c16.542 0 30 13.458 30 30v171c0 16.542-13.458 30-30 30h-50v-20h50c5.523 0 10-4.477 10-10v-171c0-5.523-4.477-10-10-10h-50v-20zm-360.5 79.29c-5.691 0-10.5-4.58-10.5-10v-120c0-38.596 31.582-69.852 70.407-69.852 3.017 0 6.05.192 9.081.581 4.045.519 7.998-1.471 9.993-5.026 12.456-22.201 35.837-35.993 61.019-35.993 19.73 0 38.752 8.615 52.187 23.637 3.256 3.642 8.668 4.398 12.799 1.785 4.573-2.893 9.938-4.422 15.514-4.422 12.73 0 24.108 8.061 28.313 20.057 1.023 2.92 3.341 5.203 6.277 6.181 2.935.978 6.159.542 8.729-1.182 6.816-4.57 15.134-6.107 23.429-4.327 10.8 2.31 20.03 11.428 22.446 22.179 5.692 25.264-20.205 45.988-45.661 33.039-3.1-1.577-6.796-1.43-9.762.389-2.965 1.818-4.772 5.046-4.772 8.524v84.43c0 5.514-4.486 10-10 10s-10-4.486-10-10v-40.452c.003-7.876.008-19.779-7.261-30.315-8.479-12.291-24.204-18.523-46.738-18.523-6.29 0-12.396 2.589-16.749 7.099-7.602 7.862-17.813 12.191-28.751 12.191-10.553 0-20.507-4.073-28.035-11.477-5.133-5.039-11.996-7.813-19.325-7.813-7.579 0-14.623 4.397-17.946 11.202-8.382 17.164-25.35 27.927-44.28 28.089-5.489.047-9.915 4.51-9.915 10v79.525c-.352 5.889-4.931 10.474-10.499 10.474z"/></svg>
