<svg height="110" preserveAspectRatio="xMidYMid meet" width="110" xmlns="http://www.w3.org/2000/svg"><path d="m-1-1h112v112h-112z" fill="none"/><g transform="matrix(.0135431 0 0 -.0135431 -.588253 138.093)"><path d="m3787.43066 10196.22754c-19-2-80-9-135-14-782-82-1552-413-2180-939-116-96-380-360-475.99982-476-520.00009-621-824.00006-1318.00098-936.00008-2143.00098-25-183-25-801 0-984 112.00002-825 415.99999-1522.00098 936.00008-2143.00024 95.99982-116 359.99982-380 475.99982-476 621-520 1318-823.99951 2143-935.99951 183-25 801.00049-25 984.00049 0 825 112 1522 415.99951 2143 935.99951 116 96 380 360 476 476 520 620.99927 824 1318.00024 936 2143.00024 25 183 25 801 0 984-112 825-416 1522.00098-936 2143.00098-96 116-360 380-476 476-619 518-1323 826-2137 935-88 12-216 17-453 19-181.00049 2-346.00049 1-365.00049-1zm50-432c0-117 8-371 19-612 6-118 13-287 16-375 11-312 44-1131.00098 49-1204.00098l5-73-45 5c-25 2-48 8-52 11-3 4-10 73-14 154-18 356-77 1737.00098-83 1939.00098l-6 222 28 4c15 2 40 5 56 6l27 1zm957.00049 24c1-1 4-303 7-671 4-369 9-700 12-736 3-37 2-69-3-71-4-3-29-3-54 0l-46 4-7 291c-4 161-9 339-11 397-8 177-15 778-9 793 4 11 15 12 57 5 29-6 53-11 54-12zm-2313.00049-335c6-9 53-560 111-1281 19-245.00098 38-469.00098 41-497.00098 5-51 4-53-28-73-18-11-36-20-40-20-3 0-9 26-12 58-14 130-68 758.00098-106 1212.00098-22 267-42 506-45 532-5 44-4 48 22 62 32 17 50 20 57 7zm2753.00049-201c28-10 31-15 37-72 10-100 7-578-4-578-29 0-89 34-94 53-3 12-6 154-6 315 0 325-4 306 67 282zm-1847.00049-47c0-27 7-176 15-333s17-356 21-442c7-174 9-168-58-172-33-1-33-1-35 49-2 28-7 115-13 195-5 80-17 253-25 385s-18 263-21 291c-6 50-5 52 22 62 16 6 44 11 62 11 32 1 32 1 32-46zm2774.00049-137 34-14 7-134c3-73 5-231 3-350l-3-218-42 21-42 20-3 332c-2 183-1 338 1 345 4 15 4 15 45-2zm-1826-131c6-6 20-491 21-737l1-148.00098-47 7c-27 3-49 6-50 7-3 2-33 743.00098-33 815.00098v74l51-6c29-4 54-9 57-12zm2303-71c12-14 14-233 17-1441.00098 3-1387 3-1423-15-1423-11 0-26 6-35 13-15 11-17 132-22 1317-4 718-9 1370.00098-12 1449.00098l-6 144 29-21c17-12 36-29 44-38zm-897-205c5-4 10-61 11-126 5-221 6-1576.00098 1-1580.00098-2-2-20 3-40 11l-36 15v851 850.00098l28-6c15-4 31-10 36-15zm-2760.00049-56c3-27 8-88 11-138 3-49 10-161 16-248 12-176.00098 10-187.00098-47-187.00098-30 0-34 3-38 33-10 59-45 551.00098-40 559.00098 5 7 57 25 81 27 6 1 14-20 17-46zm-1654-255c11-106 33-328.00098 49-493.00098 17-165 31-305 31-311 0-12-77-50-85-42-5 5-105 890.00098-105 930.00098 0 24 77 125 87 114 3-2 13-91 23-198zm3921.00049-105 29-17 1-216.00098c1-118 3-250 3-293 2-90-9-105-63-86l-31 11v86c0 48-3 187-7 310l-6 222.00098h23c12 0 35-8 51-17zm-3482.00049-388.00098c18-192 47-516 66-720l34-370-39-39-38-39-7 79c-4 44-24 248-45 454s-51 505-66 664l-28 288.00146 39 35.99951c35 33 39 34 46 16 4-10 21-176.00098 38-369.00098zm-748.99982-121c21.99994-197 79.99982-721 129.99982-1164s97-870 106-950c8-80 22-201 30-270 14-117 14-125-2-137-24-18-34-16-34 5 0 9-9 85-20 167-18 137-48 369-115 890-14 105-41 314-60 465-19.99988 151-48.99982 376-64.99982 500s-43 336-60 473c-18 136-29 257-26 270 7 27 66 121 72 115 2-3 22-166 44-364zm-306-431c15-120 43-339 62-488 19-148 43-333 54-410l19-140-21-18c-12-10-24-14-28-10s-12 44-18 88-43 301-83 570l-71 490 23 68c12 37 25 67 28 67 4 0 19-98 35-217zm5490.00031 131c14-14 16-76 16-535v-519h-28c-61 0-60-15-64 553l-3 517h32c17 0 39-7 47-16zm-2189.00049-179c226.00049-34 423.00049-97 618.00049-197 126-65 186-110 326-244 208-199 336-373 456-619 175-358 243-675 329-1525 39-381.00098 90-1072.00024 101-1355.00024 3-82 10-217 16-300 11-176 24-152-131-227-215-104-422-176-695-243-334-82-550-107.99951-880-108.99951l-240.00049-1 2 114.99951c0 63 6 210 12 325 30 557 24 1259.99927-15 1650.00024-22 224-65 496-89 556-5 13 18 24 117 58 181.00049 63 338.00049 142 362.00049 181 43 74-34 180-132 180-17 0-68.00049-18-115.00049-39-224-103-673-224-932-251-179-19-457-8-650 27-105 19-293 90-450 171-181 94-292 219-325 367-18 80-13 240 10 330 25 99 95 243 159 327 285 375 873 700 1476 814 192 36 464 40 670 9zm3085.00049-31c36-15 40-19 40-53 2-273-4-897-9-923-1-9-53-10-75-2-14 5-16 59-16 500 0 316 4 494 10 494 5 0 28-7 50-16zm437-549 36-15-7-828c-8-1055-9-1086-47-1177-62-149-59-179.00098-53 475 2 327 7 658 9 735s4 294 5 483c0 228 3 342 10 342 6 0 27-7 47-15zm-6014.00049-249c6-81 4-89-25-153l-32-68-12 100c-19 160-19 167 19 191 17 12 35 20 38 18s9-42 12-88zm-617.99982-603c9-82 79-626 115-893 53.99982-413 57.99982-472.00098 33.99982-447.00098-2.99988 3-25.99988 142.00098-49.99982 309.00098-156 1078-155 1071-142 1079 27 18 36 8 43-48zm719.99982-458c6-25 35-296 35-329 0-28-36-54-52-38-5 5-18 90-28 188-11 99-22 202-25 229l-6 50 35-40c20-22 38-49 41-60zm807-377c11-10 18-50 27-158 15-195 17-180-24-180-42 0-41-3-55 173-14 179-14 177 13 177 13 0 30-6 39-12zm792-15c2-10 7-70 11-133 3-63 12-205 20-315 28-404.00098 29-455.00049 12-455.00049-19 0-21 14.99976-43 299.99951-8 118-23 304.00098-33 413.00098-9 109-15 200-12 202 11 12 40 3 45-12zm-1880-192c6-9 44-329.00098 91-766.00024 14-132 28-259 31-283l5-43-25 16c-19 13-26 26-26 49 0 63-43 477.99927-76 731.99927-19 144.00098-34 271.00098-34 283.00098 0 21 24 29 34 12zm5771.00049-418.00098-7-417.99927-25-37c-57-84-54-100-51 367.99927l2 429.00098 37 38c20 20 40 37 44 37 3 0 3-188 0-417.00098zm-925-662.99927c5-581 4-626-12-644-10-11-19-18-22-15-7 8-17 1274.99927-9 1281.99927 4 4 14 6 23 5 13-3 16-74 20-627.99927zm-3266.00049 397.99927c7-61.99927 32-358.99927 42-498.99927 6-94 6-97-16-104-12-4-26-3-30 2-7 7-29 229-56 570.99976l-7 81.99951h31c29 0 31-2 36-52zm-786-349.99927c7-7 12-32 12-57 0-26 12-161 25-301 38-383 41-435 24-425-26 15-49 38-44 44 2 4-2 54-10 111-7 58-16 152-20 210s-13 164-21 235c-19 175-18 195 4 195 10 0 23-5 30-12zm473-673c3-22 9-104 13-182 7-150 4-161-37-130-12 9-20 47-32 161-21 206-22 198 17 194 29-3 33-7 39-43z"/><path d="m2251.43066 6778.22656c-104-45-112-186-14-236 71-36 143-19 180 43 70 114-44 246-166 193z"/><path d="m2929.43066 6682.22656c-96-59-96-201 0-260 95-57 218 18 218 132 0 110-126 184-218 128z"/></g></svg>
