<svg height="110" viewBox="-40 0 511 512" width="110" xmlns="http://www.w3.org/2000/svg"><path d="m424.175781 296.339844c0 93.511718-61.699219 172.613281-146.621093 198.808594-19.398438 5.992187-40.019532 9.210937-61.398438 9.210937-5 0-9.960938-.175781-14.875-.53125-3.726562-.253906-7.4375-.621094-11.101562-1.082031-20.328126-2.523438-39.738282-7.984375-57.789063-15.953125-73.175781-32.226563-124.25-105.367188-124.25-190.453125 0-114.894532 93.132813-208.027344 208.015625-208.027344 114.886719 0 208.019531 93.132812 208.019531 208.027344zm0 0" fill="#937de2"/><path d="m216.15625 88.3125c-10.902344 0-21.605469.84375-32.058594 2.460938 99.664063 15.417968 175.957032 101.578124 175.957032 205.566406 0 93.511718-61.699219 172.613281-146.621094 198.808594-9.496094 2.933593-19.285156 5.195312-29.3125 6.746093 2.011718.3125 4.027344.601563 6.058594.851563 3.667968.460937 7.375.828125 11.101562 1.082031 4.914062.355469 9.875.53125 14.875.53125 21.375 0 42-3.222656 61.398438-9.210937 84.921874-26.195313 146.621093-105.296876 146.621093-198.808594 0-114.894532-93.132812-208.027344-208.019531-208.027344zm0 0" fill="#7570d6"/><path d="m235.34375 223.003906-.703125.125-1.601563.273438-50.472656 8.628906-5.144531-34.171875-7.550781-50.15625-17.636719-117.269531c-1.535156-10.839844 5.929687-20.898438 16.761719-22.558594 1.019531-.152344 2.027344-.234375 3.027344-.234375 9.320312 0 17.59375 6.53125 19.539062 15.914063l37.769531 172.074218 5.726563 26.101563zm0 0" fill="#fdd7bd"/><path d="m332.144531 30.757812c0 1.347657-.132812 2.710938-.429687 4.078126l-39.785156 175.035156-8.367188 36.820312-52.121094-12.898437 3.199219-10.664063.417969-1.398437 7.832031-26.113281 51.078125-170.167969c2.851562-10.023438 13.101562-16.015625 23.238281-13.601563 8.914063 2.128906 14.9375 10.097656 14.9375 18.910156zm0 0" fill="#fdd7bd"/><g fill="#fac5aa"><path d="m291.929688 209.871094-8.363282 36.820312-52.125-12.898437 3.199219-10.664063-52.074219 8.902344-5.144531-34.171875c3.28125-1.4375 6.90625-2.21875 10.71875-2.210937l41.191406-.019532 5.726563 26.101563 7.835937-26.113281h8.972657c15.203124-.007813 29.152343 5.339843 40.0625 14.253906zm0 0"/><path d="m283.566406 296.339844-4.238281 69.558594-78.046875 137.929687c-3.726562-.253906-7.4375-.621094-11.101562-1.078125-5.289063-.652344-10.503907-1.507812-15.652344-2.558594-14.667969-2.972656-28.769532-7.5-42.136719-13.398437v-31.421875c0-15.238282-4.21875-30.1875-12.195313-43.175782-3.476562-5.667968-6.246093-11.699218-8.253906-17.972656-2.015625-6.277344-3.269531-12.796875-3.738281-19.429687l-6.847656-97.503907-2.667969-38.074218 69.179688-9.3125 53.304687-7.179688 13.804687-1.855468 1.191407 1.855468zm0 0"/><path d="m233.039062 223.402344-50.472656 8.628906-5.144531-34.171875-7.550781-50.15625c6.511718 1.210937 12.574218 4.839844 16.761718 10.625l43.226563 59.367187c1.316406 1.804688 2.375 3.71875 3.179687 5.707032zm0 0"/></g><path d="m260.921875 291.523438-56.234375.03125c-.417969 12.632812-6.480469 24.9375-17.363281 32.796874-7.210938 5.214844-15.71875 7.964844-24.605469 7.964844-13.40625 0-26.121094-6.46875-34.019531-17.300781l-27.34375-37.726563-2.667969-38.074218 69.179688-9.3125 53.304687-7.183594 13.804687-1.851562 1.191407 1.851562zm0 0" fill="#fabaa1"/><path d="m313.253906 286.03125v91.878906c0 7.90625-1.609375 15.636719-4.644531 22.769532-3.039063 7.132812-7.5 13.652343-13.207031 19.132812-11.410156 10.953125-17.847656 26.082031-17.847656 41.898438v33.4375c-19.398438 5.992187-40.019532 9.210937-61.398438 9.210937-5 0-9.960938-.175781-14.875-.53125-3.726562-.253906-7.4375-.621094-11.101562-1.082031-2.945313-23.511719-5.960938-97.898438-.828126-118.285156 10.261719-40.714844 45.144532-60.5625 57.597657-66.519532 2.320312-1.113281 3.738281-3.527344 3.617187-6.09375l-1.367187-28.417968c-.191407-4.035157-3.523438-7.210938-7.570313-7.203126l-39.011718.042969-16.617188.019531c-14.761719-.050781-26.691406-12.023437-26.691406-26.785156v-.070312c.019531-7.722656 3.300781-14.671875 8.554687-19.53125.144531-.144532.285157-.265625.429688-.398438 4.746093-4.226562 11.015625-6.785156 17.871093-6.765625l35.007813-.019531h14.996094l13.722656-.007812c34.988281-.023438 63.363281 28.332031 63.363281 63.320312zm0 0" fill="#fdd7bd"/><path d="m213.820312 269.425781c-11.953124 8.636719-28.640624 5.980469-37.324218-5.941406l-43.351563-59.527344c-8.65625-11.988281-5.960937-28.722656 6.023438-37.382812 11.988281-8.660157 28.722656-5.964844 37.382812 6.023437l43.230469 59.363282c8.730469 11.984374 6.058594 28.78125-5.960938 37.464843zm0 0" fill="#fce5d0"/><path d="m178.378906 311.964844c-11.953125 8.632812-28.640625 5.976562-37.320312-5.941406l-37.304688-51.46875c-8.660156-11.988282-5.964844-28.722657 6.023438-37.382813 11.984375-8.660156 28.722656-5.960937 37.382812 6.023437l37.183594 51.304688c8.726562 11.984375 6.054688 28.78125-5.964844 37.464844zm0 0" fill="#fce5d0"/><path d="m214.480469 237.289062c2.277343 2.929688 3.523437 6.324219 3.800781 9.75.476562 6.101563-2.101562 12.308594-7.40625 16.207032-4.0625 2.988281-8.960938 4.046875-13.589844 3.339844-1.511718-.230469-2.976562-.644532-4.378906-1.242188-2.933594-1.234375-5.578125-3.25-7.597656-6l-7.066406-9.609375c-5.929688-8.0625-4.195313-19.414063 3.863281-25.339844 3.957031-2.910156 8.710937-3.976562 13.230469-3.355469 4.523437.632813 8.8125 2.957032 11.820312 6.824219zm0 0" fill="#fff2ea"/><path d="m177.332031 279.269531c2.246094 2.957031 3.449219 6.367188 3.691407 9.792969.40625 6.105469-2.246094 12.285156-7.59375 16.121094-4.097657 2.941406-9.007813 3.945312-13.628907 3.183594-1.507812-.246094-2.972656-.675782-4.367187-1.292969-2.914063-1.269531-5.535156-3.3125-7.527344-6.085938l-6.953125-9.695312c-5.835937-8.128907-3.972656-19.457031 4.15625-25.292969 3.992187-2.863281 8.757813-3.875 13.269531-3.199219 4.515625.683594 8.773438 3.058594 11.738282 6.960938zm0 0" fill="#fff2ea"/><path d="m322.882812 108.898438 16.3125-72.476563c3.082032-14.5-5.796874-28.558594-20.21875-32-14.132812-3.375-28.332031 4.914063-32.34375 18.878906l-19.070312 63.539063c-16.734375-4.09375-33.992188-6.167969-51.40625-6.167969-1.414062 0-2.820312.023437-4.222656.050781l-12.886719-58.71875c-2.644531-12.75-14.011719-22.003906-27.023437-22.003906-1.351563 0-2.75.105469-4.183594.320312-14.894532 2.285157-25.285156 16.273438-23.160156 31.25l8.78125 58.367188c-90.402344 27.410156-152.960938 111.308594-152.960938 206.402344 0 118.917968 96.742188 215.660156 215.65625 215.660156 21.539062 0 42.804688-3.203125 63.132812-9.417969.359376-.082031.710938-.191406 1.046876-.324219 17.027343-5.296874 33.390624-12.703124 48.699218-22.125 3.59375-2.210937 4.714844-6.917968 2.5-10.511718-2.210937-3.59375-6.917968-4.714844-10.511718-2.503906-11.375 7.003906-23.382813 12.804687-35.828126 17.367187v-22.773437c0-6.835938 1.359376-13.488282 4.035157-19.773438s6.535156-11.875 11.46875-16.613281c12.835937-12.339844 20.195312-29.621094 20.195312-47.414063v-91.878906c0-18.964844-7.386719-36.789062-20.800781-50.195312-1.539062-1.539063-3.144531-2.988282-4.792969-4.363282l24.0625-106.933594c60.1875 36.1875 97.171875 101.113282 97.171875 171.800782 0 56.945312-24.359375 111.394531-66.832031 149.390625-3.144531 2.8125-3.414063 7.644531-.597656 10.789062 1.507812 1.6875 3.597656 2.546875 5.695312 2.546875 1.816407 0 3.636719-.640625 5.09375-1.945312 45.707031-40.890625 71.921875-99.492188 71.921875-160.777344 0-77.773438-41.589844-149.054688-108.933594-187.445312zm-152.753906-93.464844c.664063-.101563 1.300782-.152344 1.890625-.152344 5.808594 0 10.878907 4.132812 12.078125 9.914062l41.683594 189.886719-8.835938.003907-34.199218-46.964844c-.792969-1.097656-1.644532-2.125-2.535156-3.097656l-10.640626-70.710938c-.007812-.054688-.015624-.113281-.023437-.171875l-9.746094-64.78125c-.945312-6.660156 3.699219-12.910156 10.328125-13.925781zm-63.789062 223.625c-.011719-1.070313.054687-2.148438.226562-3.226563.8125-5.046875 3.542969-9.472656 7.683594-12.464843 3.382812-2.441407 7.296875-3.617188 11.179688-3.617188 5.917968 0 11.761718 2.734375 15.503906 7.878906l.46875.644532 36.761718 50.722656c3.019532 4.144531 4.234376 9.210937 3.429688 14.273437-.804688 5.058594-3.535156 9.5-7.691406 12.5-8.515625 6.15625-20.480469 4.25-26.660156-4.230469l-37.296876-51.460937c-1.839843-2.546875-2.996093-5.441406-3.429687-8.464844zm110.695312 11.671875c-.804687 5.0625-3.539062 9.5-7.691406 12.5v.003906c-8.515625 6.152344-20.480469 4.25-26.671875-4.246094l-28.902344-39.691406-.417969-.578125c-.015624-.019531-.03125-.039062-.042968-.058594l-13.96875-19.179687c-2.992188-4.140625-4.191406-9.203125-3.378906-14.246094.8125-5.046875 3.542968-9.472656 7.683593-12.464844 3.378907-2.441406 7.292969-3.617187 11.171875-3.617187 5.945313 0 11.8125 2.757812 15.558594 7.941406l43.230469 59.367188c3.015625 4.140624 4.234375 9.210937 3.429687 14.269531zm88.578125 35.300781v91.878906c0 13.65625-5.652343 26.921875-15.503906 36.394532-6.421875 6.171874-11.449219 13.449218-14.941406 21.640624-3.488281 8.195313-5.257813 16.863282-5.257813 25.765626v27.6875c-17.390625 4.832031-35.464844 7.320312-53.753906 7.320312-26.9375 0-52.644531-5.359375-76.128906-15.039062v-26.308594c0-16.660156-4.605469-32.976563-13.320313-47.175782-6.277343-10.226562-10.042969-21.964843-10.882812-33.9375l-1.234375-17.613281c-.296875-4.210937-3.953125-7.390625-8.15625-7.089843-4.210938.296874-7.382813 3.949218-7.089844 8.160156l1.238281 17.613281c1.011719 14.414063 5.539063 28.542969 13.097657 40.859375 7.238281 11.796875 11.066406 25.34375 11.066406 39.183594v19.25c-64.648438-33.28125-108.964844-100.699219-108.964844-178.28125 0-87.609375 57.136719-164.996094 139.976562-191.128906l7.476563 49.710937c-9.515625-2.386719-19.980469-.722656-28.539063 5.457031-14.101562 10.1875-18.1875 29.152344-10.191406 44.105469-6.6875.175781-13.386718 2.289063-19.203125 6.492187-7.449219 5.382813-12.359375 13.347657-13.820312 22.421876-.539063 3.328124-.582031 6.660156-.164063 9.914062l5.632813 80.257812c.28125 4.027344 3.636719 7.109376 7.613281 7.109376.179688 0 .363281-.007813.542969-.019532 4.210937-.296875 7.382812-3.949218 7.089843-8.15625l-3.363281-47.925781 26.046875 35.941406c6.722656 9.226563 17.230469 14.132813 27.878906 14.132813 6.980469 0 14.027344-2.109375 20.09375-6.496094 7.472657-5.398438 12.386719-13.382812 13.835938-22.484375.628906-3.960937.570312-7.925781-.144531-11.753906l52.316406-.058594c4.222656-.003906 7.640625-3.429687 7.632813-7.648437-.003907-4.21875-3.421876-7.632813-7.640626-7.632813 0 0-.003906 0-.007812 0l-23.328125.023437c3.421875-4.472656 5.703125-9.75 6.613281-15.46875 1.265625-7.953124-.246094-15.917968-4.269531-22.769531l5.507813-.003906c.636718.171875 1.292968.289063 1.96875.289063.53125 0 1.070312-.058594 1.613281-.171876.148437-.035156.292969-.078124.441406-.121093l12.507813-.003907h.03125c14.867187 0 28.847656 5.785157 39.363281 16.296876 10.523437 10.515624 16.320312 24.503906 16.320312 39.382812zm-55.683593-70.964844c-.015626 0-.03125 0-.042969 0l-8.460938.007813-26.144531-119.109375c.292969 0 .582031-.011719.875-.011719 15.925781 0 31.699219 1.867187 47.003906 5.550781l-21.023437 70.046875c-1.210938 4.042969 1.082031 8.300781 5.125 9.515625 4.039062 1.210938 8.300781-1.078125 9.515625-5.121094l44.507812-148.300781c.011719-.035156.023438-.066406.03125-.101562 1.742188-6.105469 7.941406-9.730469 14.113282-8.257813 6.289062 1.503906 10.164062 7.632813 8.835937 13.871094l-42.617187 189.375c-9.730469-4.871094-20.523438-7.464844-31.71875-7.464844zm0 0"/><path d="m247.820312 309.167969c-8.84375 3.710937-53.59375 24.695312-65.875 73.425781-5.824218 23.109375-2.101562 43.640625 2.042969 56.792969 1.027344 3.257812 4.039063 5.34375 7.285157 5.34375.761718 0 1.535156-.113281 2.300781-.355469 4.027343-1.269531 6.261719-5.5625 4.992187-9.585938-3.554687-11.269531-6.75-28.824218-1.800781-48.460937 10.503906-41.683594 49.300781-59.851563 56.96875-63.070313 3.890625-1.632812 5.722656-6.109374 4.089844-10-1.632813-3.890624-6.113281-5.722656-10.003907-4.089843zm0 0"/></svg>
