<?xml version="1.0" standalone="no"?>
<!DOCTYPE svg PUBLIC "-//W3C//DTD SVG 20010904//EN"
 "http://www.w3.org/TR/2001/REC-SVG-20010904/DTD/svg10.dtd">
<svg version="1.0" xmlns="http://www.w3.org/2000/svg"
 width="1875.000000pt" height="1875.000000pt" viewBox="0 0 1875.000000 1875.000000"
 preserveAspectRatio="xMidYMid meet">
<metadata>
Created by potrace 1.11, written by Peter Selinger 2001-2013
</metadata>
<g transform="translate(0.000000,1875.000000) scale(0.100000,-0.100000)"
fill="#000000" stroke="none">
<path d="M0 9375 l0 -9375 9375 0 9375 0 0 9375 0 9375 -9375 0 -9375 0 0
-9375z m9594 6230 c834 -117 1532 -666 1831 -1440 96 -247 135 -452 142 -736
6 -236 -9 -392 -57 -587 -37 -148 -85 -288 -98 -285 -9 2 -443 322 -469 347
-10 9 -8 24 6 71 48 153 53 488 11 700 -131 666 -629 1183 -1285 1333 -292 67
-632 52 -909 -39 -444 -148 -831 -497 -1023 -924 -99 -221 -142 -406 -150
-650 -15 -481 132 -871 451 -1191 109 -109 342 -289 2426 -1875 1268 -965
2320 -1765 2338 -1778 l32 -22 0 2385 0 2386 290 0 290 0 0 -2971 c0 -2373 -3
-2969 -12 -2963 -47 27 -5562 4229 -5648 4303 -409 349 -660 814 -731 1351
-18 136 -15 449 5 600 38 281 107 514 220 745 224 455 580 813 1031 1035 266
131 539 203 840 224 102 6 362 -4 469 -19z m-4188 -2878 c27 -18 513 -385
1079 -817 567 -431 1323 -1007 1680 -1279 1548 -1179 2964 -2271 3148 -2430
638 -549 977 -1265 977 -2065 0 -682 -224 -1380 -607 -1895 -105 -141 -359
-397 -495 -499 -467 -349 -1085 -574 -1680 -612 -679 -43 -1384 187 -1948 636
-109 87 -366 344 -454 454 -277 347 -484 784 -571 1205 -49 237 -59 352 -59
635 0 223 4 288 23 409 65 425 210 802 448 1166 72 110 193 275 217 294 13 11
49 -13 228 -149 117 -90 219 -168 227 -175 11 -11 2 -26 -50 -91 -268 -336
-448 -762 -510 -1204 -17 -123 -15 -422 4 -565 69 -504 292 -963 647 -1328
361 -373 796 -599 1315 -684 156 -25 535 -25 690 0 514 85 954 306 1306 657
459 458 681 1010 682 1700 0 366 -65 662 -213 965 -111 227 -253 418 -452 610
-188 182 -934 760 -3548 2751 -1581 1204 -1567 1194 -1575 1194 -3 0 -5 -1073
-5 -2385 l0 -2385 -290 0 -290 0 0 2960 c0 2530 2 2960 14 2960 8 0 36 -15 62
-33z"/>
</g>
</svg>
