<svg xmlns="http://www.w3.org/2000/svg" viewBox="0 0 208.12 45.91"><path d="M17 34.19a5 5 0 0 1 2.86-4.35 2.3 2.3 0 0 1-1.53-2.28A2.83 2.83 0 0 1 20 25.11 5.6 5.6 0 0 1 17.15 20c0-3.37 2.45-5.88 6.19-5.88a7.37 7.37 0 0 1 2.35.37h5.1v1.43h-2.9a5.67 5.67 0 0 1 1.63 4c0 3.4-2.45 5.92-6.22 5.92a6.55 6.55 0 0 1-1.87-.24 1.76 1.76 0 0 0-1.36 1.6c0 1.26 1.6 1.43 3.4 1.5 3.37.17 7.45.2 7.45 4.62 0 3.26-3.6 5.27-7.75 5.27-3.64.05-6.17-1.48-6.17-4.4zm12.07-.71c0-2.86-2.41-3-4.69-3.06-1.05 0-2.28-.1-3.09-.2A4.12 4.12 0 0 0 18.78 34c0 1.8 1.43 3.16 4.45 3.16 3.4.02 5.88-1.44 5.88-3.69zM27.72 20a4.23 4.23 0 0 0-4.42-4.42A4.18 4.18 0 0 0 18.95 20a4.2 4.2 0 0 0 4.39 4.42A4.19 4.19 0 0 0 27.72 20zM33.4 22.63c0-4.08 2.18-8.5 7.28-8.5s7.45 4.39 7.45 8.43-2.31 8.53-7.41 8.53-7.32-4.38-7.32-8.46zm12.85 0c0-3.64-1.94-7-5.64-7s-5.34 3.26-5.34 6.9 1.8 7 5.47 7 5.51-3.23 5.51-6.9zM51.42 20.11h6.49v1.56h-6.49z" fill="#0080ff"/><path d="M61 34.32a4.76 4.76 0 0 1 2.79-4.11 2.61 2.61 0 0 1-1.46-2.48 3.35 3.35 0 0 1 1.77-2.86 5.5 5.5 0 0 1-2.92-5c0-3.5 2.65-6 7-6a8.85 8.85 0 0 1 2.75.41h5.71v2.52H74.3a5.61 5.61 0 0 1 .92 3.09c0 3.47-2.55 6-6.9 6a11 11 0 0 1-1.87-.17c-.58.31-.85.65-.85 1.12 0 .88 1 1.16 2.89 1.22 3.5.2 8.13.1 8.13 5.07 0 3.43-3.74 5.71-8.64 5.71-4.15-.03-6.98-1.39-6.98-4.52zm12-.91c0-2.11-1.9-2.11-4.08-2.24-.88-.07-1.84-.1-2.65-.24a3.27 3.27 0 0 0-1.73 2.82c0 1.43 1.09 2.52 3.67 2.52 2.93-.01 4.79-1.2 4.79-2.86zm-1.35-13.53a3.43 3.43 0 1 0-6.87 0 3.43 3.43 0 0 0 6.87 0zM79.74 9.4a2.36 2.36 0 1 1 2.35 2.31 2.32 2.32 0 0 1-2.35-2.31zm.54 4.86h3.64v16.46h-3.64zM90 26.33V17h-2.61v-2.73H90V9.54h3.6v4.73h4V17h-4v8.74c0 1.63.44 2.38 1.77 2.38a4.28 4.28 0 0 0 2.18-.68l1 2.72a7.77 7.77 0 0 1-3.84 1C91.4 31.13 90 29.29 90 26.33zM101.36 9.4a2.36 2.36 0 1 1 2.35 2.31 2.32 2.32 0 0 1-2.35-2.31zm.54 4.86h3.64v16.46h-3.64zM109.52 34.32a4.76 4.76 0 0 1 2.79-4.11 2.61 2.61 0 0 1-1.46-2.48 3.35 3.35 0 0 1 1.77-2.86 5.5 5.5 0 0 1-2.92-5c0-3.5 2.65-6 7-6a8.84 8.84 0 0 1 2.75.41h5.71v2.52h-2.38a5.61 5.61 0 0 1 .92 3.09c0 3.47-2.55 6-6.9 6a11 11 0 0 1-1.87-.17c-.58.31-.85.65-.85 1.12 0 .88 1 1.16 2.89 1.22 3.5.2 8.13.1 8.13 5.07 0 3.43-3.74 5.71-8.63 5.71-4.16-.03-6.95-1.39-6.95-4.52zm11.93-.92c0-2.11-1.9-2.11-4.08-2.24-.88-.07-1.84-.1-2.65-.24a3.27 3.27 0 0 0-1.72 2.83c0 1.43 1.09 2.52 3.67 2.52 2.95-.01 4.79-1.2 4.79-2.86zm-1.33-13.53a3.43 3.43 0 1 0-6.87 0 3.43 3.43 0 0 0 6.87 0zM128.5 14.27h3.57v2.21a6.72 6.72 0 0 1 5.27-2.62c3.54 0 4.9 2.31 4.9 5.24v11.62h-3.6V19.84c0-1.84-.65-2.89-2.52-2.89a5.38 5.38 0 0 0-4 2.48v11.29h-3.62zM145.77 22.53c0-4 2.21-8.67 7.89-8.67s8.13 4.52 8.13 8.57-2.41 8.7-8.06 8.7-7.96-4.56-7.96-8.6zm12.17 0c0-3.26-1.39-5.85-4.35-5.85s-4 2.48-4 5.75 1.26 5.85 4.18 5.85 4.17-2.46 4.17-5.75zM165.39 14.27H169v2.38a5.12 5.12 0 0 1 4.25-2.79 4 4 0 0 1 2 .41l-.88 3.23a3 3 0 0 0-1.6-.34c-2.21 0-3.47 2.28-3.77 2.89v10.67h-3.64zM176.44 22.39c0-5 3.3-8.53 7.79-8.53s6.87 2.92 6.87 7.75c0 .44 0 1-.07 1.43h-10.75c.17 2.92 1.46 5.27 4.66 5.27a8.33 8.33 0 0 0 4.38-1.31l1.26 2.48a10.46 10.46 0 0 1-5.92 1.63c-5.37.02-8.22-3.65-8.22-8.72zm11.08-1.94c-.07-2.07-1-3.84-3.37-3.84-2.21 0-3.43 1.53-3.84 3.84z"/></svg>